<svg id="objects" xmlns="http://www.w3.org/2000/svg" viewBox="0 0 58.54 120.11">
  <title>bath</title>
  <g>
    <rect x="625.74" y="451.47" width="106.52" height="56.54" rx="3" ry="3" transform="translate(509.01 -613.15) rotate(90)" fill="#f2f2f2" stroke="#333" stroke-linecap="round" stroke-linejoin="round" stroke-width="2"/>
    <g>
      <rect x="8.3" y="19.89" width="41.95" height="91.93" fill="#f2f2f2"/>
      <path d="M658,504.73V438.15a4.38,4.38,0,0,1,4.38-4.38h33.2a4.38,4.38,0,0,1,4.38,4.38v66.58a21,21,0,0,1-21,21h0A21,21,0,0,1,658,504.73Z" transform="translate(-649.73 -413.89)" fill="none" stroke="#333" stroke-linecap="round" stroke-linejoin="round" stroke-width="2"/>
    </g>
    <circle cx="29.27" cy="33.62" r="4.07" fill="#f2f2f2" stroke="#333" stroke-linecap="round" stroke-linejoin="round" stroke-width="2"/>
    <g>
      <rect x="26.23" y="1" width="6.08" height="23.95" fill="#f2f2f2" stroke="#333" stroke-linecap="round" stroke-linejoin="round" stroke-width="2"/>
      <rect x="36.5" y="1" width="9.48" height="4.74" fill="#f2f2f2" stroke="#333" stroke-linecap="round" stroke-linejoin="round" stroke-width="2"/>
      <rect x="12.56" y="1" width="9.48" height="4.74" fill="#f2f2f2" stroke="#333" stroke-linecap="round" stroke-linejoin="round" stroke-width="2"/>
    </g>
  </g>
</svg>
