<?xml version="1.0" encoding="iso-8859-1"?>
<!-- Generator: Adobe Illustrator 18.0.0, SVG Export Plug-In . SVG Version: 6.00 Build 0)  -->
<!DOCTYPE svg PUBLIC "-//W3C//DTD SVG 1.1//EN" "http://www.w3.org/Graphics/SVG/1.1/DTD/svg11.dtd">
<svg xmlns="http://www.w3.org/2000/svg" xmlns:xlink="http://www.w3.org/1999/xlink" version="1.1" id="Capa_1" x="0px" y="0px" viewBox="0 0 478.533 478.533" style="enable-background:new 0 0 478.533 478.533;" xml:space="preserve" width="64px" height="64px">
<g>
	<path d="M460.699,223.997H17.834C8.001,223.997,0,231.996,0,241.829V378.66c0,9.833,8.001,17.833,17.834,17.833h26.429   l-11.817,43.346c-1.59,5.828,1.847,11.841,7.674,13.43c0.964,0.263,1.932,0.388,2.884,0.388c4.812,0,9.221-3.198,10.546-8.063   l13.387-49.101l344.662,0.001l13.386,49.1c1.325,4.865,5.734,8.063,10.546,8.063c0.951,0,1.92-0.126,2.883-0.388   c5.828-1.589,9.265-7.602,7.675-13.43l-11.816-43.346h26.429c9.833,0,17.834-8,17.834-17.834V241.829   C478.533,231.996,470.532,223.997,460.699,223.997z M255.707,321.183h-32.881c-6.04,0-10.938-4.896-10.938-10.938   c0-6.041,4.898-10.938,10.938-10.938h32.881c6.041,0,10.938,4.897,10.938,10.938C266.645,316.286,261.748,321.183,255.707,321.183z   " fill="#000000"/>
	<path d="M460.699,24.876H17.834C8.001,24.876,0,32.876,0,42.708V179.54c0,9.833,8.001,17.833,17.834,17.833h442.865   c9.833,0,17.834-8,17.834-17.833V42.709C478.533,32.876,470.532,24.876,460.699,24.876z M255.707,122.062h-32.881   c-6.04,0-10.938-4.896-10.938-10.938c0-6.041,4.898-10.938,10.938-10.938h32.881c6.041,0,10.938,4.896,10.938,10.938   C266.645,117.165,261.748,122.062,255.707,122.062z" fill="#000000"/>
</g>
<g>
</g>
<g>
</g>
<g>
</g>
<g>
</g>
<g>
</g>
<g>
</g>
<g>
</g>
<g>
</g>
<g>
</g>
<g>
</g>
<g>
</g>
<g>
</g>
<g>
</g>
<g>
</g>
<g>
</g>
</svg>
