<?xml version="1.0" encoding="iso-8859-1"?>
<!-- Generator: Adobe Illustrator 17.1.0, SVG Export Plug-In . SVG Version: 6.00 Build 0)  -->
<!DOCTYPE svg PUBLIC "-//W3C//DTD SVG 1.1//EN" "http://www.w3.org/Graphics/SVG/1.1/DTD/svg11.dtd">
<svg xmlns="http://www.w3.org/2000/svg" xmlns:xlink="http://www.w3.org/1999/xlink" version="1.1" id="Capa_1" x="0px" y="0px" viewBox="0 0 511 511" style="enable-background:new 0 0 511 511;" xml:space="preserve" width="64px" height="64px">
<path d="M463.5,0h-416C34.542,0,24,10.542,24,23.5S34.542,47,47.5,47h10.594l29.215,87.644C73.368,142.931,64,158.139,64,175.5v144  c0,42.3,13.796,81.433,37.111,113.158l-22.225,22.225C74.445,459.32,72,465.222,72,471.5s2.445,12.18,6.881,16.612  C83.317,492.554,89.219,495,95.5,495s12.183-2.446,16.616-6.884l21.24-21.24C166.53,494.418,209.114,511,255.5,511  s88.97-16.582,122.144-44.125l21.237,21.237c4.436,4.442,10.338,6.888,16.619,6.888s12.183-2.446,16.614-6.882  c4.44-4.438,6.886-10.339,6.886-16.618s-2.445-12.18-6.884-16.616l-22.227-22.227C433.204,400.933,447,361.8,447,319.5v-144  c0-17.361-9.368-32.569-23.309-40.856L452.906,47H463.5c12.958,0,23.5-10.542,23.5-23.5S476.458,0,463.5,0z M420.761,96H90.239  l-5.667-17h341.855L420.761,96z M101.506,477.513C99.904,479.117,97.771,480,95.5,480s-4.404-0.883-6.011-2.493  C87.884,475.903,87,473.77,87,471.5s0.884-4.403,2.491-6.009l21.023-21.022c3.706,4.293,7.605,8.415,11.672,12.365L101.506,477.513z   M421.511,465.493c1.605,1.604,2.489,3.737,2.489,6.007s-0.884,4.403-2.494,6.013c-1.602,1.604-3.735,2.487-6.006,2.487  s-4.404-0.883-6.009-2.491l-20.676-20.677c4.067-3.949,7.966-8.071,11.672-12.365L421.511,465.493z M432,319.5  c0,97.322-79.178,176.5-176.5,176.5S79,416.822,79,319.5v-144c0-17.92,14.58-32.5,32.5-32.5h288c17.92,0,32.5,14.58,32.5,32.5V319.5  z M399.5,128h-288c-3.509,0-6.927,0.394-10.221,1.12L95.239,111h320.522l-6.04,18.12C406.427,128.394,403.009,128,399.5,128z   M431.428,64H79.573l-5.667-17h363.188L431.428,64z M463.5,32h-15.841c-0.011,0-0.022,0-0.033,0H63.382c-0.015,0-0.03,0-0.044,0  H47.5c-4.687,0-8.5-3.813-8.5-8.5s3.813-8.5,8.5-8.5h416c4.687,0,8.5,3.813,8.5,8.5S468.187,32,463.5,32z" fill="#000000"/>
<g>
</g>
<g>
</g>
<g>
</g>
<g>
</g>
<g>
</g>
<g>
</g>
<g>
</g>
<g>
</g>
<g>
</g>
<g>
</g>
<g>
</g>
<g>
</g>
<g>
</g>
<g>
</g>
<g>
</g>
</svg>
