<?xml version="1.0" encoding="iso-8859-1"?>
<!-- Generator: Adobe Illustrator 17.1.0, SVG Export Plug-In . SVG Version: 6.00 Build 0)  -->
<!DOCTYPE svg PUBLIC "-//W3C//DTD SVG 1.1//EN" "http://www.w3.org/Graphics/SVG/1.1/DTD/svg11.dtd">
<svg xmlns="http://www.w3.org/2000/svg" xmlns:xlink="http://www.w3.org/1999/xlink" version="1.1" id="Capa_1" x="0px" y="0px" viewBox="0 0 511.002 511.002" style="enable-background:new 0 0 511.002 511.002;" xml:space="preserve" width="64px" height="64px">
<g>
	<path d="M511.001,335.632V175.368c0-0.008,0-0.016,0-0.024V159.5c0-4.142-3.358-7.5-7.5-7.5s-7.5,3.358-7.5,7.5v10.594   l-18.725,6.241c-0.006,0.002-0.012,0.004-0.019,0.006l-20.785,6.928c-4.281-4.475-10.304-7.271-16.971-7.271h-0.5V95.5   c0-12.958-10.542-23.5-23.5-23.5h-80.5v-0.5c0-6.667-2.796-12.69-7.27-16.971l6.928-20.786c0.002-0.006,0.004-0.012,0.006-0.019   L340.907,15h10.594c4.142,0,7.5-3.358,7.5-7.5s-3.358-7.5-7.5-7.5h-15.846c-0.005,0-0.01,0-0.015,0H175.374   c-0.011,0-0.022,0-0.033,0h-15.841c-4.142,0-7.5,3.358-7.5,7.5s3.358,7.5,7.5,7.5h10.594l6.242,18.725   c0.002,0.006,0.004,0.012,0.006,0.019l6.928,20.786c-4.475,4.281-7.27,10.304-7.27,16.971V72h-80.5   c-12.958,0-23.5,10.542-23.5,23.5V176h-0.5c-6.667,0-12.69,2.795-16.971,7.271l-20.785-6.928c-0.006-0.002-0.012-0.004-0.019-0.006   l-18.725-6.241V159.5c0-4.142-3.358-7.5-7.5-7.5s-7.5,3.358-7.5,7.5v15.844c0,0.008,0,0.016,0,0.024v160.265   c0,0.008,0,0.016,0,0.024V351.5c0,4.142,3.358,7.5,7.5,7.5s7.5-3.358,7.5-7.5v-10.594l18.725-6.241   c0.006-0.002,0.012-0.004,0.019-0.006l20.785-6.928C58.811,332.205,64.834,335,71.501,335h0.5v80.5c0,12.958,10.542,23.5,23.5,23.5   h80.5v0.5c0,6.667,2.796,12.69,7.27,16.971l-6.928,20.786c-0.002,0.006-0.004,0.012-0.006,0.019L170.095,496h-10.594   c-4.142,0-7.5,3.358-7.5,7.5s3.358,7.5,7.5,7.5h15.977c0.008,0,0.016,0.002,0.024,0.002c0.008,0,0.016-0.002,0.025-0.002h159.948   c0.008,0,0.016,0.002,0.025,0.002c0.008,0,0.016-0.002,0.024-0.002h15.977c4.142,0,7.5-3.358,7.5-7.5s-3.358-7.5-7.5-7.5h-10.594   l-6.242-18.725c-0.002-0.006-0.004-0.012-0.006-0.019l-6.928-20.786c4.475-4.281,7.27-10.304,7.27-16.971V439h80.5   c12.958,0,23.5-10.542,23.5-23.5V335h0.5c6.667,0,12.69-2.795,16.971-7.271l20.785,6.928c0.006,0.002,0.012,0.004,0.019,0.006   l18.725,6.241V351.5c0,4.142,3.358,7.5,7.5,7.5s7.5-3.358,7.5-7.5v-15.844C511.001,335.648,511.001,335.64,511.001,335.632z    M325.095,15l-3,9H188.907l-3-9H325.095z M193.907,39h123.188l-3.047,9.14c-0.837-0.091-1.687-0.14-2.547-0.14h-112   c-0.861,0-1.71,0.05-2.547,0.14L193.907,39z M191.001,71.5c0-4.687,3.813-8.5,8.5-8.5h112c4.687,0,8.5,3.813,8.5,8.5V72h-129V71.5z    M15.001,185.906l9,3v133.188l-9,3V185.906z M39.001,317.094V193.906l9.14,3.047c-0.091,0.837-0.14,1.687-0.14,2.547v112   c0,0.861,0.05,1.71,0.14,2.547L39.001,317.094z M71.501,320c-4.687,0-8.5-3.813-8.5-8.5v-112c0-4.687,3.813-8.5,8.5-8.5h0.5v129   H71.501z M185.907,496l3-9h133.188l3,9H185.907z M317.095,472H193.907l3.047-9.14c0.837,0.091,1.687,0.14,2.547,0.14h112   c0.861,0,1.71-0.05,2.547-0.14L317.095,472z M320.001,439.5c0,4.687-3.813,8.5-8.5,8.5h-112c-4.687,0-8.5-3.813-8.5-8.5V439h129   V439.5z M424.001,415.5c0,4.687-3.813,8.5-8.5,8.5h-320c-4.687,0-8.5-3.813-8.5-8.5v-320c0-4.687,3.813-8.5,8.5-8.5h320   c4.687,0,8.5,3.813,8.5,8.5V415.5z M439.501,320h-0.5V191h0.5c4.687,0,8.5,3.813,8.5,8.5v112   C448.001,316.187,444.188,320,439.501,320z M462.861,196.953l9.14-3.047v123.188l-9.14-3.047c0.091-0.837,0.14-1.687,0.14-2.547   v-112C463.001,198.639,462.951,197.79,462.861,196.953z M487.001,322.094V188.906l9-3v139.188L487.001,322.094z" fill="#000000"/>
	<path d="M143.501,216c-21.78,0-39.5,17.72-39.5,39.5s17.72,39.5,39.5,39.5s39.5-17.72,39.5-39.5S165.281,216,143.501,216z    M143.501,280c-13.509,0-24.5-10.991-24.5-24.5c0-13.509,10.991-24.5,24.5-24.5s24.5,10.991,24.5,24.5   C168.001,269.009,157.01,280,143.501,280z" fill="#000000"/>
	<path d="M255.501,183c21.78,0,39.5-17.72,39.5-39.5s-17.72-39.5-39.5-39.5s-39.5,17.72-39.5,39.5S233.721,183,255.501,183z    M255.501,119c13.509,0,24.5,10.991,24.5,24.5s-10.991,24.5-24.5,24.5s-24.5-10.991-24.5-24.5S241.992,119,255.501,119z" fill="#000000"/>
	<path d="M255.501,200c-30.603,0-55.5,24.897-55.5,55.5s24.897,55.5,55.5,55.5s55.5-24.897,55.5-55.5S286.104,200,255.501,200z    M255.501,296c-22.332,0-40.5-18.168-40.5-40.5s18.168-40.5,40.5-40.5s40.5,18.168,40.5,40.5S277.833,296,255.501,296z" fill="#000000"/>
	<path d="M171.501,215c10.752,0,19.5-8.748,19.5-19.5s-8.748-19.5-19.5-19.5s-19.5,8.748-19.5,19.5S160.749,215,171.501,215z    M171.501,191c2.481,0,4.5,2.019,4.5,4.5s-2.019,4.5-4.5,4.5s-4.5-2.019-4.5-4.5S169.02,191,171.501,191z" fill="#000000"/>
	<path d="M315.501,191c10.752,0,19.5-8.748,19.5-19.5s-8.748-19.5-19.5-19.5s-19.5,8.748-19.5,19.5S304.749,191,315.501,191z    M315.501,167c2.481,0,4.5,2.019,4.5,4.5s-2.019,4.5-4.5,4.5s-4.5-2.019-4.5-4.5S313.02,167,315.501,167z" fill="#000000"/>
	<path d="M367.501,216c-21.78,0-39.5,17.72-39.5,39.5s17.72,39.5,39.5,39.5s39.5-17.72,39.5-39.5S389.281,216,367.501,216z    M367.501,280c-13.509,0-24.5-10.991-24.5-24.5c0-13.509,10.991-24.5,24.5-24.5s24.5,10.991,24.5,24.5   C392.001,269.009,381.01,280,367.501,280z" fill="#000000"/>
	<path d="M255.501,328c-21.78,0-39.5,17.72-39.5,39.5s17.72,39.5,39.5,39.5s39.5-17.72,39.5-39.5S277.281,328,255.501,328z    M255.501,392c-13.509,0-24.5-10.991-24.5-24.5s10.991-24.5,24.5-24.5s24.5,10.991,24.5,24.5S269.01,392,255.501,392z" fill="#000000"/>
	<path d="M339.501,296c-10.752,0-19.5,8.748-19.5,19.5s8.748,19.5,19.5,19.5s19.5-8.748,19.5-19.5S350.253,296,339.501,296z    M339.501,320c-2.481,0-4.5-2.019-4.5-4.5s2.019-4.5,4.5-4.5s4.5,2.019,4.5,4.5S341.982,320,339.501,320z" fill="#000000"/>
	<path d="M195.501,320c-10.752,0-19.5,8.748-19.5,19.5s8.748,19.5,19.5,19.5s19.5-8.748,19.5-19.5S206.253,320,195.501,320z    M195.501,344c-2.481,0-4.5-2.019-4.5-4.5s2.019-4.5,4.5-4.5s4.5,2.019,4.5,4.5S197.982,344,195.501,344z" fill="#000000"/>
	<path d="M311.501,352c-4.142,0-7.5,3.358-7.5,7.5v32c0,4.142,3.358,7.5,7.5,7.5s7.5-3.358,7.5-7.5v-32   C319.001,355.358,315.643,352,311.501,352z" fill="#000000"/>
	<path d="M359.501,207h32c4.142,0,7.5-3.358,7.5-7.5s-3.358-7.5-7.5-7.5h-32c-4.142,0-7.5,3.358-7.5,7.5S355.359,207,359.501,207z" fill="#000000"/>
	<path d="M151.501,304h-32c-4.142,0-7.5,3.358-7.5,7.5s3.358,7.5,7.5,7.5h32c4.142,0,7.5-3.358,7.5-7.5S155.643,304,151.501,304z" fill="#000000"/>
	<path d="M199.501,159c4.142,0,7.5-3.358,7.5-7.5v-32c0-4.142-3.358-7.5-7.5-7.5s-7.5,3.358-7.5,7.5v32   C192.001,155.642,195.359,159,199.501,159z" fill="#000000"/>
	<path d="M255.501,224c-17.369,0-31.5,14.131-31.5,31.5s14.131,31.5,31.5,31.5s31.5-14.131,31.5-31.5S272.87,224,255.501,224z    M255.501,272c-9.098,0-16.5-7.402-16.5-16.5c0-9.098,7.402-16.5,16.5-16.5s16.5,7.402,16.5,16.5   C272.001,264.598,264.599,272,255.501,272z" fill="#000000"/>
</g>
<g>
</g>
<g>
</g>
<g>
</g>
<g>
</g>
<g>
</g>
<g>
</g>
<g>
</g>
<g>
</g>
<g>
</g>
<g>
</g>
<g>
</g>
<g>
</g>
<g>
</g>
<g>
</g>
<g>
</g>
</svg>
