<?xml version="1.0" encoding="iso-8859-1"?>
<!-- Generator: Adobe Illustrator 17.1.0, SVG Export Plug-In . SVG Version: 6.00 Build 0)  -->
<!DOCTYPE svg PUBLIC "-//W3C//DTD SVG 1.1//EN" "http://www.w3.org/Graphics/SVG/1.1/DTD/svg11.dtd">
<svg xmlns="http://www.w3.org/2000/svg" xmlns:xlink="http://www.w3.org/1999/xlink" version="1.1" id="Capa_1" x="0px" y="0px" viewBox="0 0 511 511" style="enable-background:new 0 0 511 511;" xml:space="preserve" width="64px" height="64px">
<path d="M463.5,0h-416C43.358,0,40,3.358,40,7.5v24c0,4.142,3.358,7.5,7.5,7.5H64v224.498c0,0.001,0,0.003,0,0.005v39.995  c0,0.001,0,0.003,0,0.005v39.995c0,0.001,0,0.003,0,0.005v39.995c0,0.001,0,0.003,0,0.005V472h-0.5c-4.142,0-7.5,3.358-7.5,7.5v24  c0,4.142,3.358,7.5,7.5,7.5h384c4.142,0,7.5-3.358,7.5-7.5v-24c0-4.142-3.358-7.5-7.5-7.5H447v-80.498c0-0.001,0-0.003,0-0.005  v-39.995c0-0.001,0-0.003,0-0.005v-39.995c0-0.001,0-0.003,0-0.005v-39.995c0-0.001,0-0.003,0-0.005V39h16.5  c4.142,0,7.5-3.358,7.5-7.5v-24C471,3.358,467.642,0,463.5,0z M84.394,247l161,161h-18.787L79,260.394V247H84.394z M124.394,247  l161,161h-18.787l-161-161H124.394z M164.394,247l161,161h-18.787l-161-161H164.394z M204.394,247l161,161h-18.787l-161-161H204.394  z M244.394,247l161,161h-18.787l-161-161H244.394z M284.394,247L432,394.606V408h-5.394l-161-161H284.394z M324.394,247L432,354.606  v18.787L305.606,247H324.394z M364.394,247L432,314.606v18.787L345.606,247H364.394z M404.394,247L432,274.606v18.787L385.606,247  H404.394z M432,253.394L425.606,247H432V253.394z M186.606,408L79,300.394v-18.787L205.394,408H186.606z M146.606,408L79,340.394  v-18.787L165.394,408H146.606z M106.606,408L79,380.394v-18.787L125.394,408H106.606z M79,401.606L85.394,408H79V401.606z M440,496  H71v-9h369V496z M79,472v-49h353v49H79z M432,232h-24.497c-0.002,0-0.003,0-0.005,0h-39.995c-0.002,0-0.003,0-0.005,0h-39.995  c-0.002,0-0.003,0-0.005,0h-39.995c-0.002,0-0.003,0-0.005,0h-39.995c-0.002,0-0.003,0-0.005,0h-39.995c-0.002,0-0.003,0-0.005,0  h-39.995c-0.002,0-0.003,0-0.005,0h-39.995c-0.002,0-0.003,0-0.005,0H87.503c-0.002,0-0.003,0-0.005,0H79V39h21.681  C97.716,43.802,96,49.454,96,55.5v40c0,17.369,14.131,31.5,31.5,31.5h1.734c3.138,9.29,11.93,16,22.266,16h64  c10.585,0,19.554-7.036,22.486-16.675c6.956-1.462,13.07-5.228,17.514-10.456c4.444,5.229,10.558,8.994,17.514,10.456  C275.946,135.964,284.915,143,295.5,143h64c10.336,0,19.128-6.71,22.266-16h1.734c17.369,0,31.5-14.131,31.5-31.5v-40  c0-6.046-1.716-11.698-4.681-16.5H432V232z M400,55.5v40c0,9.098-7.402,16.5-16.5,16.5H383v-8.5c0-12.958-10.542-23.5-23.5-23.5  h-31.997c-0.002,0-0.003,0-0.005,0H295.5c-12.958,0-23.5,10.542-23.5,23.5v6.679c-5.334-2.737-9-8.282-9-14.679v-40  c0-9.098,7.402-16.5,16.5-16.5h104C392.598,39,400,46.402,400,55.5z M338.606,128l-33-33h18.787l33,33H338.606z M288.635,98.508  c0.364,0.833,0.88,1.614,1.561,2.295L317.394,128H295.5c-4.687,0-8.5-3.813-8.5-8.5v-16C287,101.634,287.612,99.912,288.635,98.508z   M368,117.394L345.606,95H359.5c4.687,0,8.5,3.813,8.5,8.5V117.394z M248,55.5v40c0,6.396-3.666,11.941-9,14.679V103.5  c0-12.958-10.542-23.5-23.5-23.5h-31.997c-0.002,0-0.003,0-0.005,0H151.5c-12.958,0-23.5,10.542-23.5,23.5v8.5h-0.5  c-9.098,0-16.5-7.402-16.5-16.5v-40c0-9.098,7.402-16.5,16.5-16.5h104C240.598,39,248,46.402,248,55.5z M194.606,128l-33-33h18.787  l33,33H194.606z M144.635,98.508c0.364,0.833,0.88,1.614,1.561,2.295L173.394,128H151.5c-4.687,0-8.5-3.813-8.5-8.5v-16  C143,101.634,143.612,99.912,144.635,98.508z M224,117.394L201.606,95H215.5c4.687,0,8.5,3.813,8.5,8.5V117.394z M456,24h-72.5h-104  h-48h-104H55v-9h401V24z" fill="#000000"/>
<g>
</g>
<g>
</g>
<g>
</g>
<g>
</g>
<g>
</g>
<g>
</g>
<g>
</g>
<g>
</g>
<g>
</g>
<g>
</g>
<g>
</g>
<g>
</g>
<g>
</g>
<g>
</g>
<g>
</g>
</svg>
