<?xml version="1.0" encoding="iso-8859-1"?>
<!-- Generator: Adobe Illustrator 19.0.0, SVG Export Plug-In . SVG Version: 6.00 Build 0)  -->
<svg version="1.1" id="Capa_1" xmlns="http://www.w3.org/2000/svg" xmlns:xlink="http://www.w3.org/1999/xlink" x="0px" y="0px"
	 viewBox="0 0 470 470" style="enable-background:new 0 0 470 470;" xml:space="preserve">
<g>
	<path d="M462.5,0H7.5C3.358,0,0,3.358,0,7.5v38.747c0,4.142,3.358,7.5,7.5,7.5H20V462.5c0,4.142,3.358,7.5,7.5,7.5h415
		c4.142,0,7.5-3.358,7.5-7.5V53.747h12.5c4.142,0,7.5-3.358,7.5-7.5V7.5C470,3.358,466.642,0,462.5,0z M455,38.747H87.5
		c-4.142,0-7.5,3.358-7.5,7.5c0.002,4.144,3.359,7.5,7.5,7.5H435v74H35v-74h22.5c4.141,0,7.498-3.356,7.5-7.497
		c0-4.145-3.358-7.503-7.5-7.503H15V15h440V38.747z M387.5,407.5h-43.717c2.694-4.546,4.247-9.844,4.247-15.5
		c0-16.818-13.682-30.5-30.5-30.5h-33.271c2.703-1.925,5.301-4.01,7.762-6.291c13.341-12.362,22.492-29.619,25.767-48.59
		c0.705-4.082-2.033-7.962-6.115-8.667c-0.11-0.019-0.218-0.026-0.328-0.04c-3.958-0.506-7.653,2.182-8.339,6.154
		C298.432,330.562,277.877,361.5,235,361.5c-19.46,0-36.321-6.625-48.758-19.159c-13.101-13.203-20.526-32.134-20.373-51.94
		c0.219-28.332,15.607-55.65,24.328-68.876l7.79,11.013c3.302,4.66,6.953,4.501,9.438,3.546c2.006-0.771,3.584-2.366,4.335-4.38
		c0.028-0.075,0.102-0.284,0.214-0.62c2.302-6.898,10.173-28.575,23.026-44.932c12.855,16.361,20.725,38.037,23.026,44.935
		c0.111,0.332,0.184,0.539,0.211,0.614c0.772,2.075,2.421,3.702,4.506,4.447c2.445,0.874,6.036,0.955,9.268-3.609l7.799-11.025
		c7.287,11.028,19.22,31.883,23.078,55.062c0.665,3.996,4.377,6.717,8.361,6.198c0.09-0.012,0.179-0.016,0.269-0.031
		c4.086-0.68,6.847-4.544,6.167-8.63c-6.299-37.847-31.005-68.945-32.053-70.251c-1.474-1.835-3.725-2.881-6.078-2.799
		c-2.353,0.072-4.535,1.245-5.894,3.167c-1.928,2.728-4.196,5.936-6.358,8.993c-5.329-12.75-14.345-30.749-26.922-43.706
		c-1.412-1.455-3.354-2.276-5.381-2.276s-3.969,0.821-5.381,2.276c-12.576,12.955-21.593,30.956-26.922,43.706
		c-2.162-3.057-4.43-6.265-6.358-8.993c-1.358-1.922-3.541-3.094-5.894-3.167c-2.347-0.076-4.603,0.964-6.077,2.799
		c-1.353,1.685-33.152,41.767-33.498,86.425c-0.184,23.776,8.828,46.601,24.725,62.622c3.158,3.182,6.55,6.037,10.133,8.593H152.47
		c-16.818,0-30.5,13.682-30.5,30.5c0,5.656,1.553,10.954,4.247,15.5H82.5V142.747h305V407.5z M178.723,407.5
		c2.694-4.546,4.247-9.844,4.247-15.5s-1.553-10.954-4.247-15.5H317.53c8.547,0,15.5,6.953,15.5,15.5s-6.953,15.5-15.5,15.5H178.723
		z M136.97,392c0-8.547,6.953-15.5,15.5-15.5s15.5,6.953,15.5,15.5s-6.953,15.5-15.5,15.5S136.97,400.547,136.97,392z M35,142.747
		h32.5V455H35V142.747z M82.5,422.5h305V455h-305V422.5z M402.5,142.747H435V455h-32.5V142.747z"/>
	<path d="M88,95.744c4.411,0,8-3.589,8-8s-3.589-8-8-8s-8,3.589-8,8S83.589,95.744,88,95.744z"/>
	<path d="M340.53,110.243c4.411,0,8-3.589,8-8s-3.589-8-8-8s-8,3.589-8,8S336.119,110.243,340.53,110.243z"/>
	<path d="M383.71,96.317c4.411,0,8-3.589,8-8s-3.589-8-8-8s-8,3.589-8,8S379.299,96.317,383.71,96.317z"/>
</g>
<g>
</g>
<g>
</g>
<g>
</g>
<g>
</g>
<g>
</g>
<g>
</g>
<g>
</g>
<g>
</g>
<g>
</g>
<g>
</g>
<g>
</g>
<g>
</g>
<g>
</g>
<g>
</g>
<g>
</g>
</svg>
