<?xml version="1.0" encoding="utf-8"?>
<!-- Generator: Adobe Illustrator 17.0.0, SVG Export Plug-In . SVG Version: 6.00 Build 0)  -->
<!DOCTYPE svg PUBLIC "-//W3C//DTD SVG 1.1//EN" "http://www.w3.org/Graphics/SVG/1.1/DTD/svg11.dtd">
<svg version="1.1"
	 id="svgElement" xmlns:dc="http://purl.org/dc/elements/1.1/" xmlns:cc="http://creativecommons.org/ns#" xmlns:rdf="http://www.w3.org/1999/02/22-rdf-syntax-ns#" xmlns:svg="http://www.w3.org/2000/svg"
	 xmlns="http://www.w3.org/2000/svg" xmlns:xlink="http://www.w3.org/1999/xlink" x="0px" y="0px" width="44.66px"
	 height="44.707px" viewBox="0 0 44.66 44.707" enable-background="new 0 0 44.66 44.707" xml:space="preserve">
<path fill="#FFFFFF" stroke="#000000" stroke-width="0.9988" d="M7.802,0.025C0,0.025,0,7.409,0,7.409
	c0,5.19,2.963,14.061,13.105,24.204c10.13,10.13,18.987,13.07,24.17,13.07c0,0,7.375,0,7.375-7.792c0-7.792,0.01-36.866,0.01-36.866
	S15.604,0.025,7.802,0.025z"/>
<path fill="none" stroke="#000000" d="M17.643,0.025c0,0,7.946,0.528,9.004,1.586s15.352,13.9,16.286,14.833
	c0.933,0.933,1.721,6.495,1.721,10.65"/>
<path fill="#FFFFFF" stroke="#000000" stroke-width="0.8796" d="M41.532,18.054c0.922,0.922,1.473,8.812,1.473,8.812
	s-0.024,5.354-0.024,9.394c0,6.863-5.762,6.731-5.762,6.731c-4.562,0-14.064-3.636-22.98-12.545
	C5.33,21.531,1.693,12.029,1.693,7.467c0,0-0.132-5.762,6.731-5.762c4.041,0,9.394-0.024,9.394-0.024s6.833,0.494,7.812,1.473
	L41.532,18.054z"/>
<ellipse id="path4395-4-3-2" fill="#FFFFFF" stroke="#000000" stroke-width="0.5" stroke-linecap="round" stroke-linejoin="round" cx="24.508" cy="20.218" rx="2.61" ry="2.574"/>
<rect id="rect4379-8-8-4-9-2" x="32.536" y="4.023" transform="matrix(0.7071 0.7071 -0.7071 0.7071 17.2839 -21.5244)" fill="#FFFFFF" stroke="#000000" stroke-width="0.5736" stroke-linejoin="round" width="4.177" height="12.156"/>
</svg>
