<svg id="objects" xmlns="http://www.w3.org/2000/svg" viewBox="0 0 115.01 65.19">
  <title>sofa-extended</title>
  <g>
    <path d="M42.05,11.15H73a0,0,0,0,1,0,0v27.9a3,3,0,0,1-3,3H45.05a3,3,0,0,1-3-3V11.15A0,0,0,0,1,42.05,11.15Z" fill="#f2f2f2" stroke="#333" stroke-linecap="round" stroke-linejoin="round" stroke-width="2"/>
    <path d="M11.15,11.15h30.9a0,0,0,0,1,0,0v50a3,3,0,0,1-3,3H14.15a3,3,0,0,1-3-3v-50A0,0,0,0,1,11.15,11.15Z" fill="#f2f2f2" stroke="#333" stroke-linecap="round" stroke-linejoin="round" stroke-width="2"/>
    <path d="M73,11.15h30.9a0,0,0,0,1,0,0v27.9a3,3,0,0,1-3,3H76a3,3,0,0,1-3-3V11.15A0,0,0,0,1,73,11.15Z" fill="#f2f2f2" stroke="#333" stroke-linecap="round" stroke-linejoin="round" stroke-width="2"/>
    <rect x="1" y="1" width="10.15" height="36.9" fill="#f2f2f2" stroke="#333" stroke-linecap="round" stroke-linejoin="round" stroke-width="2"/>
    <rect x="103.86" y="1" width="10.15" height="36.9" fill="#f2f2f2" stroke="#333" stroke-linecap="round" stroke-linejoin="round" stroke-width="2"/>
    <rect x="301.93" y="581.78" width="10.15" height="92.71" transform="translate(685.64 -300.93) rotate(90)" fill="#f2f2f2" stroke="#333" stroke-linecap="round" stroke-linejoin="round" stroke-width="2"/>
  </g>
</svg>
