<svg id="objects" xmlns="http://www.w3.org/2000/svg" viewBox="0 0 116 44.27">
  <title>sofa</title>
  <g>
    <path d="M42.41,11.45H73.59a0,0,0,0,1,0,0V40.27a3,3,0,0,1-3,3H45.41a3,3,0,0,1-3-3V11.45A0,0,0,0,1,42.41,11.45Z" fill="#f2f2f2" stroke="#333" stroke-linecap="round" stroke-linejoin="round" stroke-width="2"/>
    <path d="M11.24,11.45H42.41a0,0,0,0,1,0,0V40.27a3,3,0,0,1-3,3H14.24a3,3,0,0,1-3-3V11.45A0,0,0,0,1,11.24,11.45Z" fill="#f2f2f2" stroke="#333" stroke-linecap="round" stroke-linejoin="round" stroke-width="2"/>
    <path d="M73.59,11.45h31.18a0,0,0,0,1,0,0V40.27a3,3,0,0,1-3,3H76.59a3,3,0,0,1-3-3V11.45A0,0,0,0,1,73.59,11.45Z" fill="#f2f2f2" stroke="#333" stroke-linecap="round" stroke-linejoin="round" stroke-width="2"/>
    <rect x="1" y="1" width="10.24" height="38" fill="#f2f2f2" stroke="#333" stroke-linecap="round" stroke-linejoin="round" stroke-width="2"/>
    <rect x="104.76" y="1" width="10.24" height="38" fill="#f2f2f2" stroke="#333" stroke-linecap="round" stroke-linejoin="round" stroke-width="2"/>
    <rect x="673.77" y="591.98" width="10.45" height="93.53" transform="translate(696.75 -672.77) rotate(90)" fill="#f2f2f2" stroke="#333" stroke-linecap="round" stroke-linejoin="round" stroke-width="2"/>
  </g>
</svg>
