<?xml version="1.0" standalone="no" ?>
<!DOCTYPE svg PUBLIC "-//W3C//DTD SVG 1.1//EN" "http://www.w3.org/Graphics/SVG/1.1/DTD/svg11.dtd">
<svg id="svgElement" width="1175.13" height="1288.67" xmlns="http://www.w3.org/2000/svg" version="1.1" >
	<g class="Floorplan" >	<polygon class="Room Room" points="137.982,416.941 125,416.941 125,599.151 137.982,599.151 " fill="rgb(255,255,255)" stroke-width="1" stroke="rgb(255,255,255)" />
	<polygon class="Room Room" points="137.982,599.151 125,599.151 125,672.464 137.982,672.464 " fill="rgb(255,255,255)" stroke-width="1" stroke="rgb(255,255,255)" />
	<polygon class="Room Room" points="412.176,599.151 376.015,599.151 288.662,599.151 288.662,672.464 125,672.464 125,1007.89 176.383,1007.89 176.383,1034.8 412.176,1034.8 " fill="rgb(255,255,255)" stroke-width="1" stroke="rgb(255,255,255)" />
	<polygon class="Room Room" points="288.662,599.151 176.514,599.151 176.514,639.957 137.982,639.957 137.982,672.464 288.662,672.464 " fill="rgb(255,255,255)" stroke-width="1" stroke="rgb(255,255,255)" />
	<polygon class="Room Room" points="157.514,599.151 137.982,599.151 137.982,639.957 157.514,639.957 " fill="rgb(255,255,255)" stroke-width="1" stroke="rgb(255,255,255)" />
	<polygon class="Room Room" points="176.514,599.151 157.514,599.151 157.514,639.957 176.514,639.957 " fill="rgb(255,255,255)" stroke-width="1" stroke="rgb(255,255,255)" />
	<polygon class="Room Room" points="207.637,583.853 137.982,583.853 137.982,599.151 207.637,599.151 " fill="rgb(255,255,255)" stroke-width="1" stroke="rgb(255,255,255)" />
	<polygon class="Room Room" points="207.637,569.14 137.982,569.14 137.982,583.853 207.637,583.853 " fill="rgb(255,255,255)" stroke-width="1" stroke="rgb(255,255,255)" />
	<polygon class="Room Room" points="376.015,416.941 137.982,416.941 137.982,569.14 207.637,569.14 207.637,599.151 288.662,599.151 376.015,599.151 " fill="rgb(255,255,255)" stroke-width="1" stroke="rgb(255,255,255)" />
	<polygon class="Room Room" points="442.331,416.941 376.015,416.941 376.015,526.429 442.331,526.429 " fill="rgb(255,255,255)" stroke-width="1" stroke="rgb(255,255,255)" />
	<polygon class="Room Room" points="716.965,1005.45 744.592,1005.45 744.592,371.32 779.189,371.32 779.189,125 531.078,125 531.078,216.131 421.566,216.131 421.566,263.171 442.448,263.171 442.448,284.193 413.715,284.193 413.715,263.171 260.732,263.171 260.732,416.941 442.331,416.941 442.331,599.151 412.176,599.151 412.176,1008.92 451.195,1008.92 451.195,1034.8 716.965,1034.8 " fill="rgb(255,255,255)" stroke-width="1" stroke="rgb(255,255,255)" />
	<polygon class="Room Room" points="442.331,526.429 376.015,526.429 376.015,599.151 412.176,599.151 442.331,599.151 " fill="rgb(255,255,255)" stroke-width="1" stroke="rgb(255,255,255)" />
	<polygon class="Room Room" points="531.078,125 421.566,125 421.566,216.131 531.078,216.131 " fill="rgb(255,255,255)" stroke-width="1" stroke="rgb(255,255,255)" />
	<polygon class="Room Room" points="326.009,204.155 260.732,204.155 260.732,234.002 326.009,234.002 " fill="rgb(255,255,255)" stroke-width="1" stroke="rgb(255,255,255)" />
	<polygon class="Room Room" points="326.009,234.002 260.732,234.002 260.732,263.171 326.009,263.171 " fill="rgb(255,255,255)" stroke-width="1" stroke="rgb(255,255,255)" />
	<polygon class="Room Room" points="413.715,204.155 326.009,204.155 326.009,263.171 413.715,263.171 " fill="rgb(255,255,255)" stroke-width="1" stroke="rgb(255,255,255)" />
	<polygon class="Room Room" points="421.566,204.155 413.715,204.155 413.715,263.171 421.566,263.171 " fill="rgb(255,255,255)" stroke-width="1" stroke="rgb(255,255,255)" />
	<polygon class="Room Room" points="442.448,263.171 413.715,263.171 413.715,274.739 442.448,274.739 " fill="rgb(255,255,255)" stroke-width="1" stroke="rgb(255,255,255)" />
	<polygon class="Room Room" points="442.448,274.739 413.715,274.739 413.715,284.193 442.448,284.193 " fill="rgb(255,255,255)" stroke-width="1" stroke="rgb(255,255,255)" />
	<polygon class="Room Room" points="1023.14,1017.79 1023.14,1006.75 1050.13,1006.75 1050.13,692.472 1026.55,692.472 1026.55,560.839 955.264,560.839 955.264,409.5 808.016,409.5 808.016,560.839 744.592,560.839 744.592,1005.45 758.62,1005.45 758.62,1034.8 1023.14,1034.8 " fill="rgb(255,255,255)" stroke-width="1" stroke="rgb(255,255,255)" />
	<polygon class="Room Room" points="1034.05,212.35 779.189,212.35 779.189,226.508 948.045,226.508 948.045,237.682 1034.05,237.682 " fill="rgb(255,255,255)" stroke-width="1" stroke="rgb(255,255,255)" />
	<polygon class="Room Room" points="176.383,1007.89 125,1007.89 125,1018.37 176.383,1018.37 " fill="rgb(255,255,255)" stroke-width="1" stroke="rgb(255,255,255)" />
	<polygon class="Room Room" points="176.383,1018.37 125,1018.37 125,1034.8 176.383,1034.8 " fill="rgb(255,255,255)" stroke-width="1" stroke="rgb(255,255,255)" />
	<polygon class="Room Room" points="451.195,1008.92 412.176,1008.92 412.176,1018.21 451.195,1018.21 " fill="rgb(255,255,255)" stroke-width="1" stroke="rgb(255,255,255)" />
	<polygon class="Room Room" points="451.195,1018.21 412.176,1018.21 412.176,1034.8 451.195,1034.8 " fill="rgb(255,255,255)" stroke-width="1" stroke="rgb(255,255,255)" />
	<polygon class="Room Room" points="1050.13,1006.75 1023.14,1006.75 1023.14,1017.79 1050.13,1017.79 " fill="rgb(255,255,255)" stroke-width="1" stroke="rgb(255,255,255)" />
	<polygon class="Room Room" points="1050.13,1017.79 1023.14,1017.79 1023.14,1034.8 1050.13,1034.8 " fill="rgb(255,255,255)" stroke-width="1" stroke="rgb(255,255,255)" />
	<polygon class="Room Room" points="758.62,1015.57 716.965,1015.57 716.965,1034.8 758.62,1034.8 " fill="rgb(255,255,255)" stroke-width="1" stroke="rgb(255,255,255)" />
	<polygon class="Room Room" points="758.62,1005.45 716.965,1005.45 716.965,1015.57 758.62,1015.57 " fill="rgb(255,255,255)" stroke-width="1" stroke="rgb(255,255,255)" />
	<polygon class="Room Room" points="760.79,371.32 744.592,371.32 744.592,409.5 760.79,409.5 " fill="rgb(255,255,255)" stroke-width="1" stroke="rgb(255,255,255)" />
	<polygon class="Room Room" points="779.189,371.32 760.79,371.32 760.79,409.5 779.189,409.5 " fill="rgb(255,255,255)" stroke-width="1" stroke="rgb(255,255,255)" />
	<polygon class="Room Room" points="1026.55,256.325 948.045,256.325 948.045,226.508 779.189,226.508 779.189,409.5 1026.55,409.5 " fill="rgb(255,255,255)" stroke-width="1" stroke="rgb(255,255,255)" />
	<polygon class="Room Room" points="808.016,409.5 744.592,409.5 744.592,560.839 808.016,560.839 " fill="rgb(255,255,255)" stroke-width="1" stroke="rgb(255,255,255)" />
	<polygon class="Room Room" points="1026.55,409.5 955.264,409.5 955.264,560.839 1026.55,560.839 " fill="rgb(255,255,255)" stroke-width="1" stroke="rgb(255,255,255)" />
	<polygon class="Room Room" points="1034.05,237.682 948.045,237.682 948.045,256.325 1034.05,256.325 " fill="rgb(255,255,255)" stroke-width="1" stroke="rgb(255,255,255)" />
	<polygon class="Room Room" points="716.965,1034.8 451.195,1034.8 451.195,1163.67 716.965,1163.67 " fill="rgb(255,255,255)" stroke-width="1" stroke="rgb(255,255,255)" />
	<g class="FixedFurniture Bath" transform="translate(111.208100 458.198300) rotate(90.000000 68.500000 34.000000) scale(0.782857 0.829268)" ><polygon id="polygon5562" fill="#FFFFFF " stroke="#000000 " points="0.164,-0.227 0.164,81.773 175.164,81.773 175.164,-0.227 "/>
<path fill="#FFFFFF " stroke="#000000 " d="M166.833,41c0,19.698,0,35.667-79.333,35.667S8.167,60.698,8.167,41
    s0-35.667,79.333-35.667S166.833,21.302,166.833,41z"/>
<path fill="#FFFFFF " stroke="#000000 " stroke-width="0.6971" stroke-linecap="round" stroke-linejoin="round" d="M44.386,37.859
    c-0.039-0.001-0.075,0.007-0.114,0.007s-0.075-0.009-0.114-0.007c-1.732,0.063-3.091,1.498-3.049,3.219
    c0.042,1.707,1.448,3.062,3.163,3.064c1.714-0.001,3.121-1.357,3.163-3.064C47.477,39.357,46.118,37.922,44.386,37.859z
     M44.272,42.807c-0.984,0-1.792-0.783-1.816-1.77c-0.024-0.994,0.756-1.824,1.75-1.86c0.023-0.001,0.044,0.004,0.067,0.004
    s0.044-0.005,0.067-0.004c0.994,0.036,1.774,0.866,1.75,1.86C46.064,42.024,45.256,42.807,44.272,42.807z"/></g>
	<g class="FixedFurniture Bath" transform="translate(907.208100 297.198300) rotate(-90.000000 69.500000 36.000000) scale(0.794286 0.878049)" ><polygon id="polygon5562" fill="#FFFFFF " stroke="#000000 " points="0.164,-0.227 0.164,81.773 175.164,81.773 175.164,-0.227 "/>
<path fill="#FFFFFF " stroke="#000000 " d="M166.833,41c0,19.698,0,35.667-79.333,35.667S8.167,60.698,8.167,41
    s0-35.667,79.333-35.667S166.833,21.302,166.833,41z"/>
<path fill="#FFFFFF " stroke="#000000 " stroke-width="0.6971" stroke-linecap="round" stroke-linejoin="round" d="M44.386,37.859
    c-0.039-0.001-0.075,0.007-0.114,0.007s-0.075-0.009-0.114-0.007c-1.732,0.063-3.091,1.498-3.049,3.219
    c0.042,1.707,1.448,3.062,3.163,3.064c1.714-0.001,3.121-1.357,3.163-3.064C47.477,39.357,46.118,37.922,44.386,37.859z
     M44.272,42.807c-0.984,0-1.792-0.783-1.816-1.77c-0.024-0.994,0.756-1.824,1.75-1.86c0.023-0.001,0.044,0.004,0.067,0.004
    s0.044-0.005,0.067-0.004c0.994,0.036,1.774,0.866,1.75,1.86C46.064,42.024,45.256,42.807,44.272,42.807z"/></g>
	<g class="FixedFurniture Toilet" transform="translate(797.608100 233.598300) scale(1.231527 1.195335)" ><rect x="-0.052" y="0.001" fill-opacity="0" stroke="#000000" stroke-width="1.021" width="38.867" height="17.797"/>
<path fill="none" stroke="#000000" d="M38.866,43.298c0,0,1.078,26.01-19.11,26.01c-20.938,0-19.809-26.01-19.809-26.01V17.792 h38.868C38.928,25.812,38.855,34.673,38.866,43.298z"/>

</g>
	<g class="FixedFurniture Toilet" transform="translate(311.208100 509.698300) rotate(-179.999995 25.000000 41.000000) scale(1.231527 1.195335)" ><rect x="-0.052" y="0.001" fill-opacity="0" stroke="#000000" stroke-width="1.021" width="38.867" height="17.797"/>
<path fill="none" stroke="#000000" d="M38.866,43.298c0,0,1.078,26.01-19.11,26.01c-20.938,0-19.809-26.01-19.809-26.01V17.792 h38.868C38.928,25.812,38.855,34.673,38.866,43.298z"/>

</g>
	<polygon class="FixedFurniture Cabinet" points="233.565,550.333 213.565,550.333 213.565,594.333 233.565,594.333 " fill="rgb(255,255,255)" stroke-width="1" stroke="rgb(0,0,0)" />
	<polygon class="FixedFurniture Cabinet" points="575.565,304.333 555.565,304.333 555.565,364.333 575.565,364.333 " fill="rgb(255,255,255)" stroke-width="1" stroke="rgb(0,0,0)" />
	<polygon class="FixedFurniture Cabinet" points="301.565,550.333 281.565,550.333 281.565,594.333 301.565,594.333 " fill="rgb(255,255,255)" stroke-width="1" stroke="rgb(0,0,0)" />
	<polygon class="FixedFurniture Cabinet" points="919.565,276.333 939.565,276.333 939.565,232.333 919.565,232.333 " fill="rgb(255,255,255)" stroke-width="1" stroke="rgb(0,0,0)" />
	<polygon class="FixedFurniture Cabinet" points="851.565,276.333 871.565,276.333 871.565,232.333 851.565,232.333 " fill="rgb(255,255,255)" stroke-width="1" stroke="rgb(0,0,0)" />
	<polygon class="FixedFurniture Cabinet" points="645.565,304.333 625.565,304.333 625.565,364.333 645.565,364.333 " fill="rgb(255,255,255)" stroke-width="1" stroke="rgb(0,0,0)" />
	<polygon class="FixedFurniture Cabinet" points="777.565,304.333 695.565,304.333 695.565,366.333 777.565,366.333 " fill="rgb(255,255,255)" stroke-width="1" stroke="rgb(0,0,0)" />
	<polygon class="FixedFurniture Cabinet" points="753.565,194.333 773.565,194.333 773.565,132.333 753.565,132.333 " fill="rgb(255,255,255)" stroke-width="1" stroke="rgb(0,0,0)" />
	<polygon class="FixedFurniture Cabinet" points="611.565,194.333 679.565,194.333 679.565,132.333 611.565,132.333 " fill="rgb(255,255,255)" stroke-width="1" stroke="rgb(0,0,0)" />
	<g class="FixedFurniture Dishwasher" transform="translate(576.308100 303.698300) rotate(-179.999995 25.000000 30.000000) scale(0.806452 0.990099)" ><polygon fill="#FFFFFF" stroke="#000000" points="0,0 0,60.59 62.01,60.59 62.01,0 "/>
<path fill="none" stroke="#000000" stroke-width="0.935" d="M0,0l31.006,42.368l0.004-20.893l31,39.115"/>
<path fill="none" stroke="#000000" d="M2.829,61.42h56.36"/>
</g>
	<g class="FixedFurniture Stove" transform="translate(680.308100 136.798300) scale(1.000000 0.859375)" ><polygon fill="#FFFFFF" stroke="#000000" points="0,0 0,65.5 77,65.5 77,0 "/>
<g>
	<ellipse fill="#FFFFFF" stroke="#000000" stroke-width="0.433" cx="23.844" cy="20.771" rx="7.732" ry="7.517"/>
	<ellipse fill="#FFFFFF" stroke="#000000" stroke-width="0.433" cx="53.08" cy="44.729" rx="7.732" ry="7.517"/>
	<ellipse fill="#FFFFFF" stroke="#000000" stroke-width="0.433" cx="53.05" cy="20.771" rx="10.739" ry="10.596"/>
	<ellipse fill="#FFFFFF" stroke="#000000" stroke-width="0.433" cx="23.952" cy="44.729" rx="10.739" ry="10.596"/>
	<ellipse fill="#FFFFFF" stroke="#000000" stroke-width="0.385" cx="53.08" cy="20.823" rx="9.561" ry="9.442"/>
	<ellipse fill="#FFFFFF" stroke="#000000" stroke-width="0.368" cx="53.08" cy="44.73" rx="6.548" ry="6.417"/>
	<ellipse fill="#FFFFFF" stroke="#000000" stroke-width="0.368" cx="23.811" cy="20.846" rx="6.548" ry="6.417"/>
	<ellipse fill="#FFFFFF" stroke="#000000" stroke-width="0.385" cx="23.844" cy="44.708" rx="9.561" ry="9.442"/>
</g>
</g>
	<g class="FixedFurniture Washingmachine" transform="translate(444.508100 139.398300) scale(1.081967 0.952381)" ><polygon fill="#FFFFFF" stroke="#000000" points="61.01,0 0,0 0,61.404 61.01,61.404 "/>
<path fill="none" stroke="#000000" stroke-width="0.935" d="M0,0l30.501,40.663V19.77L61.01,61.404"/>
<path fill="none" stroke="#000000" d="M10.931,62.31l40.496,0.007"/>
</g>
	<g class="FixedFurniture BathSink" transform="translate(233.358100 547.498300) rotate(-179.999995 25.050000 22.000000) scale(0.835000 0.975610)" ><polygon fill="#FFFFFF" stroke="#000000" stroke-width="1.0152" points="0,46.1 61,46.1 61,0 0,0 "/>
<polygon fill="#FFFFFF" stroke="#000000" stroke-width="0.7" stroke-linecap="round" stroke-linejoin="round" points="8.061,14.448 
	4.615,11.216 4.615,41.022 8.061,37.854 "/>
<g>
	<polygon fill="#FFFFFF" stroke="#000000" stroke-width="0.7" stroke-linecap="round" stroke-linejoin="round" points="
		8.061,14.448 27.376,14.448 27.376,11.216 4.615,11.216 	"/>
	<polygon fill="#FFFFFF" stroke="#000000" stroke-width="0.7" stroke-linecap="round" stroke-linejoin="round" points="
		33.624,11.216 33.624,14.448 52.939,14.448 56.385,11.216 	"/>
</g>
<polygon fill="#FFFFFF" stroke="#000000" stroke-width="0.7" stroke-linecap="round" stroke-linejoin="round" points="
	52.939,14.448 56.385,11.216 56.385,41.022 52.939,37.854 "/>
<polygon fill="#FFFFFF" stroke="#000000" stroke-width="0.7" stroke-linecap="round" stroke-linejoin="round" points="
	52.939,37.854 30.5,37.854 8.061,37.854 4.615,41.022 30.5,41.022 56.385,41.022 "/>
<path fill="#FFFFFF" stroke="#000000" stroke-width="0.697" stroke-linecap="round" stroke-linejoin="round" d="M30.614,23.555
	c-0.039-0.001-0.075,0.007-0.114,0.007c-0.039,0-0.075-0.009-0.114-0.007c-1.732,0.063-3.091,1.498-3.049,3.219
	c0.042,1.707,1.448,3.062,3.163,3.064c1.714-0.001,3.121-1.357,3.163-3.064C33.705,25.053,32.346,23.618,30.614,23.555z
	 M30.5,28.503c-0.984,0-1.792-0.783-1.816-1.77c-0.024-0.994,0.756-1.824,1.75-1.86c0.023-0.001,0.044,0.004,0.067,0.004
	s0.044-0.005,0.067-0.004c0.994,0.036,1.774,0.866,1.75,1.86C32.292,27.72,31.484,28.503,30.5,28.503z"/>
<polygon fill="#FFFFFF" stroke="#000000" stroke-width="0.7" stroke-linecap="round" stroke-linejoin="round" points="30.5,5.82 
	27.376,5.82 27.376,11.216 27.376,14.448 27.376,19.61 30.5,19.61 33.624,19.61 33.624,14.448 33.624,11.216 33.624,5.82 "/>
</g>
	<g class="FixedFurniture BathSink" transform="translate(870.958100 233.098300) scale(0.835000 0.975610)" ><polygon fill="#FFFFFF" stroke="#000000" stroke-width="1.0152" points="0,46.1 61,46.1 61,0 0,0 "/>
<polygon fill="#FFFFFF" stroke="#000000" stroke-width="0.7" stroke-linecap="round" stroke-linejoin="round" points="8.061,14.448 
	4.615,11.216 4.615,41.022 8.061,37.854 "/>
<g>
	<polygon fill="#FFFFFF" stroke="#000000" stroke-width="0.7" stroke-linecap="round" stroke-linejoin="round" points="
		8.061,14.448 27.376,14.448 27.376,11.216 4.615,11.216 	"/>
	<polygon fill="#FFFFFF" stroke="#000000" stroke-width="0.7" stroke-linecap="round" stroke-linejoin="round" points="
		33.624,11.216 33.624,14.448 52.939,14.448 56.385,11.216 	"/>
</g>
<polygon fill="#FFFFFF" stroke="#000000" stroke-width="0.7" stroke-linecap="round" stroke-linejoin="round" points="
	52.939,14.448 56.385,11.216 56.385,41.022 52.939,37.854 "/>
<polygon fill="#FFFFFF" stroke="#000000" stroke-width="0.7" stroke-linecap="round" stroke-linejoin="round" points="
	52.939,37.854 30.5,37.854 8.061,37.854 4.615,41.022 30.5,41.022 56.385,41.022 "/>
<path fill="#FFFFFF" stroke="#000000" stroke-width="0.697" stroke-linecap="round" stroke-linejoin="round" d="M30.614,23.555
	c-0.039-0.001-0.075,0.007-0.114,0.007c-0.039,0-0.075-0.009-0.114-0.007c-1.732,0.063-3.091,1.498-3.049,3.219
	c0.042,1.707,1.448,3.062,3.163,3.064c1.714-0.001,3.121-1.357,3.163-3.064C33.705,25.053,32.346,23.618,30.614,23.555z
	 M30.5,28.503c-0.984,0-1.792-0.783-1.816-1.77c-0.024-0.994,0.756-1.824,1.75-1.86c0.023-0.001,0.044,0.004,0.067,0.004
	s0.044-0.005,0.067-0.004c0.994,0.036,1.774,0.866,1.75,1.86C32.292,27.72,31.484,28.503,30.5,28.503z"/>
<polygon fill="#FFFFFF" stroke="#000000" stroke-width="0.7" stroke-linecap="round" stroke-linejoin="round" points="30.5,5.82 
	27.376,5.82 27.376,11.216 27.376,14.448 27.376,19.61 30.5,19.61 33.624,19.61 33.624,14.448 33.624,11.216 33.624,5.82 "/>
</g>
	<polygon class="FixedFurniture Countertop" points="555.565,402.333 753.565,402.333 753.565,380.333 555.565,380.333 " fill="rgb(255,255,255)" stroke-width="1" stroke="rgb(0,0,0)" />
	<g class="FixedFurniture SmallSink" transform="translate(645.308100 304.498300) rotate(-179.999995 25.500000 30.000000) scale(0.850000 1.330377)" ><polygon fill="#FFFFFF" stroke="#000000" stroke-width="1.0152" points="0,46.1 61,46.1 61,0 0,0 "/>
<polygon fill="#FFFFFF" stroke="#000000" stroke-width="0.7" stroke-linecap="round" stroke-linejoin="round" points="8.061,14.448 
	4.615,11.216 4.615,41.022 8.061,37.854 "/>
<g>
	<polygon fill="#FFFFFF" stroke="#000000" stroke-width="0.7" stroke-linecap="round" stroke-linejoin="round" points="
		8.061,14.448 27.376,14.448 27.376,11.216 4.615,11.216 	"/>
	<polygon fill="#FFFFFF" stroke="#000000" stroke-width="0.7" stroke-linecap="round" stroke-linejoin="round" points="
		33.624,11.216 33.624,14.448 52.939,14.448 56.385,11.216 	"/>
</g>
<polygon fill="#FFFFFF" stroke="#000000" stroke-width="0.7" stroke-linecap="round" stroke-linejoin="round" points="
	52.939,14.448 56.385,11.216 56.385,41.022 52.939,37.854 "/>
<polygon fill="#FFFFFF" stroke="#000000" stroke-width="0.7" stroke-linecap="round" stroke-linejoin="round" points="
	52.939,37.854 30.5,37.854 8.061,37.854 4.615,41.022 30.5,41.022 56.385,41.022 "/>
<path fill="#FFFFFF" stroke="#000000" stroke-width="0.697" stroke-linecap="round" stroke-linejoin="round" d="M30.614,23.555
	c-0.039-0.001-0.075,0.007-0.114,0.007c-0.039,0-0.075-0.009-0.114-0.007c-1.732,0.063-3.091,1.498-3.049,3.219
	c0.042,1.707,1.448,3.062,3.163,3.064c1.714-0.001,3.121-1.357,3.163-3.064C33.705,25.053,32.346,23.618,30.614,23.555z
	 M30.5,28.503c-0.984,0-1.792-0.783-1.816-1.77c-0.024-0.994,0.756-1.824,1.75-1.86c0.023-0.001,0.044,0.004,0.067,0.004
	s0.044-0.005,0.067-0.004c0.994,0.036,1.774,0.866,1.75,1.86C32.292,27.72,31.484,28.503,30.5,28.503z"/>
<polygon fill="#FFFFFF" stroke="#000000" stroke-width="0.7" stroke-linecap="round" stroke-linejoin="round" points="30.5,5.82 
	27.376,5.82 27.376,11.216 27.376,14.448 27.376,19.61 30.5,19.61 33.624,19.61 33.624,14.448 33.624,11.216 33.624,5.82 "/>
</g>
	<g class="FixedFurniture Refrigerator" transform="translate(535.108100 130.998300) scale(0.826087 0.995608)" ><polygon fill="#FFFFFF" stroke="#000000" points="0,0 0,68.342 92.01,68.342 92.01,0 "/>
<path fill="none" stroke="#000000" stroke-width="0.935" d="M0,0l46.005,42.964V22.07L92.01,65.201"/>
<path fill="none" stroke="#000000" d="M0,65.201h92.01"/>
<path fill="none" stroke="#000000" d="M89.102,69.051h-7.491"/>
</g>
	<polygon class="FixedFurniture Closet" points="137.565,662.333 291.565,662.333 291.565,598.333 137.565,598.333 " fill="rgb(255,255,255)" stroke-width="1" stroke="rgb(0,0,0)" />
	<polygon class="FixedFurniture Closet" points="791.565,556.333 791.565,414.333 751.565,414.333 751.565,556.333 " fill="rgb(255,255,255)" stroke-width="1" stroke="rgb(0,0,0)" />
	<polygon class="FixedFurniture Closet" points="1009.56,556.333 1009.56,416.333 969.565,416.333 969.565,558.333 " fill="rgb(255,255,255)" stroke-width="1" stroke="rgb(0,0,0)" />
	<polygon class="FixedFurniture Closet" points="331.565,254.333 405.565,254.333 405.565,204.333 331.565,204.333 " fill="rgb(255,255,255)" stroke-width="1" stroke="rgb(0,0,0)" />
	<polygon class="FixedFurniture Closet" points="429.565,508.333 429.565,418.333 371.565,418.333 371.565,508.333 " fill="rgb(255,255,255)" stroke-width="1" stroke="rgb(0,0,0)" />
	<polygon class="FixedFurniture Closet" points="427.565,598.333 427.565,546.333 379.565,546.333 379.565,598.333 " fill="rgb(255,255,255)" stroke-width="1" stroke="rgb(0,0,0)" />
	<g class="FixedFurniture Shower" transform="translate(159.008100 509.598300) rotate(-179.999995 15.700000 25.000000) scale(0.993671 0.980392)" ><path fill="none" stroke="#000000" stroke-linejoin="round" d="M32.081,0.502H0.495v6.146l31.581,0.021L32.081,0.502z"/>
<ellipse fill="#FFFFFF" fill-opacity="0" stroke="#000000" cx="16.294" cy="42.573" rx="8.924" ry="8.947"/>
<ellipse fill="#FFFFFF" stroke="#000000" stroke-width="0.7" stroke-linecap="round" stroke-linejoin="round" cx="16.364" cy="42.496" rx="7.605" ry="7.745"/>
<polygon fill="#FFFFFF" stroke="#000000" stroke-width="0.694" stroke-linecap="round" stroke-linejoin="round" points="
	32.075,6.668 28.674,6.665 28.674,0.5 32.081,0.5 "/>
<rect x="0.525" y="0.592" fill="#FFFFFF" stroke="#000000" stroke-width="0.7" stroke-linecap="round" stroke-linejoin="round" width="3.227" height="6.08"/>
<rect x="14.891" y="0.689" fill="#FFFFFF" stroke="#000000" stroke-linejoin="round" width="2.722" height="42.701"/>
<path fill="none" stroke="#000000" stroke-width="0.7" stroke-linecap="round" d="M3.785,3.562h1.749"/>
<path fill="none" stroke="#000000" stroke-width="0.7" stroke-linecap="round" stroke-linejoin="round" d="M26.925,3.562h1.749"/>
<ellipse fill="#FFFFFF" stroke="#000000" stroke-width="0.7" stroke-linecap="round" stroke-linejoin="round" cx="16.275" cy="42.356" rx="2.384" ry="2.302"/>
</g>
	<g class="FixedFurniture Shower" transform="translate(965.608100 265.098300) scale(0.993671 0.980392)" ><path fill="none" stroke="#000000" stroke-linejoin="round" d="M32.081,0.502H0.495v6.146l31.581,0.021L32.081,0.502z"/>
<ellipse fill="#FFFFFF" fill-opacity="0" stroke="#000000" cx="16.294" cy="42.573" rx="8.924" ry="8.947"/>
<ellipse fill="#FFFFFF" stroke="#000000" stroke-width="0.7" stroke-linecap="round" stroke-linejoin="round" cx="16.364" cy="42.496" rx="7.605" ry="7.745"/>
<polygon fill="#FFFFFF" stroke="#000000" stroke-width="0.694" stroke-linecap="round" stroke-linejoin="round" points="
	32.075,6.668 28.674,6.665 28.674,0.5 32.081,0.5 "/>
<rect x="0.525" y="0.592" fill="#FFFFFF" stroke="#000000" stroke-width="0.7" stroke-linecap="round" stroke-linejoin="round" width="3.227" height="6.08"/>
<rect x="14.891" y="0.689" fill="#FFFFFF" stroke="#000000" stroke-linejoin="round" width="2.722" height="42.701"/>
<path fill="none" stroke="#000000" stroke-width="0.7" stroke-linecap="round" d="M3.785,3.562h1.749"/>
<path fill="none" stroke="#000000" stroke-width="0.7" stroke-linecap="round" stroke-linejoin="round" d="M26.925,3.562h1.749"/>
<ellipse fill="#FFFFFF" stroke="#000000" stroke-width="0.7" stroke-linecap="round" stroke-linejoin="round" cx="16.275" cy="42.356" rx="2.384" ry="2.302"/>
</g>
	<polygon class="Wall HalfWall" points="744.592,363.82 556.467,363.82 556.467,378.82 744.592,378.82 " fill="rgb(255,255,255)" stroke-width="1" stroke="rgb(0,0,0)" />
	<polygon class="Wall HalfWall" points="458.695,1034.8 443.695,1034.8 443.695,1171.17 724.465,1171.17 724.465,1034.8 709.465,1034.8 709.465,1156.17 458.695,1156.17 " fill="rgb(255,255,255)" stroke-width="1" stroke="rgb(0,0,0)" />
	<polygon class="Wall" points="117.5,679.964 130.482,679.964 145.482,664.964 132.5,664.964 " fill="rgb(0,0,0)" stroke-width="1" stroke="rgb(0,0,0)" />
	<polygon class="Wall" points="130.482,679.964 296.162,679.964 281.162,664.964 145.482,664.964 " fill="rgb(0,0,0)" stroke-width="1" stroke="rgb(0,0,0)" />
	<polygon class="Wall" points="145.482,591.651 132.5,591.651 117.5,606.651 130.482,606.651 " fill="rgb(0,0,0)" stroke-width="1" stroke="rgb(0,0,0)" />
	<polygon class="Wall" points="145.482,664.964 145.482,647.457 130.482,632.457 130.482,679.964 " fill="rgb(0,0,0)" stroke-width="1" stroke="rgb(0,0,0)" />
	<polygon class="Wall" points="145.482,639.957 145.482,591.651 130.482,606.651 130.482,639.957 " fill="rgb(0,0,0)" stroke-width="1" stroke="rgb(0,0,0)" />
	<polygon class="Wall" points="184.014,647.457 184.014,591.651 169.014,606.651 169.014,632.457 " fill="rgb(0,0,0)" stroke-width="1" stroke="rgb(0,0,0)" />
	<polygon class="Wall" points="143.514,599.151 143.514,639.957 171.514,639.957 171.514,599.151 " fill="rgb(0,0,0)" stroke-width="1" stroke="rgb(0,0,0)" />
	<polygon class="Wall" points="145.482,647.457 157.514,647.457 157.514,632.457 130.482,632.457 " fill="rgb(0,0,0)" stroke-width="1" stroke="rgb(0,0,0)" />
	<polygon class="Wall" points="157.514,647.457 184.014,647.457 169.014,632.457 157.514,632.457 " fill="rgb(0,0,0)" stroke-width="1" stroke="rgb(0,0,0)" />
	<polygon class="Wall" points="184.014,591.651 157.514,591.651 157.514,606.651 169.014,606.651 " fill="rgb(0,0,0)" stroke-width="1" stroke="rgb(0,0,0)" />
	<polygon class="Wall" points="157.514,591.651 145.482,591.651 130.482,606.651 157.514,606.651 " fill="rgb(0,0,0)" stroke-width="1" stroke="rgb(0,0,0)" />
	<polygon class="Wall" points="132.5,424.441 130.482,424.441 145.482,409.441 117.5,409.441 " fill="rgb(0,0,0)" stroke-width="1" stroke="rgb(0,0,0)" />
	<polygon class="Wall" points="130.482,576.64 200.137,576.64 215.137,561.64 145.482,561.64 " fill="rgb(0,0,0)" stroke-width="1" stroke="rgb(0,0,0)" />
	<polygon class="Wall" points="145.482,561.64 145.482,409.441 130.482,424.441 130.482,576.64 " fill="rgb(0,0,0)" stroke-width="1" stroke="rgb(0,0,0)" />
	<polygon class="Wall" points="296.162,591.651 215.137,591.651 200.137,606.651 281.162,606.651 " fill="rgb(0,0,0)" stroke-width="1" stroke="rgb(0,0,0)" />
	<polygon class="Wall" points="207.637,591.651 176.514,591.651 176.514,606.651 207.637,606.651 " fill="rgb(0,0,0)" stroke-width="1" stroke="rgb(0,0,0)" />
	<polygon class="Wall" points="137.982,593.353 207.637,593.353 207.637,574.353 137.982,574.353 " fill="rgb(0,0,0)" stroke-width="1" stroke="rgb(0,0,0)" />
	<polygon class="Wall" points="145.482,591.651 145.482,583.853 130.482,583.853 130.482,606.651 " fill="rgb(0,0,0)" stroke-width="1" stroke="rgb(0,0,0)" />
	<polygon class="Wall" points="145.482,583.853 145.482,569.14 130.482,569.14 130.482,583.853 " fill="rgb(0,0,0)" stroke-width="1" stroke="rgb(0,0,0)" />
	<polygon class="Wall" points="200.137,576.64 200.137,583.853 215.137,583.853 215.137,561.64 " fill="rgb(0,0,0)" stroke-width="1" stroke="rgb(0,0,0)" />
	<polygon class="Wall" points="200.137,583.853 200.137,606.651 215.137,591.651 215.137,583.853 " fill="rgb(0,0,0)" stroke-width="1" stroke="rgb(0,0,0)" />
	<polygon class="Wall" points="368.515,591.651 288.662,591.651 288.662,606.651 383.515,606.651 " fill="rgb(0,0,0)" stroke-width="1" stroke="rgb(0,0,0)" />
	<polygon class="Wall" points="383.515,424.441 434.831,424.441 449.831,409.441 368.515,409.441 " fill="rgb(0,0,0)" stroke-width="1" stroke="rgb(0,0,0)" />
	<polygon class="Wall" points="376.015,546.429 442.331,546.429 442.331,506.429 376.015,506.429 " fill="rgb(0,0,0)" stroke-width="1" stroke="rgb(0,0,0)" />
	<polygon class="Wall" points="434.831,424.441 434.831,526.429 449.831,526.429 449.831,409.441 " fill="rgb(0,0,0)" stroke-width="1" stroke="rgb(0,0,0)" />
	<polygon class="Wall" points="434.831,526.429 434.831,591.651 449.831,606.651 449.831,526.429 " fill="rgb(0,0,0)" stroke-width="1" stroke="rgb(0,0,0)" />
	<polygon class="Wall" points="368.515,409.441 368.515,526.429 383.515,526.429 383.515,424.441 " fill="rgb(0,0,0)" stroke-width="1" stroke="rgb(0,0,0)" />
	<polygon class="Wall" points="368.515,526.429 368.515,591.651 383.515,606.651 383.515,526.429 " fill="rgb(0,0,0)" stroke-width="1" stroke="rgb(0,0,0)" />
	<polygon class="Wall" points="137.982,424.441 268.232,424.441 253.232,409.441 137.982,409.441 " fill="rgb(0,0,0)" stroke-width="1" stroke="rgb(0,0,0)" />
	<polygon class="Wall" points="260.732,424.441 376.015,424.441 376.015,409.441 260.732,409.441 " fill="rgb(0,0,0)" stroke-width="1" stroke="rgb(0,0,0)" />
	<polygon class="Wall" points="429.066,211.655 429.066,132.5 414.066,117.5 414.066,196.655 " fill="rgb(0,0,0)" stroke-width="1" stroke="rgb(0,0,0)" />
	<polygon class="Wall" points="268.232,424.441 268.232,270.671 253.232,255.671 253.232,409.441 " fill="rgb(0,0,0)" stroke-width="1" stroke="rgb(0,0,0)" />
	<polygon class="Wall" points="268.232,211.655 318.509,211.655 333.509,196.655 253.232,196.655 " fill="rgb(0,0,0)" stroke-width="1" stroke="rgb(0,0,0)" />
	<polygon class="Wall" points="318.509,255.671 253.232,255.671 268.232,270.671 333.509,270.671 " fill="rgb(0,0,0)" stroke-width="1" stroke="rgb(0,0,0)" />
	<polygon class="Wall" points="260.732,259.002 326.009,259.002 326.009,209.002 260.732,209.002 " fill="rgb(0,0,0)" stroke-width="1" stroke="rgb(0,0,0)" />
	<polygon class="Wall" points="268.232,263.171 268.232,234.002 253.232,234.002 253.232,263.171 " fill="rgb(0,0,0)" stroke-width="1" stroke="rgb(0,0,0)" />
	<polygon class="Wall" points="268.232,234.002 268.232,211.655 253.232,196.655 253.232,234.002 " fill="rgb(0,0,0)" stroke-width="1" stroke="rgb(0,0,0)" />
	<polygon class="Wall" points="318.509,211.655 318.509,234.002 333.509,234.002 333.509,196.655 " fill="rgb(0,0,0)" stroke-width="1" stroke="rgb(0,0,0)" />
	<polygon class="Wall" points="318.509,234.002 318.509,255.671 333.509,270.671 333.509,234.002 " fill="rgb(0,0,0)" stroke-width="1" stroke="rgb(0,0,0)" />
	<polygon class="Wall" points="414.066,223.631 538.578,223.631 523.578,208.631 429.066,208.631 " fill="rgb(0,0,0)" stroke-width="1" stroke="rgb(0,0,0)" />
	<polygon class="Wall" points="414.066,204.155 414.066,223.631 429.066,208.631 429.066,204.155 " fill="rgb(0,0,0)" stroke-width="1" stroke="rgb(0,0,0)" />
	<polygon class="Wall" points="414.066,216.131 414.066,270.671 429.066,255.671 429.066,216.131 " fill="rgb(0,0,0)" stroke-width="1" stroke="rgb(0,0,0)" />
	<polygon class="Wall" points="538.578,223.631 538.578,117.5 523.578,132.5 523.578,208.631 " fill="rgb(0,0,0)" stroke-width="1" stroke="rgb(0,0,0)" />
	<polygon class="Wall" points="429.066,132.5 523.578,132.5 538.578,117.5 414.066,117.5 " fill="rgb(0,0,0)" stroke-width="1" stroke="rgb(0,0,0)" />
	<polygon class="Wall" points="531.078,132.5 771.689,132.5 786.689,117.5 531.078,117.5 " fill="rgb(0,0,0)" stroke-width="1" stroke="rgb(0,0,0)" />
	<polygon class="Wall" points="414.066,270.671 434.948,270.671 449.948,255.671 429.066,255.671 " fill="rgb(0,0,0)" stroke-width="1" stroke="rgb(0,0,0)" />
	<polygon class="Wall" points="434.948,276.693 421.215,276.693 406.215,291.693 449.948,291.693 " fill="rgb(0,0,0)" stroke-width="1" stroke="rgb(0,0,0)" />
	<polygon class="Wall" points="421.566,255.671 421.215,255.671 406.215,270.671 421.566,270.671 " fill="rgb(0,0,0)" stroke-width="1" stroke="rgb(0,0,0)" />
	<polygon class="Wall" points="406.215,211.655 406.215,270.671 421.215,255.671 421.215,196.655 " fill="rgb(0,0,0)" stroke-width="1" stroke="rgb(0,0,0)" />
	<polygon class="Wall" points="326.009,211.655 406.215,211.655 421.215,196.655 326.009,196.655 " fill="rgb(0,0,0)" stroke-width="1" stroke="rgb(0,0,0)" />
	<polygon class="Wall" points="413.715,211.655 429.066,211.655 414.066,196.655 413.715,196.655 " fill="rgb(0,0,0)" stroke-width="1" stroke="rgb(0,0,0)" />
	<polygon class="Wall" points="421.215,255.671 326.009,255.671 326.009,270.671 406.215,270.671 " fill="rgb(0,0,0)" stroke-width="1" stroke="rgb(0,0,0)" />
	<polygon class="Wall" points="421.215,282.239 449.948,282.239 434.948,267.239 406.215,267.239 " fill="rgb(0,0,0)" stroke-width="1" stroke="rgb(0,0,0)" />
	<polygon class="Wall" points="434.948,270.671 434.948,267.239 449.948,282.239 449.948,255.671 " fill="rgb(0,0,0)" stroke-width="1" stroke="rgb(0,0,0)" />
	<polygon class="Wall" points="434.948,274.739 434.948,276.693 449.948,291.693 449.948,274.739 " fill="rgb(0,0,0)" stroke-width="1" stroke="rgb(0,0,0)" />
	<polygon class="Wall" points="421.215,276.693 421.215,282.239 406.215,267.239 406.215,291.693 " fill="rgb(0,0,0)" stroke-width="1" stroke="rgb(0,0,0)" />
	<polygon class="Wall" points="421.215,274.739 421.215,255.671 406.215,270.671 406.215,274.739 " fill="rgb(0,0,0)" stroke-width="1" stroke="rgb(0,0,0)" />
	<polygon class="Wall" points="1057.63,684.972 1026.55,684.972 1026.55,699.972 1042.63,699.972 " fill="rgb(0,0,0)" stroke-width="1" stroke="rgb(0,0,0)" />
	<polygon class="Wall" points="1041.55,204.85 786.689,204.85 771.689,219.85 1026.55,219.85 " fill="rgb(0,0,0)" stroke-width="1" stroke="rgb(0,0,0)" />
	<polygon class="Wall" points="771.689,132.5 771.689,219.85 786.689,204.85 786.689,117.5 " fill="rgb(0,0,0)" stroke-width="1" stroke="rgb(0,0,0)" />
	<polygon class="Wall" points="434.831,591.651 404.676,591.651 419.676,606.651 449.831,606.651 " fill="rgb(0,0,0)" stroke-width="1" stroke="rgb(0,0,0)" />
	<polygon class="Wall" points="412.176,591.651 376.015,591.651 376.015,606.651 412.176,606.651 " fill="rgb(0,0,0)" stroke-width="1" stroke="rgb(0,0,0)" />
	<polygon class="Wall" points="117.5,1015.39 168.883,1015.39 183.883,1000.39 132.5,1000.39 " fill="rgb(0,0,0)" stroke-width="1" stroke="rgb(0,0,0)" />
	<polygon class="Wall" points="132.5,1000.39 132.5,672.464 117.5,672.464 117.5,1015.39 " fill="rgb(0,0,0)" stroke-width="1" stroke="rgb(0,0,0)" />
	<polygon class="Wall" points="125,1049.8 176.383,1049.8 176.383,1019.8 125,1019.8 " fill="rgb(0,0,0)" stroke-width="1" stroke="rgb(0,0,0)" />
	<polygon class="Wall" points="176.383,1049.8 412.176,1049.8 412.176,1019.8 176.383,1019.8 " fill="rgb(0,0,0)" stroke-width="1" stroke="rgb(0,0,0)" />
	<polygon class="Wall" points="132.5,1025.87 183.883,1025.87 168.883,1010.87 117.5,1010.87 " fill="rgb(0,0,0)" stroke-width="1" stroke="rgb(0,0,0)" />
	<polygon class="Wall" points="132.5,1034.8 132.5,1025.87 117.5,1010.87 117.5,1034.8 " fill="rgb(0,0,0)" stroke-width="1" stroke="rgb(0,0,0)" />
	<polygon class="Wall" points="132.5,1018.37 132.5,1007.89 117.5,1007.89 117.5,1018.37 " fill="rgb(0,0,0)" stroke-width="1" stroke="rgb(0,0,0)" />
	<polygon class="Wall" points="168.883,1015.39 168.883,1010.87 183.883,1025.87 183.883,1000.39 " fill="rgb(0,0,0)" stroke-width="1" stroke="rgb(0,0,0)" />
	<polygon class="Wall" points="168.883,1018.37 168.883,1034.8 183.883,1034.8 183.883,1018.37 " fill="rgb(0,0,0)" stroke-width="1" stroke="rgb(0,0,0)" />
	<polygon class="Wall" points="404.676,1016.42 443.695,1016.42 458.695,1001.42 419.676,1001.42 " fill="rgb(0,0,0)" stroke-width="1" stroke="rgb(0,0,0)" />
	<polygon class="Wall" points="419.676,1001.42 419.676,606.651 404.676,591.651 404.676,1016.42 " fill="rgb(0,0,0)" stroke-width="1" stroke="rgb(0,0,0)" />
	<polygon class="Wall" points="412.176,1049.8 451.195,1049.8 451.195,1019.8 412.176,1019.8 " fill="rgb(0,0,0)" stroke-width="1" stroke="rgb(0,0,0)" />
	<polygon class="Wall" points="419.676,1025.71 458.695,1025.71 443.695,1010.71 404.676,1010.71 " fill="rgb(0,0,0)" stroke-width="1" stroke="rgb(0,0,0)" />
	<polygon class="Wall" points="419.676,1034.8 419.676,1025.71 404.676,1010.71 404.676,1034.8 " fill="rgb(0,0,0)" stroke-width="1" stroke="rgb(0,0,0)" />
	<polygon class="Wall" points="419.676,1018.21 419.676,1008.92 404.676,1008.92 404.676,1018.21 " fill="rgb(0,0,0)" stroke-width="1" stroke="rgb(0,0,0)" />
	<polygon class="Wall" points="443.695,1016.42 443.695,1010.71 458.695,1025.71 458.695,1001.42 " fill="rgb(0,0,0)" stroke-width="1" stroke="rgb(0,0,0)" />
	<polygon class="Wall" points="443.695,1018.21 443.695,1034.8 458.695,1034.8 458.695,1018.21 " fill="rgb(0,0,0)" stroke-width="1" stroke="rgb(0,0,0)" />
	<polygon class="Wall" points="1042.63,999.247 1015.64,999.247 1030.64,1014.25 1057.63,1014.25 " fill="rgb(0,0,0)" stroke-width="1" stroke="rgb(0,0,0)" />
	<polygon class="Wall" points="1057.63,1014.25 1057.63,684.972 1042.63,699.972 1042.63,999.247 " fill="rgb(0,0,0)" stroke-width="1" stroke="rgb(0,0,0)" />
	<polygon class="Wall" points="1023.14,1049.8 1050.13,1049.8 1050.13,1019.8 1023.14,1019.8 " fill="rgb(0,0,0)" stroke-width="1" stroke="rgb(0,0,0)" />
	<polygon class="Wall" points="1015.64,1025.29 1042.63,1025.29 1057.63,1010.29 1030.64,1010.29 " fill="rgb(0,0,0)" stroke-width="1" stroke="rgb(0,0,0)" />
	<polygon class="Wall" points="1057.63,1034.8 1057.63,1010.29 1042.63,1025.29 1042.63,1034.8 " fill="rgb(0,0,0)" stroke-width="1" stroke="rgb(0,0,0)" />
	<polygon class="Wall" points="1057.63,1017.79 1057.63,1006.75 1042.63,1006.75 1042.63,1017.79 " fill="rgb(0,0,0)" stroke-width="1" stroke="rgb(0,0,0)" />
	<polygon class="Wall" points="1015.64,999.247 1015.64,1025.29 1030.64,1010.29 1030.64,1014.25 " fill="rgb(0,0,0)" stroke-width="1" stroke="rgb(0,0,0)" />
	<polygon class="Wall" points="1015.64,1017.79 1015.64,1034.8 1030.64,1034.8 1030.64,1017.79 " fill="rgb(0,0,0)" stroke-width="1" stroke="rgb(0,0,0)" />
	<polygon class="Wall" points="451.195,1049.8 716.965,1049.8 716.965,1019.8 451.195,1019.8 " fill="rgb(0,0,0)" stroke-width="1" stroke="rgb(0,0,0)" />
	<polygon class="Wall" points="716.965,1049.8 758.62,1049.8 758.62,1019.8 716.965,1019.8 " fill="rgb(0,0,0)" stroke-width="1" stroke="rgb(0,0,0)" />
	<polygon class="Wall" points="758.62,1049.8 1023.14,1049.8 1023.14,1019.8 758.62,1019.8 " fill="rgb(0,0,0)" stroke-width="1" stroke="rgb(0,0,0)" />
	<polygon class="Wall" points="724.465,1023.07 766.12,1023.07 751.12,1008.07 709.465,1008.07 " fill="rgb(0,0,0)" stroke-width="1" stroke="rgb(0,0,0)" />
	<polygon class="Wall" points="724.465,1034.8 724.465,1023.07 709.465,1008.07 709.465,1034.8 " fill="rgb(0,0,0)" stroke-width="1" stroke="rgb(0,0,0)" />
	<polygon class="Wall" points="724.465,1015.57 724.465,1012.95 709.465,997.949 709.465,1015.57 " fill="rgb(0,0,0)" stroke-width="1" stroke="rgb(0,0,0)" />
	<polygon class="Wall" points="751.12,1012.95 751.12,1008.07 766.12,1023.07 766.12,997.949 " fill="rgb(0,0,0)" stroke-width="1" stroke="rgb(0,0,0)" />
	<polygon class="Wall" points="751.12,1015.57 751.12,1034.8 766.12,1034.8 766.12,1015.57 " fill="rgb(0,0,0)" stroke-width="1" stroke="rgb(0,0,0)" />
	<polygon class="Wall" points="724.465,1012.95 752.092,1012.95 737.092,997.949 709.465,997.949 " fill="rgb(0,0,0)" stroke-width="1" stroke="rgb(0,0,0)" />
	<polygon class="Wall" points="744.592,1012.95 751.12,1012.95 766.12,997.949 744.592,997.949 " fill="rgb(0,0,0)" stroke-width="1" stroke="rgb(0,0,0)" />
	<polygon class="Wall" points="132.5,591.651 132.5,424.441 117.5,409.441 117.5,606.651 " fill="rgb(0,0,0)" stroke-width="1" stroke="rgb(0,0,0)" />
	<polygon class="Wall" points="771.689,378.82 771.689,402 786.689,417 786.689,363.82 " fill="rgb(0,0,0)" stroke-width="1" stroke="rgb(0,0,0)" />
	<polygon class="Wall" points="744.79,371.32 744.79,409.5 776.79,409.5 776.79,371.32 " fill="rgb(0,0,0)" stroke-width="1" stroke="rgb(0,0,0)" />
	<polygon class="Wall" points="752.092,378.82 760.79,378.82 760.79,363.82 737.092,363.82 " fill="rgb(0,0,0)" stroke-width="1" stroke="rgb(0,0,0)" />
	<polygon class="Wall" points="760.79,378.82 771.689,378.82 786.689,363.82 760.79,363.82 " fill="rgb(0,0,0)" stroke-width="1" stroke="rgb(0,0,0)" />
	<polygon class="Wall" points="771.689,402 760.79,402 760.79,417 786.689,417 " fill="rgb(0,0,0)" stroke-width="1" stroke="rgb(0,0,0)" />
	<polygon class="Wall" points="760.79,402 752.092,402 737.092,417 760.79,417 " fill="rgb(0,0,0)" stroke-width="1" stroke="rgb(0,0,0)" />
	<polygon class="Wall" points="752.092,568.339 815.516,568.339 800.516,553.339 737.092,553.339 " fill="rgb(0,0,0)" stroke-width="1" stroke="rgb(0,0,0)" />
	<polygon class="Wall" points="752.092,1012.95 752.092,568.339 737.092,553.339 737.092,997.949 " fill="rgb(0,0,0)" stroke-width="1" stroke="rgb(0,0,0)" />
	<polygon class="Wall" points="752.092,560.839 752.092,409.5 737.092,409.5 737.092,560.839 " fill="rgb(0,0,0)" stroke-width="1" stroke="rgb(0,0,0)" />
	<polygon class="Wall" points="815.516,568.339 815.516,402 800.516,417 800.516,553.339 " fill="rgb(0,0,0)" stroke-width="1" stroke="rgb(0,0,0)" />
	<polygon class="Wall" points="779.189,417 800.516,417 815.516,402 779.189,402 " fill="rgb(0,0,0)" stroke-width="1" stroke="rgb(0,0,0)" />
	<polygon class="Wall" points="947.764,417 947.764,568.339 962.764,553.339 962.764,402 " fill="rgb(0,0,0)" stroke-width="1" stroke="rgb(0,0,0)" />
	<polygon class="Wall" points="808.016,417 947.764,417 962.764,402 808.016,402 " fill="rgb(0,0,0)" stroke-width="1" stroke="rgb(0,0,0)" />
	<polygon class="Wall" points="955.264,417 1026.55,417 1026.55,402 955.264,402 " fill="rgb(0,0,0)" stroke-width="1" stroke="rgb(0,0,0)" />
	<polygon class="Wall" points="1041.55,692.472 1041.55,560.839 1011.55,560.839 1011.55,692.472 " fill="rgb(0,0,0)" stroke-width="1" stroke="rgb(0,0,0)" />
	<polygon class="Wall" points="752.092,402 752.092,378.82 737.092,363.82 737.092,417 " fill="rgb(0,0,0)" stroke-width="1" stroke="rgb(0,0,0)" />
	<polygon class="Wall" points="771.689,212.35 771.689,234.008 786.689,219.008 786.689,212.35 " fill="rgb(0,0,0)" stroke-width="1" stroke="rgb(0,0,0)" />
	<polygon class="Wall" points="771.689,226.508 771.689,371.32 786.689,371.32 786.689,226.508 " fill="rgb(0,0,0)" stroke-width="1" stroke="rgb(0,0,0)" />
	<polygon class="Wall" points="771.689,234.008 940.545,234.008 955.545,219.008 786.689,219.008 " fill="rgb(0,0,0)" stroke-width="1" stroke="rgb(0,0,0)" />
	<polygon class="Wall" points="940.545,263.825 1026.55,263.825 1026.55,248.825 955.545,248.825 " fill="rgb(0,0,0)" stroke-width="1" stroke="rgb(0,0,0)" />
	<polygon class="Wall" points="1041.55,409.5 1041.55,256.325 1011.55,256.325 1011.55,409.5 " fill="rgb(0,0,0)" stroke-width="1" stroke="rgb(0,0,0)" />
	<polygon class="Wall" points="947.764,568.339 1026.55,568.339 1026.55,553.339 962.764,553.339 " fill="rgb(0,0,0)" stroke-width="1" stroke="rgb(0,0,0)" />
	<polygon class="Wall" points="1026.55,263.825 1041.55,263.825 1026.55,248.825 1026.55,248.825 " fill="rgb(0,0,0)" stroke-width="1" stroke="rgb(0,0,0)" />
	<polygon class="Wall" points="948.045,257.682 1034.05,257.682 1034.05,217.682 948.045,217.682 " fill="rgb(0,0,0)" stroke-width="1" stroke="rgb(0,0,0)" />
	<polygon class="Wall" points="940.545,234.008 940.545,237.682 955.545,237.682 955.545,219.008 " fill="rgb(0,0,0)" stroke-width="1" stroke="rgb(0,0,0)" />
	<polygon class="Wall" points="940.545,237.682 940.545,263.825 955.545,248.825 955.545,237.682 " fill="rgb(0,0,0)" stroke-width="1" stroke="rgb(0,0,0)" />
	<polygon class="Wall" points="1041.55,263.825 1041.55,237.682 1026.55,237.682 1026.55,248.825 " fill="rgb(0,0,0)" stroke-width="1" stroke="rgb(0,0,0)" />
	<polygon class="Wall" points="1041.55,237.682 1041.55,204.85 1026.55,219.85 1026.55,237.682 " fill="rgb(0,0,0)" stroke-width="1" stroke="rgb(0,0,0)" />
	<polygon class="Wall" points="132.5,664.964 132.5,599.151 117.5,599.151 117.5,679.964 " fill="rgb(0,0,0)" stroke-width="1" stroke="rgb(0,0,0)" />
	<polygon class="Wall" points="296.162,679.964 296.162,591.651 281.162,606.651 281.162,664.964 " fill="rgb(0,0,0)" stroke-width="1" stroke="rgb(0,0,0)" />
	<polygon class="Wall" points="130.482,679.964 130.482,695.307 145.482,695.307 145.482,664.964 " fill="rgb(0,0,0)" stroke-width="1" stroke="rgb(0,0,0)" />
	<polygon class="Wall" points="1041.55,560.839 1041.55,409.5 1011.55,409.5 1011.55,560.839 " fill="rgb(0,0,0)" stroke-width="1" stroke="rgb(0,0,0)" />
	<g class="DoubleDoor" >	<path d = "M215.312, 672.464 q0,56.5 -56.5,56.5 l-0,-56.5" fill="none" stroke-width="1.5" stroke="rgb(0,0,0)" />
	<path d = "M215.312, 672.464 q0,56.5 56.5,56.5 l-0,-56.5" fill="none" stroke-width="1.5" stroke="rgb(0,0,0)" />
	<line x1="158.812" y1="672.464" x2="271.812" y2="672.464" stroke-width="14.9" stroke="rgb(255,255,255)" />
</g>
	<g class="Door SingleSwingLeft" >	<path d = "M442.331, 492.905 q60,-0 60,-60 l-60,0" fill="none" stroke-width="1.5" stroke="rgb(0,0,0)" />
	<line x1="442.331" y1="432.905" x2="442.331" y2="492.905" stroke-width="14.9" stroke="rgb(255,255,255)" />
</g>
	<g class="Door SingleSwingRight" >	<path d = "M442.331, 548.65 q42,-0 42,42 l-42,0" fill="none" stroke-width="1.5" stroke="rgb(0,0,0)" />
	<line x1="442.331" y1="548.65" x2="442.331" y2="590.65" stroke-width="14.9" stroke="rgb(255,255,255)" />
</g>
	<g class="Door SingleSwingLeft" >	<path d = "M361.914, 416.941 q-0,-80 -80,-80 l0,80" fill="none" stroke-width="1.5" stroke="rgb(0,0,0)" />
	<line x1="281.914" y1="416.941" x2="361.914" y2="416.941" stroke-width="14.9" stroke="rgb(255,255,255)" />
</g>
	<g class="Door SingleSwingLeft" >	<path d = "M260.732, 369.526 q80,0 80,-80 l-80,-0" fill="none" stroke-width="1.5" stroke="rgb(0,0,0)" />
	<line x1="260.732" y1="369.526" x2="260.732" y2="289.526" stroke-width="14.9" stroke="rgb(255,255,255)" />
</g>
	<g class="Door SingleSwingLeft" >	<path d = "M453.032, 216.131 q0,60 60,60 l-0,-60" fill="none" stroke-width="1.5" stroke="rgb(0,0,0)" />
	<line x1="453.032" y1="216.131" x2="513.032" y2="216.131" stroke-width="14.9" stroke="rgb(255,255,255)" />
</g>
	<g class="Door SingleSwingLeft" >	<path d = "M341.132, 263.171 q-0,60 60,60 l0,-60" fill="none" stroke-width="1.5" stroke="rgb(0,0,0)" />
	<line x1="401.132" y1="263.171" x2="341.132" y2="263.171" stroke-width="14.9" stroke="rgb(255,255,255)" />
</g>
	<g class="Window" >	<line x1="184.879" y1="1034.8" x2="352.879" y2="1034.8" stroke-width="27.5" stroke="rgb(240,240,255)" />
	<line x1="192.379" y1="1034.8" x2="345.379" y2="1034.8" stroke-width="1.5" stroke="rgb(0,0,0)" />
	<line x1="192.379" y1="1019.8" x2="192.379" y2="1049.8" stroke-width="1.5" stroke="rgb(0,0,0)" />
	<line x1="345.379" y1="1019.8" x2="345.379" y2="1049.8" stroke-width="1.5" stroke="rgb(0,0,0)" />
</g>
	<g class="Door SingleSwingRight" >	<path d = "M412.176, 702.778 q-80,-0 -80,-80 l80,0" fill="none" stroke-width="1.5" stroke="rgb(0,0,0)" />
	<line x1="412.176" y1="702.778" x2="412.176" y2="622.778" stroke-width="14.9" stroke="rgb(255,255,255)" />
</g>
	<g class="Door SingleSwingRight" >	<path d = "M555.67, 1034.8 q0,90 -90,90 l-0,-90" fill="none" stroke-width="1.5" stroke="rgb(0,0,0)" />
	<line x1="465.67" y1="1034.8" x2="555.67" y2="1034.8" stroke-width="29.9" stroke="rgb(255,255,255)" />
</g>
	<g class="Window" >	<line x1="561.46" y1="1034.8" x2="708.46" y2="1034.8" stroke-width="27.5" stroke="rgb(240,240,255)" />
	<line x1="568.96" y1="1034.8" x2="700.96" y2="1034.8" stroke-width="1.5" stroke="rgb(0,0,0)" />
	<line x1="568.96" y1="1019.8" x2="568.96" y2="1049.8" stroke-width="1.5" stroke="rgb(0,0,0)" />
	<line x1="700.96" y1="1019.8" x2="700.96" y2="1049.8" stroke-width="1.5" stroke="rgb(0,0,0)" />
</g>
	<g class="Window" >	<line x1="802.427" y1="1034.8" x2="970.427" y2="1034.8" stroke-width="27.5" stroke="rgb(240,240,255)" />
	<line x1="809.927" y1="1034.8" x2="962.927" y2="1034.8" stroke-width="1.5" stroke="rgb(0,0,0)" />
	<line x1="809.927" y1="1019.8" x2="809.927" y2="1049.8" stroke-width="1.5" stroke="rgb(0,0,0)" />
	<line x1="962.927" y1="1019.8" x2="962.927" y2="1049.8" stroke-width="1.5" stroke="rgb(0,0,0)" />
</g>
	<g class="Door SingleSwingLeft" >	<path d = "M744.592, 654.314 q80,0 80,-80 l-80,-0" fill="none" stroke-width="1.5" stroke="rgb(0,0,0)" />
	<line x1="744.592" y1="654.314" x2="744.592" y2="574.314" stroke-width="14.9" stroke="rgb(255,255,255)" />
</g>
	<g class="DoubleDoor" >	<path d = "M808.016, 486.27 q56.5,0 56.5,56.5 l-56.5,-0" fill="none" stroke-width="1.5" stroke="rgb(0,0,0)" />
	<path d = "M808.016, 486.27 q56.5,0 56.5,-56.5 l-56.5,-0" fill="none" stroke-width="1.5" stroke="rgb(0,0,0)" />
	<line x1="808.016" y1="542.77" x2="808.016" y2="429.77" stroke-width="14.9" stroke="rgb(255,255,255)" />
</g>
	<g class="DoubleDoor" >	<path d = "M955.264, 485.63 q-56.5,0 -56.5,-56.5 l56.5,-0" fill="none" stroke-width="1.5" stroke="rgb(0,0,0)" />
	<path d = "M955.264, 485.63 q-56.5,0 -56.5,56.5 l56.5,-0" fill="none" stroke-width="1.5" stroke="rgb(0,0,0)" />
	<line x1="955.264" y1="429.13" x2="955.264" y2="542.13" stroke-width="14.9" stroke="rgb(255,255,255)" />
</g>
	<g class="Door SingleSwingRight" >	<path d = "M905.8, 409.5 q0,80 -80,80 l-0,-80" fill="none" stroke-width="1.5" stroke="rgb(0,0,0)" />
	<line x1="825.8" y1="409.5" x2="905.8" y2="409.5" stroke-width="14.9" stroke="rgb(255,255,255)" />
</g>
</g>
</svg>
