<?xml version="1.0" standalone="no" ?>
<!DOCTYPE svg PUBLIC "-//W3C//DTD SVG 1.1//EN" "http://www.w3.org/Graphics/SVG/1.1/DTD/svg11.dtd">
<svg id="svgElement" width="1783.87" height="1664.7" xmlns="http://www.w3.org/2000/svg" version="1.1" >
	<g class="Floorplan" >	<polygon class="Room Room" points="1006.45,863.558 923.818,863.558 923.818,1456.72 1090.18,1456.72 1090.18,1539.7 1485.49,1539.7 1485.49,795.397 1515.42,795.397 1515.42,650.047 1658.87,650.047 1658.87,402.438 1484.36,402.438 1484.36,331.121 1294.54,331.121 1294.54,158.642 1064.02,158.642 1064.02,214.486 941.303,214.486 941.303,383.776 941.303,581.033 933.053,581.033 891.74,581.033 891.74,426.605 822.366,426.605 822.366,383.776 880.768,383.776 880.768,214.486 583.407,214.486 583.407,125 246.753,125 246.753,408.79 125,408.79 125,545.184 352.266,545.184 352.266,864.983 401.776,864.983 401.776,1539.7 776.822,1539.7 776.822,1490.63 818.381,1490.63 818.381,1476.66 891.862,1476.66 891.862,1340.26 891.862,1040.59 891.862,863.558 827.473,863.558 827.473,796.24 1006.45,796.24 827.473,782.52 827.473,770.823 925.521,770.823 925.521,782.52 " fill="rgb(255,255,255)" stroke-width="1" stroke="rgb(255,255,255)" />
	<polygon class="Room Room" points="941.303,383.776 933.053,383.776 933.053,581.033 941.303,581.033 " fill="rgb(255,255,255)" stroke-width="1" stroke="rgb(255,255,255)" />
	<polygon class="Room Room" points="891.74,414.448 822.366,414.448 822.366,426.605 891.74,426.605 " fill="rgb(255,255,255)" stroke-width="1" stroke="rgb(255,255,255)" />
	<polygon class="Room Room" points="902.431,383.776 891.74,383.776 891.74,402.29 891.74,414.448 891.74,426.605 891.74,581.033 902.431,581.033 " fill="rgb(255,255,255)" stroke-width="1" stroke="rgb(255,255,255)" />
	<polygon class="Room Room" points="891.74,402.29 822.366,402.29 822.366,414.448 891.74,414.448 " fill="rgb(255,255,255)" stroke-width="1" stroke="rgb(255,255,255)" />
	<polygon class="Room Room" points="891.74,393.151 822.366,393.151 822.366,402.29 891.74,402.29 " fill="rgb(255,255,255)" stroke-width="1" stroke="rgb(255,255,255)" />
	<polygon class="Room Room" points="891.74,383.776 822.366,383.776 822.366,393.151 891.74,393.151 " fill="rgb(255,255,255)" stroke-width="1" stroke="rgb(255,255,255)" />
	<polygon class="Room Room" points="912.213,383.776 902.431,383.776 902.431,581.033 912.213,581.033 " fill="rgb(255,255,255)" stroke-width="1" stroke="rgb(255,255,255)" />
	<polygon class="Room Room" points="922.846,383.776 912.213,383.776 912.213,581.033 922.846,581.033 " fill="rgb(255,255,255)" stroke-width="1" stroke="rgb(255,255,255)" />
	<polygon class="Room Room" points="912.213,214.486 902.431,214.486 902.431,383.776 912.213,383.776 " fill="rgb(255,255,255)" stroke-width="1" stroke="rgb(255,255,255)" />
	<polygon class="Room Room" points="933.053,383.776 922.846,383.776 922.846,581.033 933.053,581.033 " fill="rgb(255,255,255)" stroke-width="1" stroke="rgb(255,255,255)" />
	<polygon class="Room Room" points="922.846,214.486 912.213,214.486 912.213,383.776 922.846,383.776 " fill="rgb(255,255,255)" stroke-width="1" stroke="rgb(255,255,255)" />
	<polygon class="Room Room" points="933.053,214.486 922.846,214.486 922.846,383.776 933.053,383.776 " fill="rgb(255,255,255)" stroke-width="1" stroke="rgb(255,255,255)" />
	<polygon class="Room Room" points="941.303,214.486 933.053,214.486 933.053,383.776 941.303,383.776 " fill="rgb(255,255,255)" stroke-width="1" stroke="rgb(255,255,255)" />
	<polygon class="Room Room" points="893.898,214.486 880.768,214.486 880.768,383.776 893.898,383.776 " fill="rgb(255,255,255)" stroke-width="1" stroke="rgb(255,255,255)" />
	<polygon class="Room Room" points="902.431,214.486 893.898,214.486 893.898,383.776 902.431,383.776 " fill="rgb(255,255,255)" stroke-width="1" stroke="rgb(255,255,255)" />
	<polygon class="Room Room" points="1006.45,807.014 827.473,807.014 827.473,818.115 1006.45,818.115 " fill="rgb(255,255,255)" stroke-width="1" stroke="rgb(255,255,255)" />
	<polygon class="Room Room" points="1006.45,796.24 827.473,796.24 827.473,807.014 1006.45,807.014 " fill="rgb(255,255,255)" stroke-width="1" stroke="rgb(255,255,255)" />
	<polygon class="Room Room" points="1006.45,818.115 827.473,818.115 827.473,830.039 1006.45,830.039 " fill="rgb(255,255,255)" stroke-width="1" stroke="rgb(255,255,255)" />
	<polygon class="Room Room" points="1006.45,830.039 827.473,830.039 827.473,840.318 1006.45,840.318 " fill="rgb(255,255,255)" stroke-width="1" stroke="rgb(255,255,255)" />
	<polygon class="Room Room" points="1006.45,840.318 827.473,840.318 827.473,850.598 1006.45,850.598 " fill="rgb(255,255,255)" stroke-width="1" stroke="rgb(255,255,255)" />
	<polygon class="Room Room" points="1006.45,850.598 827.473,850.598 827.473,863.558 1006.45,863.558 " fill="rgb(255,255,255)" stroke-width="1" stroke="rgb(255,255,255)" />
	<polygon class="Room Room" points="925.521,770.823 827.473,770.823 827.473,782.52 925.521,782.52 " fill="rgb(255,255,255)" stroke-width="1" stroke="rgb(255,255,255)" />
	<polygon class="Room Room" points="923.818,1456.72 923.818,863.558 903.715,863.558 903.715,1539.7 923.818,1539.7 " fill="rgb(255,255,255)" stroke-width="1" stroke="rgb(255,255,255)" />
	<polygon class="Room Room" points="903.715,863.558 891.862,863.558 891.862,1040.59 891.862,1340.26 891.862,1476.66 891.862,1539.7 903.715,1539.7 " fill="rgb(255,255,255)" stroke-width="1" stroke="rgb(255,255,255)" />
	<polygon class="Room Room" points="891.862,1476.66 881.056,1476.66 881.056,1539.7 891.862,1539.7 " fill="rgb(255,255,255)" stroke-width="1" stroke="rgb(255,255,255)" />
	<polygon class="Room Room" points="818.381,1490.63 776.822,1490.63 776.822,1501.4 818.381,1501.4 " fill="rgb(255,255,255)" stroke-width="1" stroke="rgb(255,255,255)" />
	<polygon class="Room Room" points="828.973,1476.66 818.381,1476.66 818.381,1518.28 818.381,1528.7 818.381,1539.7 828.973,1539.7 " fill="rgb(255,255,255)" stroke-width="1" stroke="rgb(255,255,255)" />
	<polygon class="Room Room" points="818.381,1528.7 776.822,1528.7 776.822,1539.7 818.381,1539.7 " fill="rgb(255,255,255)" stroke-width="1" stroke="rgb(255,255,255)" />
	<polygon class="Room Room" points="818.381,1501.4 776.822,1501.4 776.822,1509.3 818.381,1509.3 " fill="rgb(255,255,255)" stroke-width="1" stroke="rgb(255,255,255)" />
	<polygon class="Room Room" points="818.381,1509.3 776.822,1509.3 776.822,1518.28 818.381,1518.28 " fill="rgb(255,255,255)" stroke-width="1" stroke="rgb(255,255,255)" />
	<polygon class="Room Room" points="818.381,1518.28 776.822,1518.28 776.822,1528.7 818.381,1528.7 " fill="rgb(255,255,255)" stroke-width="1" stroke="rgb(255,255,255)" />
	<polygon class="Room Room" points="840.108,1476.66 828.973,1476.66 828.973,1539.7 840.108,1539.7 " fill="rgb(255,255,255)" stroke-width="1" stroke="rgb(255,255,255)" />
	<polygon class="Room Room" points="850.884,1476.66 840.108,1476.66 840.108,1539.7 850.884,1539.7 " fill="rgb(255,255,255)" stroke-width="1" stroke="rgb(255,255,255)" />
	<polygon class="Room Room" points="861.659,1476.66 850.884,1476.66 850.884,1539.7 861.659,1539.7 " fill="rgb(255,255,255)" stroke-width="1" stroke="rgb(255,255,255)" />
	<polygon class="Room Room" points="871.358,1476.66 861.659,1476.66 861.659,1539.7 871.358,1539.7 " fill="rgb(255,255,255)" stroke-width="1" stroke="rgb(255,255,255)" />
	<polygon class="Room Room" points="881.056,1476.66 871.358,1476.66 871.358,1539.7 881.056,1539.7 " fill="rgb(255,255,255)" stroke-width="1" stroke="rgb(255,255,255)" />
	<polygon class="Room Room" points="1090.18,1456.72 923.818,1456.72 923.818,1466.38 1090.18,1466.38 " fill="rgb(255,255,255)" stroke-width="1" stroke="rgb(255,255,255)" />
	<polygon class="Room Room" points="1090.18,1526.95 923.818,1526.95 923.818,1539.7 1090.18,1539.7 " fill="rgb(255,255,255)" stroke-width="1" stroke="rgb(255,255,255)" />
	<polygon class="Room Room" points="1090.18,1466.38 923.818,1466.38 923.818,1476.66 1090.18,1476.66 " fill="rgb(255,255,255)" stroke-width="1" stroke="rgb(255,255,255)" />
	<polygon class="Room Room" points="1090.18,1476.66 923.818,1476.66 923.818,1489.75 1090.18,1489.75 " fill="rgb(255,255,255)" stroke-width="1" stroke="rgb(255,255,255)" />
	<polygon class="Room Room" points="1090.18,1489.75 923.818,1489.75 923.818,1503.43 1090.18,1503.43 " fill="rgb(255,255,255)" stroke-width="1" stroke="rgb(255,255,255)" />
	<polygon class="Room Room" points="1090.18,1503.43 923.818,1503.43 923.818,1514.27 1090.18,1514.27 " fill="rgb(255,255,255)" stroke-width="1" stroke="rgb(255,255,255)" />
	<polygon class="Room Room" points="1090.18,1514.27 923.818,1514.27 923.818,1526.95 1090.18,1526.95 " fill="rgb(255,255,255)" stroke-width="1" stroke="rgb(255,255,255)" />
	<g class="FixedFurniture Bath" transform="translate(551.616600 258.400600) rotate(-90.000000 81.000000 41.000000) scale(0.925714 1.000000)" ><polygon id="polygon5562" fill="#FFFFFF " stroke="#000000 " points="0.164,-0.227 0.164,81.773 175.164,81.773 175.164,-0.227 "/>
<path fill="#FFFFFF " stroke="#000000 " d="M166.833,41c0,19.698,0,35.667-79.333,35.667S8.167,60.698,8.167,41
    s0-35.667,79.333-35.667S166.833,21.302,166.833,41z"/>
<path fill="#FFFFFF " stroke="#000000 " stroke-width="0.6971" stroke-linecap="round" stroke-linejoin="round" d="M44.386,37.859
    c-0.039-0.001-0.075,0.007-0.114,0.007s-0.075-0.009-0.114-0.007c-1.732,0.063-3.091,1.498-3.049,3.219
    c0.042,1.707,1.448,3.062,3.163,3.064c1.714-0.001,3.121-1.357,3.163-3.064C47.477,39.357,46.118,37.922,44.386,37.859z
     M44.272,42.807c-0.984,0-1.792-0.783-1.816-1.77c-0.024-0.994,0.756-1.824,1.75-1.86c0.023-0.001,0.044,0.004,0.067,0.004
    s0.044-0.005,0.067-0.004c0.994,0.036,1.774,0.866,1.75,1.86C46.064,42.024,45.256,42.807,44.272,42.807z"/></g>
	<g class="FixedFurniture Bath" transform="translate(550.616600 649.900600) scale(0.617143 2.682927)" ><polygon id="polygon5562" fill="#FFFFFF " stroke="#000000 " points="0.164,-0.227 0.164,81.773 175.164,81.773 175.164,-0.227 "/>
<path fill="#FFFFFF " stroke="#000000 " d="M166.833,41c0,19.698,0,35.667-79.333,35.667S8.167,60.698,8.167,41
    s0-35.667,79.333-35.667S166.833,21.302,166.833,41z"/>
<path fill="#FFFFFF " stroke="#000000 " stroke-width="0.6971" stroke-linecap="round" stroke-linejoin="round" d="M44.386,37.859
    c-0.039-0.001-0.075,0.007-0.114,0.007s-0.075-0.009-0.114-0.007c-1.732,0.063-3.091,1.498-3.049,3.219
    c0.042,1.707,1.448,3.062,3.163,3.064c1.714-0.001,3.121-1.357,3.163-3.064C47.477,39.357,46.118,37.922,44.386,37.859z
     M44.272,42.807c-0.984,0-1.792-0.783-1.816-1.77c-0.024-0.994,0.756-1.824,1.75-1.86c0.023-0.001,0.044,0.004,0.067,0.004
    s0.044-0.005,0.067-0.004c0.994,0.036,1.774,0.866,1.75,1.86C46.064,42.024,45.256,42.807,44.272,42.807z"/></g>
	<g class="FixedFurniture Toilet" transform="translate(376.016600 559.300600) rotate(-90.000000 25.000000 41.000000) scale(1.231527 1.195335)" ><rect x="-0.052" y="0.001" fill-opacity="0" stroke="#000000" stroke-width="1.021" width="38.867" height="17.797"/>
<path fill="none" stroke="#000000" d="M38.866,43.298c0,0,1.078,26.01-19.11,26.01c-20.938,0-19.809-26.01-19.809-26.01V17.792 h38.868C38.928,25.812,38.855,34.673,38.866,43.298z"/>

</g>
	<g class="FixedFurniture Toilet" transform="translate(806.316600 222.100600) scale(1.231527 1.195335)" ><rect x="-0.052" y="0.001" fill-opacity="0" stroke="#000000" stroke-width="1.021" width="38.867" height="17.797"/>
<path fill="none" stroke="#000000" d="M38.866,43.298c0,0,1.078,26.01-19.11,26.01c-20.938,0-19.809-26.01-19.809-26.01V17.792 h38.868C38.928,25.812,38.855,34.673,38.866,43.298z"/>

</g>
	<polygon class="FixedFurniture Cabinet" points="375.936,678.35 417.936,678.35 417.936,636.35 357.936,636.35 357.936,672.35 357.936,672.35 357.936,730.35 375.936,730.35 " fill="rgb(255,255,255)" stroke-width="1" stroke="rgb(0,0,0)" />
	<polygon class="FixedFurniture Cabinet" points="1161.94,512.35 1099.94,512.35 1099.94,512.35 1039.94,512.35 1039.94,512.35 1007.94,512.35 1007.94,486.35 945.936,486.35 945.936,512.35 945.936,512.35 945.936,574.35 1005.94,574.35 1005.94,574.35 1041.94,574.35 1041.94,574.35 1101.94,574.35 1101.94,574.35 1161.94,574.35 " fill="rgb(255,255,255)" stroke-width="1" stroke="rgb(0,0,0)" />
	<polygon class="FixedFurniture Cabinet" points="709.936,242.35 757.936,242.35 757.936,212.35 707.936,212.35 707.936,222.35 683.936,222.35 683.936,284.35 709.936,284.35 " fill="rgb(255,255,255)" stroke-width="1" stroke="rgb(0,0,0)" />
	<polygon class="FixedFurniture Cabinet" points="1161.94,512.35 1099.94,512.35 1099.94,512.35 1039.94,512.35 1039.94,512.35 1007.94,512.35 1007.94,486.35 945.936,486.35 945.936,512.35 945.936,512.35 945.936,574.35 1005.94,574.35 1005.94,574.35 1041.94,574.35 1041.94,574.35 1101.94,574.35 1101.94,574.35 1161.94,574.35 " fill="rgb(255,255,255)" stroke-width="1" stroke="rgb(0,0,0)" />
	<polygon class="FixedFurniture Cabinet" points="1007.94,344.35 1007.94,222.35 945.936,222.35 945.936,344.35 " fill="rgb(255,255,255)" stroke-width="1" stroke="rgb(0,0,0)" />
	<polygon class="FixedFurniture Cabinet" points="945.936,222.35 945.936,344.35 1007.94,344.35 1007.94,222.35 " fill="rgb(255,255,255)" stroke-width="1" stroke="rgb(0,0,0)" />
	<polygon class="FixedFurniture Cabinet" points="707.936,242.35 731.936,242.35 755.936,242.35 755.936,284.35 781.936,284.35 781.936,222.35 757.936,222.35 757.936,212.35 707.936,212.35 707.936,222.35 683.936,222.35 683.936,284.35 709.936,284.35 " fill="rgb(255,255,255)" stroke-width="1" stroke="rgb(0,0,0)" />
	<polygon class="FixedFurniture Cabinet" points="709.936,242.35 753.936,242.35 753.936,242.35 753.936,284.35 781.936,284.35 781.936,222.35 757.936,222.35 757.936,212.35 707.936,212.35 707.936,222.35 683.936,222.35 683.936,284.35 709.936,284.35 " fill="rgb(255,255,255)" stroke-width="1" stroke="rgb(0,0,0)" />
	<polygon class="FixedFurniture Cabinet" points="375.936,780.35 417.936,780.35 417.936,724.35 375.936,724.35 375.936,678.35 417.936,678.35 417.936,636.35 357.936,636.35 357.936,672.35 357.936,672.35 357.936,730.35 357.936,730.35 357.936,776.35 357.936,776.35 357.936,834.35 377.936,834.35 " fill="rgb(255,255,255)" stroke-width="1" stroke="rgb(0,0,0)" />
	<polygon class="FixedFurniture Cabinet" points="417.936,834.35 377.936,834.35 377.936,780.35 417.936,780.35 417.936,724.35 375.936,724.35 375.936,678.35 417.936,678.35 417.936,636.35 357.936,636.35 357.936,672.35 357.936,672.35 357.936,730.35 357.936,730.35 357.936,776.35 357.936,776.35 357.936,834.35 357.936,834.35 357.936,862.35 417.936,862.35 " fill="rgb(255,255,255)" stroke-width="1" stroke="rgb(0,0,0)" />
	<polygon class="FixedFurniture Cabinet" points="417.936,830.35 377.936,830.35 377.936,780.35 417.936,780.35 417.936,724.35 375.936,724.35 375.936,678.35 417.936,678.35 417.936,636.35 357.936,636.35 357.936,672.35 357.936,672.35 357.936,730.35 357.936,730.35 357.936,776.35 357.936,776.35 357.936,834.35 357.936,834.35 357.936,862.35 417.936,862.35 " fill="rgb(255,255,255)" stroke-width="1" stroke="rgb(0,0,0)" />
	<polygon class="FixedFurniture Cabinet" points="1161.94,512.35 1099.94,512.35 1099.94,512.35 1039.94,512.35 1039.94,512.35 1007.94,512.35 1007.94,486.35 945.936,486.35 945.936,512.35 945.936,512.35 945.936,574.35 1005.94,574.35 1005.94,574.35 1041.94,574.35 1041.94,574.35 1101.94,574.35 1101.94,574.35 1161.94,574.35 " fill="rgb(255,255,255)" stroke-width="1" stroke="rgb(0,0,0)" />
	<polygon class="FixedFurniture Cabinet" points="417.936,830.35 377.936,830.35 377.936,780.35 417.936,780.35 417.936,724.35 375.936,724.35 375.936,678.35 417.936,678.35 417.936,636.35 357.936,636.35 357.936,672.35 357.936,672.35 357.936,730.35 357.936,730.35 357.936,776.35 357.936,776.35 357.936,834.35 357.936,834.35 357.936,862.35 417.936,862.35 " fill="rgb(255,255,255)" stroke-width="1" stroke="rgb(0,0,0)" />
	<polygon class="FixedFurniture Cabinet" points="1285.94,512.35 1235.94,512.35 1235.94,574.35 1287.94,574.35 " fill="rgb(255,255,255)" stroke-width="1" stroke="rgb(0,0,0)" />
	<polygon class="FixedFurniture Cabinet" points="1161.94,512.35 1099.94,512.35 1099.94,512.35 1039.94,512.35 1039.94,512.35 1039.94,512.35 1007.94,512.35 1007.94,486.35 945.936,486.35 945.936,512.35 945.936,512.35 945.936,574.35 1005.94,574.35 1005.94,574.35 1041.94,574.35 1041.94,574.35 1101.94,574.35 1101.94,574.35 1161.94,574.35 " fill="rgb(255,255,255)" stroke-width="1" stroke="rgb(0,0,0)" />
	<polygon class="FixedFurniture Cabinet" points="1161.94,512.35 1099.94,512.35 1099.94,512.35 1039.94,512.35 1039.94,512.35 1039.94,512.35 1007.94,512.35 1007.94,486.35 945.936,486.35 945.936,512.35 945.936,512.35 945.936,574.35 1005.94,574.35 1005.94,574.35 1041.94,574.35 1041.94,574.35 1101.94,574.35 1101.94,574.35 1161.94,574.35 " fill="rgb(255,255,255)" stroke-width="1" stroke="rgb(0,0,0)" />
	<g class="FixedFurniture Dishwasher" transform="translate(947.316600 342.800600) rotate(-90.000000 30.500000 30.000000) scale(0.983871 0.990099)" ><polygon fill="#FFFFFF" stroke="#000000" points="0,0 0,60.59 62.01,60.59 62.01,0 "/>
<path fill="none" stroke="#000000" stroke-width="0.935" d="M0,0l31.006,42.368l0.004-20.893l31,39.115"/>
<path fill="none" stroke="#000000" d="M2.829,61.42h56.36"/>
</g>
	<g class="FixedFurniture Stove" transform="translate(1162.816600 513.800600) rotate(-179.999995 38.000000 27.500000) scale(1.000000 0.859375)" ><polygon fill="#FFFFFF" stroke="#000000" points="0,0 0,65.5 77,65.5 77,0 "/>
<g>
	<ellipse fill="#FFFFFF" stroke="#000000" stroke-width="0.433" cx="23.844" cy="20.771" rx="7.732" ry="7.517"/>
	<ellipse fill="#FFFFFF" stroke="#000000" stroke-width="0.433" cx="53.08" cy="44.729" rx="7.732" ry="7.517"/>
	<ellipse fill="#FFFFFF" stroke="#000000" stroke-width="0.433" cx="53.05" cy="20.771" rx="10.739" ry="10.596"/>
	<ellipse fill="#FFFFFF" stroke="#000000" stroke-width="0.433" cx="23.952" cy="44.729" rx="10.739" ry="10.596"/>
	<ellipse fill="#FFFFFF" stroke="#000000" stroke-width="0.385" cx="53.08" cy="20.823" rx="9.561" ry="9.442"/>
	<ellipse fill="#FFFFFF" stroke="#000000" stroke-width="0.368" cx="53.08" cy="44.73" rx="6.548" ry="6.417"/>
	<ellipse fill="#FFFFFF" stroke="#000000" stroke-width="0.368" cx="23.811" cy="20.846" rx="6.548" ry="6.417"/>
	<ellipse fill="#FFFFFF" stroke="#000000" stroke-width="0.385" cx="23.844" cy="44.708" rx="9.561" ry="9.442"/>
</g>
</g>
	<g class="FixedFurniture BathSink" transform="translate(709.266600 241.100600) scale(0.835000 0.975610)" ><polygon fill="#FFFFFF" stroke="#000000" stroke-width="1.0152" points="0,46.1 61,46.1 61,0 0,0 "/>
<polygon fill="#FFFFFF" stroke="#000000" stroke-width="0.7" stroke-linecap="round" stroke-linejoin="round" points="8.061,14.448 
	4.615,11.216 4.615,41.022 8.061,37.854 "/>
<g>
	<polygon fill="#FFFFFF" stroke="#000000" stroke-width="0.7" stroke-linecap="round" stroke-linejoin="round" points="
		8.061,14.448 27.376,14.448 27.376,11.216 4.615,11.216 	"/>
	<polygon fill="#FFFFFF" stroke="#000000" stroke-width="0.7" stroke-linecap="round" stroke-linejoin="round" points="
		33.624,11.216 33.624,14.448 52.939,14.448 56.385,11.216 	"/>
</g>
<polygon fill="#FFFFFF" stroke="#000000" stroke-width="0.7" stroke-linecap="round" stroke-linejoin="round" points="
	52.939,14.448 56.385,11.216 56.385,41.022 52.939,37.854 "/>
<polygon fill="#FFFFFF" stroke="#000000" stroke-width="0.7" stroke-linecap="round" stroke-linejoin="round" points="
	52.939,37.854 30.5,37.854 8.061,37.854 4.615,41.022 30.5,41.022 56.385,41.022 "/>
<path fill="#FFFFFF" stroke="#000000" stroke-width="0.697" stroke-linecap="round" stroke-linejoin="round" d="M30.614,23.555
	c-0.039-0.001-0.075,0.007-0.114,0.007c-0.039,0-0.075-0.009-0.114-0.007c-1.732,0.063-3.091,1.498-3.049,3.219
	c0.042,1.707,1.448,3.062,3.163,3.064c1.714-0.001,3.121-1.357,3.163-3.064C33.705,25.053,32.346,23.618,30.614,23.555z
	 M30.5,28.503c-0.984,0-1.792-0.783-1.816-1.77c-0.024-0.994,0.756-1.824,1.75-1.86c0.023-0.001,0.044,0.004,0.067,0.004
	s0.044-0.005,0.067-0.004c0.994,0.036,1.774,0.866,1.75,1.86C32.292,27.72,31.484,28.503,30.5,28.503z"/>
<polygon fill="#FFFFFF" stroke="#000000" stroke-width="0.7" stroke-linecap="round" stroke-linejoin="round" points="30.5,5.82 
	27.376,5.82 27.376,11.216 27.376,14.448 27.376,19.61 30.5,19.61 33.624,19.61 33.624,14.448 33.624,11.216 33.624,5.82 "/>
</g>
	<g class="FixedFurniture BathSink" transform="translate(373.866600 675.700600) rotate(-90.000000 25.050000 22.000000) scale(0.835000 0.975610)" ><polygon fill="#FFFFFF" stroke="#000000" stroke-width="1.0152" points="0,46.1 61,46.1 61,0 0,0 "/>
<polygon fill="#FFFFFF" stroke="#000000" stroke-width="0.7" stroke-linecap="round" stroke-linejoin="round" points="8.061,14.448 
	4.615,11.216 4.615,41.022 8.061,37.854 "/>
<g>
	<polygon fill="#FFFFFF" stroke="#000000" stroke-width="0.7" stroke-linecap="round" stroke-linejoin="round" points="
		8.061,14.448 27.376,14.448 27.376,11.216 4.615,11.216 	"/>
	<polygon fill="#FFFFFF" stroke="#000000" stroke-width="0.7" stroke-linecap="round" stroke-linejoin="round" points="
		33.624,11.216 33.624,14.448 52.939,14.448 56.385,11.216 	"/>
</g>
<polygon fill="#FFFFFF" stroke="#000000" stroke-width="0.7" stroke-linecap="round" stroke-linejoin="round" points="
	52.939,14.448 56.385,11.216 56.385,41.022 52.939,37.854 "/>
<polygon fill="#FFFFFF" stroke="#000000" stroke-width="0.7" stroke-linecap="round" stroke-linejoin="round" points="
	52.939,37.854 30.5,37.854 8.061,37.854 4.615,41.022 30.5,41.022 56.385,41.022 "/>
<path fill="#FFFFFF" stroke="#000000" stroke-width="0.697" stroke-linecap="round" stroke-linejoin="round" d="M30.614,23.555
	c-0.039-0.001-0.075,0.007-0.114,0.007c-0.039,0-0.075-0.009-0.114-0.007c-1.732,0.063-3.091,1.498-3.049,3.219
	c0.042,1.707,1.448,3.062,3.163,3.064c1.714-0.001,3.121-1.357,3.163-3.064C33.705,25.053,32.346,23.618,30.614,23.555z
	 M30.5,28.503c-0.984,0-1.792-0.783-1.816-1.77c-0.024-0.994,0.756-1.824,1.75-1.86c0.023-0.001,0.044,0.004,0.067,0.004
	s0.044-0.005,0.067-0.004c0.994,0.036,1.774,0.866,1.75,1.86C32.292,27.72,31.484,28.503,30.5,28.503z"/>
<polygon fill="#FFFFFF" stroke="#000000" stroke-width="0.7" stroke-linecap="round" stroke-linejoin="round" points="30.5,5.82 
	27.376,5.82 27.376,11.216 27.376,14.448 27.376,19.61 30.5,19.61 33.624,19.61 33.624,14.448 33.624,11.216 33.624,5.82 "/>
</g>
	<g class="FixedFurniture BathSink" transform="translate(373.866600 781.700600) rotate(-90.000000 25.050000 22.000000) scale(0.835000 0.975610)" ><polygon fill="#FFFFFF" stroke="#000000" stroke-width="1.0152" points="0,46.1 61,46.1 61,0 0,0 "/>
<polygon fill="#FFFFFF" stroke="#000000" stroke-width="0.7" stroke-linecap="round" stroke-linejoin="round" points="8.061,14.448 
	4.615,11.216 4.615,41.022 8.061,37.854 "/>
<g>
	<polygon fill="#FFFFFF" stroke="#000000" stroke-width="0.7" stroke-linecap="round" stroke-linejoin="round" points="
		8.061,14.448 27.376,14.448 27.376,11.216 4.615,11.216 	"/>
	<polygon fill="#FFFFFF" stroke="#000000" stroke-width="0.7" stroke-linecap="round" stroke-linejoin="round" points="
		33.624,11.216 33.624,14.448 52.939,14.448 56.385,11.216 	"/>
</g>
<polygon fill="#FFFFFF" stroke="#000000" stroke-width="0.7" stroke-linecap="round" stroke-linejoin="round" points="
	52.939,14.448 56.385,11.216 56.385,41.022 52.939,37.854 "/>
<polygon fill="#FFFFFF" stroke="#000000" stroke-width="0.7" stroke-linecap="round" stroke-linejoin="round" points="
	52.939,37.854 30.5,37.854 8.061,37.854 4.615,41.022 30.5,41.022 56.385,41.022 "/>
<path fill="#FFFFFF" stroke="#000000" stroke-width="0.697" stroke-linecap="round" stroke-linejoin="round" d="M30.614,23.555
	c-0.039-0.001-0.075,0.007-0.114,0.007c-0.039,0-0.075-0.009-0.114-0.007c-1.732,0.063-3.091,1.498-3.049,3.219
	c0.042,1.707,1.448,3.062,3.163,3.064c1.714-0.001,3.121-1.357,3.163-3.064C33.705,25.053,32.346,23.618,30.614,23.555z
	 M30.5,28.503c-0.984,0-1.792-0.783-1.816-1.77c-0.024-0.994,0.756-1.824,1.75-1.86c0.023-0.001,0.044,0.004,0.067,0.004
	s0.044-0.005,0.067-0.004c0.994,0.036,1.774,0.866,1.75,1.86C32.292,27.72,31.484,28.503,30.5,28.503z"/>
<polygon fill="#FFFFFF" stroke="#000000" stroke-width="0.7" stroke-linecap="round" stroke-linejoin="round" points="30.5,5.82 
	27.376,5.82 27.376,11.216 27.376,14.448 27.376,19.61 30.5,19.61 33.624,19.61 33.624,14.448 33.624,11.216 33.624,5.82 "/>
</g>
	<g class="FixedFurniture DoubleSink" transform="translate(936.016600 414.900600) rotate(-90.000000 42.500000 30.000000) scale(1.416667 1.330377)" ><polygon fill="#FFFFFF" stroke="#000000" points="61,46.1 61,0 0,0 0,46.1 "/>
<rect x="5.03" y="11.216" fill="#FFFFFF" stroke="#000000" stroke-width="0.7" stroke-linecap="round" stroke-linejoin="round" width="50.937" height="29.805"/>
<rect x="8.477" y="14.448" fill="#FFFFFF" stroke="#000000" stroke-width="0.697" stroke-linecap="round" stroke-linejoin="round" width="44.41" height="23.406"/>
<path fill="none" stroke="#000000" stroke-width="0.7" d="M5.03,11.216l3.446,3.232"/>
<path fill="none" stroke="#000000" stroke-width="0.7" d="M55.968,11.216l-3.082,3.232"/>
<path fill="none" stroke="#000000" stroke-width="0.7" d="M55.968,41.02l-3.082-3.168"/>
<path fill="none" stroke="#000000" stroke-width="0.7" d="M5.03,41.02l3.446-3.168"/>
<rect x="27.374" y="5.82" fill="#FFFFFF" stroke="#000000" stroke-width="0.7" stroke-linecap="round" stroke-linejoin="round" width="6.252" height="13.789"/>
<path fill="#FFFFFF" stroke="#000000" stroke-width="0.7" stroke-linecap="round" stroke-linejoin="round" d="M20.743,26.648
	c0,0.995-0.8,1.805-1.795,1.817c-0.995,0.012-1.814-0.778-1.839-1.772s0.756-1.824,1.75-1.86s1.833,0.733,1.881,1.727"/>
<path fill="none" stroke="#000000" stroke-width="0.7" stroke-linecap="round" stroke-linejoin="round" d="M22.09,26.657
	c0,1.722-1.394,3.123-3.127,3.144c-1.733,0.021-3.161-1.346-3.204-3.067s1.317-3.156,3.049-3.219
	c1.732-0.063,3.193,1.269,3.278,2.989"/>
<path fill="#FFFFFF" stroke="#000000" stroke-width="0.7" stroke-linecap="round" stroke-linejoin="round" d="M43.631,26.735
	c0,0.995-0.8,1.805-1.795,1.817s-1.814-0.778-1.839-1.772c-0.024-0.994,0.756-1.824,1.75-1.86s1.833,0.733,1.881,1.727"/>
<path fill="none" stroke="#000000" stroke-width="0.7" stroke-linecap="round" stroke-linejoin="round" d="M44.982,26.744
	c0,1.722-1.394,3.123-3.127,3.144c-1.733,0.021-3.161-1.346-3.204-3.067c-0.042-1.721,1.317-3.156,3.049-3.219
	s3.193,1.269,3.278,2.989"/>
<rect x="29.387" y="19.61" fill="#FFFFFF" stroke="#000000" stroke-width="0.7" stroke-linecap="round" stroke-linejoin="round" width="2.227" height="21.412"/>
</g>
	<g class="FixedFurniture Refrigerator" transform="translate(1202.716600 234.900600) rotate(90.000000 50.500000 34.000000) scale(1.097826 0.986938)" ><polygon fill="#FFFFFF" stroke="#000000" points="0,67.596 92.01,67.596 92.01,0 0,0 "/>
<path fill="none" stroke="#000000" stroke-width="0.935" d="M0,0l46.022,42.441V21.549l45.988,42.55"/>
<path fill="none" stroke="#000000" d="M0,64.099h92.01"/>
<path fill="none" stroke="#000000" d="M46.019,68.079v-4.138"/>
<path fill="none" stroke="#000000" d="M39.66,68.479h3.972"/>
<path fill="none" stroke="#000000" d="M48.338,68.479c0.859,0,2.384,0,3.972,0"/>
</g>
	<polygon class="FixedFurniture Closet" points="243.936,542.35 243.936,408.35 131.936,408.35 131.936,542.35 " fill="rgb(255,255,255)" stroke-width="1" stroke="rgb(0,0,0)" />
	<polygon class="FixedFurniture Closet" points="885.936,524.35 935.936,524.35 935.936,382.35 869.936,382.35 869.936,432.35 819.936,432.35 819.936,574.35 885.936,574.35 " fill="rgb(255,255,255)" stroke-width="1" stroke="rgb(0,0,0)" />
	<polygon class="FixedFurniture Closet" points="817.936,866.35 817.936,1040.35 883.936,1040.35 883.936,866.35 " fill="rgb(255,255,255)" stroke-width="1" stroke="rgb(0,0,0)" />
	<polygon class="FixedFurniture Closet" points="1475.94,658.35 1475.94,794.35 1509.94,794.35 1509.94,658.35 " fill="rgb(255,255,255)" stroke-width="1" stroke="rgb(0,0,0)" />
	<polygon class="FixedFurniture Closet" points="1225.94,160.35 1225.94,220.35 1291.94,220.35 1291.94,160.35 " fill="rgb(255,255,255)" stroke-width="1" stroke="rgb(0,0,0)" />
	<polygon class="FixedFurniture Closet" points="819.936,1348.35 819.936,1520.35 883.936,1520.35 883.936,1348.35 " fill="rgb(255,255,255)" stroke-width="1" stroke="rgb(0,0,0)" />
	<polygon class="FixedFurniture Closet" points="883.936,524.35 935.936,524.35 935.936,382.35 869.936,382.35 869.936,432.35 819.936,432.35 819.936,574.35 885.936,574.35 " fill="rgb(255,255,255)" stroke-width="1" stroke="rgb(0,0,0)" />
	<g class="FixedFurniture Shower" transform="translate(570.716600 549.700600) rotate(90.000000 42.500000 46.000000) scale(0.566667 0.613333)" ><polygon fill="#FFFFFF" stroke="#000000" points="0,0 0,151.1 151,151.1 151,0 "/>
<path fill="none" stroke="#000000" d="M0,151.1L151,0"/>
<path fill="none" stroke="#000000" d="M0,0l151,151.1"/>
<g>
	<path fill="none" stroke="#000000" stroke-linejoin="round" d="M91.29,0.5H59.702v6.146l31.582,0.021L91.29,0.5z"/>
	<ellipse fill="#FFFFFF" fill-opacity="0" stroke="#000000" cx="75.51" cy="42.575" rx="8.924" ry="8.947"/>
	
		<ellipse fill="#FFFFFF" stroke="#000000" stroke-width="0.7" stroke-linecap="round" stroke-linejoin="round" cx="75.58" cy="42.498" rx="7.605" ry="7.745"/>
	<polygon fill="#FFFFFF" stroke="#000000" stroke-width="0.694" stroke-linecap="round" stroke-linejoin="round" points="
		91.288,6.668 87.886,6.665 87.886,0.5 91.294,0.5 	"/>
	
		<rect x="59.736" y="0.588" fill="#FFFFFF" stroke="#000000" stroke-width="0.7" stroke-linecap="round" stroke-linejoin="round" width="3.227" height="6.08"/>
	<rect x="74.1" y="0.689" fill="#FFFFFF" stroke="#000000" stroke-linejoin="round" width="2.722" height="42.703"/>
	<path fill="none" stroke="#000000" stroke-width="0.7" stroke-linecap="round" d="M62.997,3.562h1.749"/>
	<path fill="none" stroke="#000000" stroke-width="0.7" stroke-linecap="round" stroke-linejoin="round" d="M86.14,3.562h1.749"/>
	
		<ellipse fill="#FFFFFF" stroke="#000000" stroke-width="0.7" stroke-linecap="round" stroke-linejoin="round" cx="75.49" cy="42.36" rx="2.384" ry="2.302"/>
</g>
</g>
	<g class="FixedFurniture Shower" transform="translate(616.516600 223.700600) scale(0.993671 0.980392)" ><path fill="none" stroke="#000000" stroke-linejoin="round" d="M32.081,0.502H0.495v6.146l31.581,0.021L32.081,0.502z"/>
<ellipse fill="#FFFFFF" fill-opacity="0" stroke="#000000" cx="16.294" cy="42.573" rx="8.924" ry="8.947"/>
<ellipse fill="#FFFFFF" stroke="#000000" stroke-width="0.7" stroke-linecap="round" stroke-linejoin="round" cx="16.364" cy="42.496" rx="7.605" ry="7.745"/>
<polygon fill="#FFFFFF" stroke="#000000" stroke-width="0.694" stroke-linecap="round" stroke-linejoin="round" points="
	32.075,6.668 28.674,6.665 28.674,0.5 32.081,0.5 "/>
<rect x="0.525" y="0.592" fill="#FFFFFF" stroke="#000000" stroke-width="0.7" stroke-linecap="round" stroke-linejoin="round" width="3.227" height="6.08"/>
<rect x="14.891" y="0.689" fill="#FFFFFF" stroke="#000000" stroke-linejoin="round" width="2.722" height="42.701"/>
<path fill="none" stroke="#000000" stroke-width="0.7" stroke-linecap="round" d="M3.785,3.562h1.749"/>
<path fill="none" stroke="#000000" stroke-width="0.7" stroke-linecap="round" stroke-linejoin="round" d="M26.925,3.562h1.749"/>
<ellipse fill="#FFFFFF" stroke="#000000" stroke-width="0.7" stroke-linecap="round" stroke-linejoin="round" cx="16.275" cy="42.356" rx="2.384" ry="2.302"/>
</g>
	<polygon class="Wall" points="394.276,857.483 394.276,1547.2 409.276,1532.2 409.276,872.483 " fill="rgb(0,0,0)" stroke-width="1" stroke="rgb(0,0,0)" />
	<polygon class="Wall" points="1492.99,1547.2 1492.99,802.897 1477.99,787.897 1477.99,1532.2 " fill="rgb(0,0,0)" stroke-width="1" stroke="rgb(0,0,0)" />
	<polygon class="Wall" points="1492.99,802.897 1522.92,802.897 1507.92,787.897 1477.99,787.897 " fill="rgb(0,0,0)" stroke-width="1" stroke="rgb(0,0,0)" />
	<polygon class="Wall" points="1522.92,802.897 1522.92,657.547 1507.92,642.547 1507.92,787.897 " fill="rgb(0,0,0)" stroke-width="1" stroke="rgb(0,0,0)" />
	<polygon class="Wall" points="1522.92,657.547 1666.37,657.547 1651.37,642.547 1507.92,642.547 " fill="rgb(0,0,0)" stroke-width="1" stroke="rgb(0,0,0)" />
	<polygon class="Wall" points="1666.37,657.547 1666.37,394.938 1651.37,409.938 1651.37,642.547 " fill="rgb(0,0,0)" stroke-width="1" stroke="rgb(0,0,0)" />
	<polygon class="Wall" points="1666.37,394.938 1476.86,394.938 1491.86,409.938 1651.37,409.938 " fill="rgb(0,0,0)" stroke-width="1" stroke="rgb(0,0,0)" />
	<polygon class="Wall" points="1476.86,394.938 1476.86,481.634 1491.86,481.634 1491.86,409.938 " fill="rgb(0,0,0)" stroke-width="1" stroke="rgb(0,0,0)" />
	<polygon class="Wall" points="1515.42,642.547 1492.99,642.547 1477.99,657.547 1515.42,657.547 " fill="rgb(0,0,0)" stroke-width="1" stroke="rgb(0,0,0)" />
	<polygon class="Wall" points="1492.99,642.547 1492.99,559.78 1477.99,559.78 1477.99,657.547 " fill="rgb(0,0,0)" stroke-width="1" stroke="rgb(0,0,0)" />
	<polygon class="Wall" points="1491.86,402.438 1491.86,323.621 1476.86,338.621 1476.86,402.438 " fill="rgb(0,0,0)" stroke-width="1" stroke="rgb(0,0,0)" />
	<polygon class="Wall" points="1491.86,323.621 1287.04,323.621 1302.04,338.621 1476.86,338.621 " fill="rgb(0,0,0)" stroke-width="1" stroke="rgb(0,0,0)" />
	<polygon class="Wall" points="1287.04,323.621 1287.04,380.029 1302.04,380.029 1302.04,338.621 " fill="rgb(0,0,0)" stroke-width="1" stroke="rgb(0,0,0)" />
	<polygon class="Wall" points="1287.04,491.912 1287.04,573.533 1302.04,588.533 1302.04,491.912 " fill="rgb(0,0,0)" stroke-width="1" stroke="rgb(0,0,0)" />
	<polygon class="Wall" points="829.866,573.533 829.866,557.338 814.866,557.338 814.866,588.533 " fill="rgb(0,0,0)" stroke-width="1" stroke="rgb(0,0,0)" />
	<polygon class="Wall" points="829.866,376.276 778.206,376.276 778.206,391.276 814.866,391.276 " fill="rgb(0,0,0)" stroke-width="1" stroke="rgb(0,0,0)" />
	<polygon class="Wall" points="933.803,391.276 933.803,588.533 948.803,573.533 948.803,376.276 " fill="rgb(0,0,0)" stroke-width="1" stroke="rgb(0,0,0)" />
	<polygon class="Wall" points="1287.04,573.533 948.803,573.533 933.803,588.533 1302.04,588.533 " fill="rgb(0,0,0)" stroke-width="1" stroke="rgb(0,0,0)" />
	<polygon class="Wall" points="884.24,573.533 829.866,573.533 814.866,588.533 899.24,588.533 " fill="rgb(0,0,0)" stroke-width="1" stroke="rgb(0,0,0)" />
	<polygon class="Wall" points="829.866,434.105 884.24,434.105 899.24,419.105 814.866,419.105 " fill="rgb(0,0,0)" stroke-width="1" stroke="rgb(0,0,0)" />
	<polygon class="Wall" points="829.866,446.04 829.866,434.105 814.866,419.105 814.866,446.04 " fill="rgb(0,0,0)" stroke-width="1" stroke="rgb(0,0,0)" />
	<polygon class="Wall" points="884.24,434.105 884.24,573.533 899.24,588.533 899.24,419.105 " fill="rgb(0,0,0)" stroke-width="1" stroke="rgb(0,0,0)" />
	<polygon class="Wall" points="829.866,421.948 884.24,421.948 899.24,406.948 814.866,406.948 " fill="rgb(0,0,0)" stroke-width="1" stroke="rgb(0,0,0)" />
	<polygon class="Wall" points="829.866,426.605 829.866,421.948 814.866,406.948 814.866,426.605 " fill="rgb(0,0,0)" stroke-width="1" stroke="rgb(0,0,0)" />
	<polygon class="Wall" points="884.24,421.948 884.24,426.606 899.24,426.605 899.24,406.948 " fill="rgb(0,0,0)" stroke-width="1" stroke="rgb(0,0,0)" />
	<polygon class="Wall" points="829.866,409.79 884.24,409.79 899.24,394.79 814.866,394.79 " fill="rgb(0,0,0)" stroke-width="1" stroke="rgb(0,0,0)" />
	<polygon class="Wall" points="829.866,414.448 829.866,409.79 814.866,394.79 814.866,414.448 " fill="rgb(0,0,0)" stroke-width="1" stroke="rgb(0,0,0)" />
	<polygon class="Wall" points="884.24,409.79 884.24,414.448 899.24,414.448 899.24,394.79 " fill="rgb(0,0,0)" stroke-width="1" stroke="rgb(0,0,0)" />
	<polygon class="Wall" points="829.866,400.651 899.24,400.651 884.24,385.651 814.866,385.651 " fill="rgb(0,0,0)" stroke-width="1" stroke="rgb(0,0,0)" />
	<polygon class="Wall" points="829.866,402.29 829.866,400.651 814.866,385.651 814.866,402.29 " fill="rgb(0,0,0)" stroke-width="1" stroke="rgb(0,0,0)" />
	<polygon class="Wall" points="829.866,393.151 829.866,376.276 814.866,391.276 814.866,393.151 " fill="rgb(0,0,0)" stroke-width="1" stroke="rgb(0,0,0)" />
	<polygon class="Wall" points="884.24,391.276 884.24,385.651 899.24,400.651 899.24,376.276 " fill="rgb(0,0,0)" stroke-width="1" stroke="rgb(0,0,0)" />
	<polygon class="Wall" points="884.24,393.151 884.24,402.29 899.24,402.29 899.24,393.151 " fill="rgb(0,0,0)" stroke-width="1" stroke="rgb(0,0,0)" />
	<polygon class="Wall" points="894.931,376.276 894.931,573.533 909.931,588.533 909.931,391.276 " fill="rgb(0,0,0)" stroke-width="1" stroke="rgb(0,0,0)" />
	<polygon class="Wall" points="894.931,573.533 891.74,573.533 891.74,588.533 909.931,588.533 " fill="rgb(0,0,0)" stroke-width="1" stroke="rgb(0,0,0)" />
	<polygon class="Wall" points="904.713,391.276 904.713,588.533 919.713,573.533 919.713,376.276 " fill="rgb(0,0,0)" stroke-width="1" stroke="rgb(0,0,0)" />
	<polygon class="Wall" points="909.931,391.276 904.713,391.276 919.713,376.276 894.931,376.276 " fill="rgb(0,0,0)" stroke-width="1" stroke="rgb(0,0,0)" />
	<polygon class="Wall" points="915.346,391.276 915.346,588.533 930.346,573.533 930.346,376.276 " fill="rgb(0,0,0)" stroke-width="1" stroke="rgb(0,0,0)" />
	<polygon class="Wall" points="904.713,391.276 915.346,391.276 930.346,376.276 919.713,376.276 " fill="rgb(0,0,0)" stroke-width="1" stroke="rgb(0,0,0)" />
	<polygon class="Wall" points="925.553,391.276 925.553,588.533 940.553,573.533 940.553,376.276 " fill="rgb(0,0,0)" stroke-width="1" stroke="rgb(0,0,0)" />
	<polygon class="Wall" points="941.303,573.533 940.553,573.533 925.553,588.533 941.303,588.533 " fill="rgb(0,0,0)" stroke-width="1" stroke="rgb(0,0,0)" />
	<polygon class="Wall" points="933.053,573.533 930.346,573.533 915.346,588.533 933.053,588.533 " fill="rgb(0,0,0)" stroke-width="1" stroke="rgb(0,0,0)" />
	<polygon class="Wall" points="915.346,391.276 925.553,391.276 940.553,376.276 930.346,376.276 " fill="rgb(0,0,0)" stroke-width="1" stroke="rgb(0,0,0)" />
	<polygon class="Wall" points="925.553,391.276 933.803,391.276 948.803,376.276 940.553,376.276 " fill="rgb(0,0,0)" stroke-width="1" stroke="rgb(0,0,0)" />
	<polygon class="Wall" points="922.846,573.533 919.713,573.533 904.713,588.533 922.846,588.533 " fill="rgb(0,0,0)" stroke-width="1" stroke="rgb(0,0,0)" />
	<polygon class="Wall" points="912.213,573.533 902.431,573.533 902.431,588.533 912.213,588.533 " fill="rgb(0,0,0)" stroke-width="1" stroke="rgb(0,0,0)" />
	<polygon class="Wall" points="575.908,206.986 575.908,391.276 590.908,376.276 590.908,221.986 " fill="rgb(0,0,0)" stroke-width="1" stroke="rgb(0,0,0)" />
	<polygon class="Wall" points="658.573,391.276 658.573,435.809 673.573,435.809 673.573,376.276 " fill="rgb(0,0,0)" stroke-width="1" stroke="rgb(0,0,0)" />
	<polygon class="Wall" points="575.908,391.276 658.573,391.276 673.573,376.276 590.908,376.276 " fill="rgb(0,0,0)" stroke-width="1" stroke="rgb(0,0,0)" />
	<polygon class="Wall" points="666.073,391.276 696.264,391.276 696.264,376.276 666.073,376.276 " fill="rgb(0,0,0)" stroke-width="1" stroke="rgb(0,0,0)" />
	<polygon class="Wall" points="658.573,856.058 542.003,856.058 542.003,871.058 673.573,871.058 " fill="rgb(0,0,0)" stroke-width="1" stroke="rgb(0,0,0)" />
	<polygon class="Wall" points="459.654,857.483 394.276,857.483 409.276,872.483 459.654,872.483 " fill="rgb(0,0,0)" stroke-width="1" stroke="rgb(0,0,0)" />
	<polygon class="Wall" points="666.073,871.058 712.42,871.058 712.42,856.058 666.073,856.058 " fill="rgb(0,0,0)" stroke-width="1" stroke="rgb(0,0,0)" />
	<polygon class="Wall" points="401.776,857.483 359.766,857.483 344.766,872.483 401.776,872.483 " fill="rgb(0,0,0)" stroke-width="1" stroke="rgb(0,0,0)" />
	<polygon class="Wall" points="359.766,857.483 359.766,552.684 344.766,537.684 344.766,872.483 " fill="rgb(0,0,0)" stroke-width="1" stroke="rgb(0,0,0)" />
	<polygon class="Wall" points="359.766,552.684 673.573,552.684 658.573,537.684 344.766,537.684 " fill="rgb(0,0,0)" stroke-width="1" stroke="rgb(0,0,0)" />
	<polygon class="Wall" points="658.573,510.859 658.573,537.684 673.573,552.684 673.573,510.859 " fill="rgb(0,0,0)" stroke-width="1" stroke="rgb(0,0,0)" />
	<polygon class="Wall" points="132.5,537.684 132.5,416.29 117.5,401.29 117.5,552.684 " fill="rgb(0,0,0)" stroke-width="1" stroke="rgb(0,0,0)" />
	<polygon class="Wall" points="132.5,416.29 254.253,416.29 239.253,401.29 117.5,401.29 " fill="rgb(0,0,0)" stroke-width="1" stroke="rgb(0,0,0)" />
	<polygon class="Wall" points="254.253,416.29 254.253,132.5 239.253,117.5 239.253,401.29 " fill="rgb(0,0,0)" stroke-width="1" stroke="rgb(0,0,0)" />
	<polygon class="Wall" points="239.253,408.79 239.253,435.809 254.253,435.809 254.253,408.79 " fill="rgb(0,0,0)" stroke-width="1" stroke="rgb(0,0,0)" />
	<polygon class="Wall" points="239.253,510.859 239.253,552.684 254.253,537.684 254.253,510.859 " fill="rgb(0,0,0)" stroke-width="1" stroke="rgb(0,0,0)" />
	<polygon class="Wall" points="352.266,537.684 254.253,537.684 239.253,552.684 352.266,552.684 " fill="rgb(0,0,0)" stroke-width="1" stroke="rgb(0,0,0)" />
	<polygon class="Wall" points="246.753,537.684 132.5,537.684 117.5,552.684 246.753,552.684 " fill="rgb(0,0,0)" stroke-width="1" stroke="rgb(0,0,0)" />
	<polygon class="Wall" points="254.253,132.5 575.908,132.5 590.908,117.5 239.253,117.5 " fill="rgb(0,0,0)" stroke-width="1" stroke="rgb(0,0,0)" />
	<polygon class="Wall" points="575.908,132.5 575.908,214.486 590.908,214.486 590.908,117.5 " fill="rgb(0,0,0)" stroke-width="1" stroke="rgb(0,0,0)" />
	<polygon class="Wall" points="873.268,221.986 873.268,376.276 888.268,391.276 888.268,206.986 " fill="rgb(0,0,0)" stroke-width="1" stroke="rgb(0,0,0)" />
	<polygon class="Wall" points="822.366,391.276 888.268,391.276 873.268,376.276 822.366,376.276 " fill="rgb(0,0,0)" stroke-width="1" stroke="rgb(0,0,0)" />
	<polygon class="Wall" points="880.768,391.276 884.24,391.276 899.24,376.276 880.768,376.276 " fill="rgb(0,0,0)" stroke-width="1" stroke="rgb(0,0,0)" />
	<polygon class="Wall" points="888.268,206.986 575.908,206.986 590.908,221.986 873.268,221.986 " fill="rgb(0,0,0)" stroke-width="1" stroke="rgb(0,0,0)" />
	<polygon class="Wall" points="886.398,221.986 886.398,376.276 901.398,391.276 901.398,206.986 " fill="rgb(0,0,0)" stroke-width="1" stroke="rgb(0,0,0)" />
	<polygon class="Wall" points="891.74,391.276 901.398,391.276 886.398,376.276 891.74,376.276 " fill="rgb(0,0,0)" stroke-width="1" stroke="rgb(0,0,0)" />
	<polygon class="Wall" points="893.898,391.276 909.931,391.276 894.931,376.276 893.898,376.276 " fill="rgb(0,0,0)" stroke-width="1" stroke="rgb(0,0,0)" />
	<polygon class="Wall" points="901.398,206.986 880.768,206.986 880.768,221.986 886.398,221.986 " fill="rgb(0,0,0)" stroke-width="1" stroke="rgb(0,0,0)" />
	<polygon class="Wall" points="894.931,221.986 894.931,376.276 909.931,391.276 909.931,206.986 " fill="rgb(0,0,0)" stroke-width="1" stroke="rgb(0,0,0)" />
	<polygon class="Wall" points="909.931,206.986 893.898,206.986 893.898,221.986 894.931,221.986 " fill="rgb(0,0,0)" stroke-width="1" stroke="rgb(0,0,0)" />
	<polygon class="Wall" points="904.713,221.986 904.713,391.276 919.713,376.276 919.713,206.986 " fill="rgb(0,0,0)" stroke-width="1" stroke="rgb(0,0,0)" />
	<polygon class="Wall" points="919.713,206.986 902.431,206.986 902.431,221.986 904.713,221.986 " fill="rgb(0,0,0)" stroke-width="1" stroke="rgb(0,0,0)" />
	<polygon class="Wall" points="915.346,221.986 915.346,391.276 930.346,376.276 930.346,206.986 " fill="rgb(0,0,0)" stroke-width="1" stroke="rgb(0,0,0)" />
	<polygon class="Wall" points="930.346,206.986 912.213,206.986 912.213,221.986 915.346,221.986 " fill="rgb(0,0,0)" stroke-width="1" stroke="rgb(0,0,0)" />
	<polygon class="Wall" points="940.553,376.276 940.553,221.986 925.553,206.986 925.553,391.276 " fill="rgb(0,0,0)" stroke-width="1" stroke="rgb(0,0,0)" />
	<polygon class="Wall" points="948.803,206.986 925.553,206.986 940.553,221.986 933.803,221.986 " fill="rgb(0,0,0)" stroke-width="1" stroke="rgb(0,0,0)" />
	<polygon class="Wall" points="933.053,206.986 922.846,206.986 922.846,221.986 933.053,221.986 " fill="rgb(0,0,0)" stroke-width="1" stroke="rgb(0,0,0)" />
	<polygon class="Wall" points="941.303,221.986 1071.52,221.986 1056.52,206.986 941.303,206.986 " fill="rgb(0,0,0)" stroke-width="1" stroke="rgb(0,0,0)" />
	<polygon class="Wall" points="1071.52,221.986 1071.52,166.142 1056.52,151.142 1056.52,206.986 " fill="rgb(0,0,0)" stroke-width="1" stroke="rgb(0,0,0)" />
	<polygon class="Wall" points="1071.52,166.142 1287.04,166.142 1302.04,151.142 1056.52,151.142 " fill="rgb(0,0,0)" stroke-width="1" stroke="rgb(0,0,0)" />
	<polygon class="Wall" points="1287.04,166.142 1287.04,331.121 1302.04,331.121 1302.04,151.142 " fill="rgb(0,0,0)" stroke-width="1" stroke="rgb(0,0,0)" />
	<polygon class="Wall" points="948.803,235.193 1017.38,235.193 1017.38,220.193 933.803,220.193 " fill="rgb(0,0,0)" stroke-width="1" stroke="rgb(0,0,0)" />
	<polygon class="Wall" points="948.803,383.776 948.803,235.193 933.803,220.193 933.803,383.776 " fill="rgb(0,0,0)" stroke-width="1" stroke="rgb(0,0,0)" />
	<polygon class="Wall" points="948.803,227.693 948.803,206.986 933.803,221.986 933.803,227.693 " fill="rgb(0,0,0)" stroke-width="1" stroke="rgb(0,0,0)" />
	<polygon class="Wall" points="819.973,814.514 1013.95,814.514 998.954,799.514 834.973,799.514 " fill="rgb(0,0,0)" stroke-width="1" stroke="rgb(0,0,0)" />
	<polygon class="Wall" points="1013.95,814.514 1013.95,788.74 998.954,803.74 998.954,799.514 " fill="rgb(0,0,0)" stroke-width="1" stroke="rgb(0,0,0)" />
	<polygon class="Wall" points="819.973,788.74 819.973,814.514 834.973,799.514 834.973,803.74 " fill="rgb(0,0,0)" stroke-width="1" stroke="rgb(0,0,0)" />
	<polygon class="Wall" points="819.973,825.615 1013.95,825.615 998.954,810.615 834.973,810.615 " fill="rgb(0,0,0)" stroke-width="1" stroke="rgb(0,0,0)" />
	<polygon class="Wall" points="1013.95,825.615 1013.95,807.014 998.954,807.014 998.954,810.615 " fill="rgb(0,0,0)" stroke-width="1" stroke="rgb(0,0,0)" />
	<polygon class="Wall" points="819.973,807.014 819.973,825.615 834.973,810.615 834.973,807.014 " fill="rgb(0,0,0)" stroke-width="1" stroke="rgb(0,0,0)" />
	<polygon class="Wall" points="819.973,837.539 1013.95,837.539 998.954,822.539 834.973,822.539 " fill="rgb(0,0,0)" stroke-width="1" stroke="rgb(0,0,0)" />
	<polygon class="Wall" points="1013.95,837.539 1013.95,818.115 998.954,818.115 998.954,822.539 " fill="rgb(0,0,0)" stroke-width="1" stroke="rgb(0,0,0)" />
	<polygon class="Wall" points="819.973,818.115 819.973,837.539 834.973,822.539 834.973,818.115 " fill="rgb(0,0,0)" stroke-width="1" stroke="rgb(0,0,0)" />
	<polygon class="Wall" points="819.973,847.818 1013.95,847.818 998.954,832.818 834.973,832.818 " fill="rgb(0,0,0)" stroke-width="1" stroke="rgb(0,0,0)" />
	<polygon class="Wall" points="1013.95,847.818 1013.95,830.039 998.954,830.039 998.954,832.818 " fill="rgb(0,0,0)" stroke-width="1" stroke="rgb(0,0,0)" />
	<polygon class="Wall" points="819.973,830.039 819.973,847.818 834.973,832.818 834.973,830.039 " fill="rgb(0,0,0)" stroke-width="1" stroke="rgb(0,0,0)" />
	<polygon class="Wall" points="819.973,858.098 998.954,858.098 1013.95,843.098 834.973,843.098 " fill="rgb(0,0,0)" stroke-width="1" stroke="rgb(0,0,0)" />
	<polygon class="Wall" points="1013.95,871.058 1013.95,843.098 998.954,858.098 998.954,856.058 " fill="rgb(0,0,0)" stroke-width="1" stroke="rgb(0,0,0)" />
	<polygon class="Wall" points="1013.95,850.598 1013.95,840.318 998.954,840.318 998.954,850.598 " fill="rgb(0,0,0)" stroke-width="1" stroke="rgb(0,0,0)" />
	<polygon class="Wall" points="819.973,840.318 819.973,858.098 834.973,843.098 834.973,840.318 " fill="rgb(0,0,0)" stroke-width="1" stroke="rgb(0,0,0)" />
	<polygon class="Wall" points="819.973,850.598 819.973,871.058 834.973,856.058 834.973,850.598 " fill="rgb(0,0,0)" stroke-width="1" stroke="rgb(0,0,0)" />
	<polygon class="Wall" points="834.973,778.323 918.021,778.323 933.021,763.323 819.973,763.323 " fill="rgb(0,0,0)" stroke-width="1" stroke="rgb(0,0,0)" />
	<polygon class="Wall" points="1013.95,788.74 933.021,788.74 918.021,803.74 998.954,803.74 " fill="rgb(0,0,0)" stroke-width="1" stroke="rgb(0,0,0)" />
	<polygon class="Wall" points="925.521,788.74 819.973,788.74 834.973,803.74 925.521,803.74 " fill="rgb(0,0,0)" stroke-width="1" stroke="rgb(0,0,0)" />
	<polygon class="Wall" points="834.973,790.02 933.021,790.02 918.021,775.02 819.973,775.02 " fill="rgb(0,0,0)" stroke-width="1" stroke="rgb(0,0,0)" />
	<polygon class="Wall" points="834.973,790.409 834.973,790.02 819.973,775.02 819.973,790.409 " fill="rgb(0,0,0)" stroke-width="1" stroke="rgb(0,0,0)" />
	<polygon class="Wall" points="834.973,782.52 834.973,778.323 819.973,763.323 819.973,782.52 " fill="rgb(0,0,0)" stroke-width="1" stroke="rgb(0,0,0)" />
	<polygon class="Wall" points="918.021,778.323 918.021,775.02 933.021,790.02 933.021,763.323 " fill="rgb(0,0,0)" stroke-width="1" stroke="rgb(0,0,0)" />
	<polygon class="Wall" points="918.021,782.52 918.021,803.74 933.021,788.74 933.021,782.52 " fill="rgb(0,0,0)" stroke-width="1" stroke="rgb(0,0,0)" />
	<polygon class="Wall" points="931.318,871.058 1013.95,871.058 998.954,856.058 916.318,856.058 " fill="rgb(0,0,0)" stroke-width="1" stroke="rgb(0,0,0)" />
	<polygon class="Wall" points="819.973,871.058 884.362,871.058 899.362,856.058 834.973,856.058 " fill="rgb(0,0,0)" stroke-width="1" stroke="rgb(0,0,0)" />
	<polygon class="Wall" points="911.215,1547.2 911.215,856.058 896.215,871.058 896.215,1532.2 " fill="rgb(0,0,0)" stroke-width="1" stroke="rgb(0,0,0)" />
	<polygon class="Wall" points="884.362,1547.2 911.215,1547.2 896.215,1532.2 899.362,1532.2 " fill="rgb(0,0,0)" stroke-width="1" stroke="rgb(0,0,0)" />
	<polygon class="Wall" points="921.46,1547.2 921.46,872.623 906.46,870.106 906.46,1532.2 " fill="rgb(0,0,0)" stroke-width="1" stroke="rgb(0,0,0)" />
	<polygon class="Wall" points="903.715,1547.2 921.46,1547.2 906.46,1532.2 903.715,1532.2 " fill="rgb(0,0,0)" stroke-width="1" stroke="rgb(0,0,0)" />
	<polygon class="Wall" points="913.96,1547.2 931.318,1547.2 916.318,1532.2 913.96,1532.2 " fill="rgb(0,0,0)" stroke-width="1" stroke="rgb(0,0,0)" />
	<polygon class="Wall" points="891.862,871.058 896.215,871.058 911.215,856.058 891.862,856.058 " fill="rgb(0,0,0)" stroke-width="1" stroke="rgb(0,0,0)" />
	<polygon class="Wall" points="903.715,871.058 923.818,871.058 923.818,856.058 903.715,856.058 " fill="rgb(0,0,0)" stroke-width="1" stroke="rgb(0,0,0)" />
	<polygon class="Wall" points="921.46,872.623 922.408,869.879 908.229,864.982 906.46,870.106 " fill="rgb(0,0,0)" stroke-width="1" stroke="rgb(0,0,0)" />
	<polygon class="Wall" points="810.533,871.058 810.533,884.2 825.533,884.2 825.533,856.058 " fill="rgb(0,0,0)" stroke-width="1" stroke="rgb(0,0,0)" />
	<polygon class="Wall" points="785.36,871.058 810.533,871.058 825.533,856.058 785.36,856.058 " fill="rgb(0,0,0)" stroke-width="1" stroke="rgb(0,0,0)" />
	<polygon class="Wall" points="818.033,871.058 827.473,871.058 827.473,856.058 818.033,856.058 " fill="rgb(0,0,0)" stroke-width="1" stroke="rgb(0,0,0)" />
	<polygon class="Wall" points="810.533,1019.71 810.533,1048.09 825.533,1033.09 825.533,1019.71 " fill="rgb(0,0,0)" stroke-width="1" stroke="rgb(0,0,0)" />
	<polygon class="Wall" points="810.533,1048.09 899.362,1048.09 884.362,1033.09 825.533,1033.09 " fill="rgb(0,0,0)" stroke-width="1" stroke="rgb(0,0,0)" />
	<polygon class="Wall" points="884.362,871.058 884.362,1033.09 899.362,1048.09 899.362,856.058 " fill="rgb(0,0,0)" stroke-width="1" stroke="rgb(0,0,0)" />
	<polygon class="Wall" points="825.881,1347.76 899.362,1347.76 884.362,1332.76 810.881,1332.76 " fill="rgb(0,0,0)" stroke-width="1" stroke="rgb(0,0,0)" />
	<polygon class="Wall" points="884.362,1040.59 884.362,1332.76 899.362,1347.76 899.362,1040.59 " fill="rgb(0,0,0)" stroke-width="1" stroke="rgb(0,0,0)" />
	<polygon class="Wall" points="884.362,1340.26 884.362,1469.16 899.362,1484.16 899.362,1340.26 " fill="rgb(0,0,0)" stroke-width="1" stroke="rgb(0,0,0)" />
	<polygon class="Wall" points="884.362,1476.66 884.362,1547.2 899.362,1532.2 899.362,1476.66 " fill="rgb(0,0,0)" stroke-width="1" stroke="rgb(0,0,0)" />
	<polygon class="Wall" points="810.881,1332.76 810.881,1358.08 825.881,1358.08 825.881,1347.76 " fill="rgb(0,0,0)" stroke-width="1" stroke="rgb(0,0,0)" />
	<polygon class="Wall" points="810.881,1456.72 810.881,1484.16 825.881,1469.16 825.881,1456.72 " fill="rgb(0,0,0)" stroke-width="1" stroke="rgb(0,0,0)" />
	<polygon class="Wall" points="810.881,1483.13 769.322,1483.13 784.322,1498.13 825.881,1498.13 " fill="rgb(0,0,0)" stroke-width="1" stroke="rgb(0,0,0)" />
	<polygon class="Wall" points="810.881,1476.66 810.881,1483.13 825.881,1498.13 825.881,1476.66 " fill="rgb(0,0,0)" stroke-width="1" stroke="rgb(0,0,0)" />
	<polygon class="Wall" points="394.276,1547.2 784.322,1547.2 769.322,1532.2 409.276,1532.2 " fill="rgb(0,0,0)" stroke-width="1" stroke="rgb(0,0,0)" />
	<polygon class="Wall" points="776.822,1547.2 825.881,1547.2 810.881,1532.2 776.822,1532.2 " fill="rgb(0,0,0)" stroke-width="1" stroke="rgb(0,0,0)" />
	<polygon class="Wall" points="769.322,1508.9 825.881,1508.9 810.881,1493.9 784.322,1493.9 " fill="rgb(0,0,0)" stroke-width="1" stroke="rgb(0,0,0)" />
	<polygon class="Wall" points="810.881,1490.63 810.881,1493.9 825.881,1508.9 825.881,1490.63 " fill="rgb(0,0,0)" stroke-width="1" stroke="rgb(0,0,0)" />
	<polygon class="Wall" points="769.322,1483.13 769.322,1508.9 784.322,1493.9 784.322,1498.13 " fill="rgb(0,0,0)" stroke-width="1" stroke="rgb(0,0,0)" />
	<polygon class="Wall" points="769.322,1516.8 825.881,1516.8 810.881,1501.8 784.322,1501.8 " fill="rgb(0,0,0)" stroke-width="1" stroke="rgb(0,0,0)" />
	<polygon class="Wall" points="810.881,1501.4 810.881,1501.8 825.881,1516.8 825.881,1501.4 " fill="rgb(0,0,0)" stroke-width="1" stroke="rgb(0,0,0)" />
	<polygon class="Wall" points="769.322,1501.4 769.322,1516.8 784.322,1501.8 784.322,1501.4 " fill="rgb(0,0,0)" stroke-width="1" stroke="rgb(0,0,0)" />
	<polygon class="Wall" points="769.322,1525.78 825.881,1525.78 810.881,1510.78 784.322,1510.78 " fill="rgb(0,0,0)" stroke-width="1" stroke="rgb(0,0,0)" />
	<polygon class="Wall" points="810.881,1509.3 810.881,1510.78 825.881,1525.78 825.881,1509.3 " fill="rgb(0,0,0)" stroke-width="1" stroke="rgb(0,0,0)" />
	<polygon class="Wall" points="769.322,1509.3 769.322,1525.78 784.322,1510.78 784.322,1509.3 " fill="rgb(0,0,0)" stroke-width="1" stroke="rgb(0,0,0)" />
	<polygon class="Wall" points="769.322,1536.2 825.881,1536.2 810.881,1521.2 784.322,1521.2 " fill="rgb(0,0,0)" stroke-width="1" stroke="rgb(0,0,0)" />
	<polygon class="Wall" points="810.881,1518.28 810.881,1521.2 825.881,1536.2 825.881,1518.28 " fill="rgb(0,0,0)" stroke-width="1" stroke="rgb(0,0,0)" />
	<polygon class="Wall" points="810.881,1528.7 810.881,1532.2 825.881,1547.2 825.881,1528.7 " fill="rgb(0,0,0)" stroke-width="1" stroke="rgb(0,0,0)" />
	<polygon class="Wall" points="769.322,1518.28 769.322,1536.2 784.322,1521.2 784.322,1518.28 " fill="rgb(0,0,0)" stroke-width="1" stroke="rgb(0,0,0)" />
	<polygon class="Wall" points="769.322,1528.7 769.322,1532.2 784.322,1547.2 784.322,1528.7 " fill="rgb(0,0,0)" stroke-width="1" stroke="rgb(0,0,0)" />
	<polygon class="Wall" points="821.473,1484.16 821.473,1532.2 836.473,1547.2 836.473,1469.16 " fill="rgb(0,0,0)" stroke-width="1" stroke="rgb(0,0,0)" />
	<polygon class="Wall" points="818.381,1547.2 836.473,1547.2 821.473,1532.2 818.381,1532.2 " fill="rgb(0,0,0)" stroke-width="1" stroke="rgb(0,0,0)" />
	<polygon class="Wall" points="810.881,1484.16 821.473,1484.16 836.473,1469.16 825.881,1469.16 " fill="rgb(0,0,0)" stroke-width="1" stroke="rgb(0,0,0)" />
	<polygon class="Wall" points="832.608,1484.16 832.608,1532.2 847.608,1547.2 847.608,1469.16 " fill="rgb(0,0,0)" stroke-width="1" stroke="rgb(0,0,0)" />
	<polygon class="Wall" points="828.973,1547.2 847.608,1547.2 832.608,1532.2 828.973,1532.2 " fill="rgb(0,0,0)" stroke-width="1" stroke="rgb(0,0,0)" />
	<polygon class="Wall" points="828.973,1484.16 832.608,1484.16 847.608,1469.16 828.973,1469.16 " fill="rgb(0,0,0)" stroke-width="1" stroke="rgb(0,0,0)" />
	<polygon class="Wall" points="843.384,1484.16 843.384,1532.2 858.384,1547.2 858.384,1469.16 " fill="rgb(0,0,0)" stroke-width="1" stroke="rgb(0,0,0)" />
	<polygon class="Wall" points="840.108,1547.2 858.384,1547.2 843.384,1532.2 840.108,1532.2 " fill="rgb(0,0,0)" stroke-width="1" stroke="rgb(0,0,0)" />
	<polygon class="Wall" points="840.108,1484.16 843.384,1484.16 858.384,1469.16 840.108,1469.16 " fill="rgb(0,0,0)" stroke-width="1" stroke="rgb(0,0,0)" />
	<polygon class="Wall" points="854.159,1484.16 854.159,1532.2 869.159,1547.2 869.159,1469.16 " fill="rgb(0,0,0)" stroke-width="1" stroke="rgb(0,0,0)" />
	<polygon class="Wall" points="850.884,1547.2 869.159,1547.2 854.159,1532.2 850.884,1532.2 " fill="rgb(0,0,0)" stroke-width="1" stroke="rgb(0,0,0)" />
	<polygon class="Wall" points="850.884,1484.16 854.159,1484.16 869.159,1469.16 850.884,1469.16 " fill="rgb(0,0,0)" stroke-width="1" stroke="rgb(0,0,0)" />
	<polygon class="Wall" points="863.858,1484.16 863.858,1532.2 878.858,1547.2 878.858,1469.16 " fill="rgb(0,0,0)" stroke-width="1" stroke="rgb(0,0,0)" />
	<polygon class="Wall" points="861.659,1547.2 878.858,1547.2 863.858,1532.2 861.659,1532.2 " fill="rgb(0,0,0)" stroke-width="1" stroke="rgb(0,0,0)" />
	<polygon class="Wall" points="861.659,1484.16 863.858,1484.16 878.858,1469.16 861.659,1469.16 " fill="rgb(0,0,0)" stroke-width="1" stroke="rgb(0,0,0)" />
	<polygon class="Wall" points="873.556,1484.16 873.556,1532.2 888.556,1547.2 888.556,1469.16 " fill="rgb(0,0,0)" stroke-width="1" stroke="rgb(0,0,0)" />
	<polygon class="Wall" points="871.358,1547.2 888.556,1547.2 873.556,1532.2 871.358,1532.2 " fill="rgb(0,0,0)" stroke-width="1" stroke="rgb(0,0,0)" />
	<polygon class="Wall" points="881.056,1547.2 891.862,1547.2 891.862,1532.2 881.056,1532.2 " fill="rgb(0,0,0)" stroke-width="1" stroke="rgb(0,0,0)" />
	<polygon class="Wall" points="871.358,1484.16 873.556,1484.16 888.556,1469.16 871.358,1469.16 " fill="rgb(0,0,0)" stroke-width="1" stroke="rgb(0,0,0)" />
	<polygon class="Wall" points="881.056,1484.16 899.362,1484.16 884.362,1469.16 881.056,1469.16 " fill="rgb(0,0,0)" stroke-width="1" stroke="rgb(0,0,0)" />
	<polygon class="Wall" points="916.318,1464.22 1082.68,1464.22 1097.68,1449.22 931.318,1449.22 " fill="rgb(0,0,0)" stroke-width="1" stroke="rgb(0,0,0)" />
	<polygon class="Wall" points="916.318,856.058 916.318,1464.22 931.318,1449.22 931.318,871.058 " fill="rgb(0,0,0)" stroke-width="1" stroke="rgb(0,0,0)" />
	<polygon class="Wall" points="923.818,1547.2 1097.68,1547.2 1082.68,1532.2 923.818,1532.2 " fill="rgb(0,0,0)" stroke-width="1" stroke="rgb(0,0,0)" />
	<polygon class="Wall" points="1090.18,1547.2 1492.99,1547.2 1477.99,1532.2 1090.18,1532.2 " fill="rgb(0,0,0)" stroke-width="1" stroke="rgb(0,0,0)" />
	<polygon class="Wall" points="916.318,1473.88 1097.68,1473.88 1082.68,1458.88 931.318,1458.88 " fill="rgb(0,0,0)" stroke-width="1" stroke="rgb(0,0,0)" />
	<polygon class="Wall" points="916.318,1456.72 916.318,1473.88 931.318,1458.88 931.318,1456.72 " fill="rgb(0,0,0)" stroke-width="1" stroke="rgb(0,0,0)" />
	<polygon class="Wall" points="916.318,1484.16 1082.68,1484.16 1097.68,1469.16 931.318,1469.16 " fill="rgb(0,0,0)" stroke-width="1" stroke="rgb(0,0,0)" />
	<polygon class="Wall" points="916.318,1466.38 916.318,1484.16 931.318,1469.16 931.318,1466.38 " fill="rgb(0,0,0)" stroke-width="1" stroke="rgb(0,0,0)" />
	<polygon class="Wall" points="916.318,1497.25 1082.68,1497.25 1097.68,1482.25 931.318,1482.25 " fill="rgb(0,0,0)" stroke-width="1" stroke="rgb(0,0,0)" />
	<polygon class="Wall" points="916.318,1476.66 916.318,1497.25 931.318,1482.25 931.318,1476.66 " fill="rgb(0,0,0)" stroke-width="1" stroke="rgb(0,0,0)" />
	<polygon class="Wall" points="916.318,1510.93 1082.68,1510.93 1097.68,1495.93 931.318,1495.93 " fill="rgb(0,0,0)" stroke-width="1" stroke="rgb(0,0,0)" />
	<polygon class="Wall" points="916.318,1489.75 916.318,1510.93 931.318,1495.93 931.318,1489.75 " fill="rgb(0,0,0)" stroke-width="1" stroke="rgb(0,0,0)" />
	<polygon class="Wall" points="916.318,1521.77 1082.68,1521.77 1097.68,1506.77 931.318,1506.77 " fill="rgb(0,0,0)" stroke-width="1" stroke="rgb(0,0,0)" />
	<polygon class="Wall" points="916.318,1503.43 916.318,1521.77 931.318,1506.77 931.318,1503.43 " fill="rgb(0,0,0)" stroke-width="1" stroke="rgb(0,0,0)" />
	<polygon class="Wall" points="916.318,1534.45 1082.68,1534.45 1097.68,1519.45 931.318,1519.45 " fill="rgb(0,0,0)" stroke-width="1" stroke="rgb(0,0,0)" />
	<polygon class="Wall" points="916.318,1514.27 916.318,1534.45 931.318,1519.45 931.318,1514.27 " fill="rgb(0,0,0)" stroke-width="1" stroke="rgb(0,0,0)" />
	<polygon class="Wall" points="916.318,1526.95 916.318,1532.2 931.318,1547.2 931.318,1526.95 " fill="rgb(0,0,0)" stroke-width="1" stroke="rgb(0,0,0)" />
	<polygon class="Wall" points="1082.68,1534.45 1082.68,1532.2 1097.68,1547.2 1097.68,1519.45 " fill="rgb(0,0,0)" stroke-width="1" stroke="rgb(0,0,0)" />
	<polygon class="Wall" points="1082.68,1521.77 1082.68,1526.95 1097.68,1526.95 1097.68,1506.77 " fill="rgb(0,0,0)" stroke-width="1" stroke="rgb(0,0,0)" />
	<polygon class="Wall" points="1082.68,1510.93 1082.68,1514.27 1097.68,1514.27 1097.68,1495.93 " fill="rgb(0,0,0)" stroke-width="1" stroke="rgb(0,0,0)" />
	<polygon class="Wall" points="1082.68,1497.25 1082.68,1503.43 1097.68,1503.43 1097.68,1482.25 " fill="rgb(0,0,0)" stroke-width="1" stroke="rgb(0,0,0)" />
	<polygon class="Wall" points="1082.68,1484.16 1082.68,1489.75 1097.68,1489.75 1097.68,1469.16 " fill="rgb(0,0,0)" stroke-width="1" stroke="rgb(0,0,0)" />
	<polygon class="Wall" points="1082.68,1464.22 1082.68,1458.88 1097.68,1473.88 1097.68,1449.22 " fill="rgb(0,0,0)" stroke-width="1" stroke="rgb(0,0,0)" />
	<polygon class="Wall" points="1082.68,1466.38 1082.68,1476.66 1097.68,1476.66 1097.68,1466.38 " fill="rgb(0,0,0)" stroke-width="1" stroke="rgb(0,0,0)" />
	<polygon class="Wall" points="550.917,653.185 673.573,653.185 658.573,638.185 550.917,638.185 " fill="rgb(0,0,0)" stroke-width="1" stroke="rgb(0,0,0)" />
	<polygon class="Wall" points="658.573,545.184 658.573,638.185 673.573,653.185 673.573,545.184 " fill="rgb(0,0,0)" stroke-width="1" stroke="rgb(0,0,0)" />
	<polygon class="Wall" points="658.573,645.685 658.573,856.058 673.573,871.058 673.573,645.685 " fill="rgb(0,0,0)" stroke-width="1" stroke="rgb(0,0,0)" />
	<g class="Door SingleSwingLeft" >	<path d = "M1344.11, 331.121 q-0,90 90,90 l0,-90" fill="none" stroke-width="1.5" stroke="rgb(0,0,0)" />
	<line x1="1434.11" y1="331.121" x2="1344.11" y2="331.121" stroke-width="14.9" stroke="rgb(255,255,255)" />
</g>
	<g class="Window" >	<line x1="634.399" y1="1539.7" x2="760.399" y2="1539.7" stroke-width="12.5" stroke="rgb(240,240,255)" />
	<line x1="641.899" y1="1539.7" x2="752.899" y2="1539.7" stroke-width="1.5" stroke="rgb(0,0,0)" />
	<line x1="641.899" y1="1532.2" x2="641.899" y2="1547.2" stroke-width="1.5" stroke="rgb(0,0,0)" />
	<line x1="752.899" y1="1532.2" x2="752.899" y2="1547.2" stroke-width="1.5" stroke="rgb(0,0,0)" />
</g>
	<g class="Window" >	<line x1="424.899" y1="1539.7" x2="625.899" y2="1539.7" stroke-width="12.5" stroke="rgb(240,240,255)" />
	<line x1="432.399" y1="1539.7" x2="618.399" y2="1539.7" stroke-width="1.5" stroke="rgb(0,0,0)" />
	<line x1="432.399" y1="1532.2" x2="432.399" y2="1547.2" stroke-width="1.5" stroke="rgb(0,0,0)" />
	<line x1="618.399" y1="1532.2" x2="618.399" y2="1547.2" stroke-width="1.5" stroke="rgb(0,0,0)" />
</g>
	<g class="Window" >	<line x1="1190.87" y1="1539.7" x2="1290.87" y2="1539.7" stroke-width="12.5" stroke="rgb(240,240,255)" />
	<line x1="1198.37" y1="1539.7" x2="1283.37" y2="1539.7" stroke-width="1.5" stroke="rgb(0,0,0)" />
	<line x1="1198.37" y1="1532.2" x2="1198.37" y2="1547.2" stroke-width="1.5" stroke="rgb(0,0,0)" />
	<line x1="1283.37" y1="1532.2" x2="1283.37" y2="1547.2" stroke-width="1.5" stroke="rgb(0,0,0)" />
</g>
	<g class="Window" >	<line x1="1299.82" y1="1539.7" x2="1399.82" y2="1539.7" stroke-width="12.5" stroke="rgb(240,240,255)" />
	<line x1="1307.32" y1="1539.7" x2="1392.32" y2="1539.7" stroke-width="1.5" stroke="rgb(0,0,0)" />
	<line x1="1307.32" y1="1532.2" x2="1307.32" y2="1547.2" stroke-width="1.5" stroke="rgb(0,0,0)" />
	<line x1="1392.32" y1="1532.2" x2="1392.32" y2="1547.2" stroke-width="1.5" stroke="rgb(0,0,0)" />
</g>
</g>
</svg>
