<svg id="Layer_1" data-name="Layer 1" xmlns="http://www.w3.org/2000/svg" viewBox="0 0 360.82 48.91">
  <title>cubicasa logo dark</title>
  <g>
    <polygon points="273.51 46.02 245 2.39 243.44 0 241.91 2.4 214.06 46.04 212.26 48.87 215.61 48.87 224.71 48.87 225.73 48.87 226.27 48.01 243.87 19.92 262.09 48.03 262.64 48.87 263.63 48.87 271.97 48.87 275.37 48.87 273.51 46.02" fill="#b4d670"/>
    <path d="M96.58,408.88l5.69,8.44-0.78.54a2.33,2.33,0,0,0-1.38-.78,10.63,10.63,0,0,0-3,1.44,41.94,41.94,0,0,1-8.66,4,29.73,29.73,0,0,1-8.36,1q-9.66,0-15.85-4.57a19.23,19.23,0,0,1-5.74-6.6,20.66,20.66,0,0,1-2.42-9.94,20.09,20.09,0,0,1,4.34-12.87q6.52-8.21,19.71-8.21a29.75,29.75,0,0,1,8.32,1,42.27,42.27,0,0,1,8.68,4,10.68,10.68,0,0,0,3,1.41,2.33,2.33,0,0,0,1.38-.78l0.78,0.54-5.69,8.53-0.81-.54a6.7,6.7,0,0,0,.06-0.81,2.32,2.32,0,0,0-.75-1.64,12.65,12.65,0,0,0-2.66-1.85,22.43,22.43,0,0,0-11.22-3q-7,0-11.16,3.5a14.12,14.12,0,0,0,0,21.4q4.16,3.5,11.16,3.5a22.49,22.49,0,0,0,11.22-3,12.66,12.66,0,0,0,2.66-1.84,2.31,2.31,0,0,0,.75-1.63,6,6,0,0,0-.06-0.78Z" transform="translate(-56.05 -374.68)" fill="#595c5f"/>
    <path d="M150,385.19v22.88q0,6.49-2.4,9.72-4.31,5.8-17.81,5.8-9.76,0-14.94-3.14a9.59,9.59,0,0,1-4.19-5,21.62,21.62,0,0,1-1.14-7.42V385.19a2.06,2.06,0,0,0-.43-1.41,3.14,3.14,0,0,0-1.53-.78v-0.92H120.4V383a3,3,0,0,0-1.52.76,2.08,2.08,0,0,0-.43,1.42v20.39a25.48,25.48,0,0,0,.39,5.23,6,6,0,0,0,1.47,2.83q2.87,3.06,9.81,3.05t9.84-3.05a6.11,6.11,0,0,0,1.44-2.83,25.51,25.51,0,0,0,.39-5.23V385.19a2.06,2.06,0,0,0-.43-1.41,3.17,3.17,0,0,0-1.53-.78v-0.92h12.07V383a3.13,3.13,0,0,0-1.53.78A2,2,0,0,0,150,385.19Z" transform="translate(-56.05 -374.68)" fill="#595c5f"/>
    <path d="M194.72,401.52q6.91,2.6,6.91,9.63a10.55,10.55,0,0,1-4,8.76,13,13,0,0,1-4.72,2.29,26.69,26.69,0,0,1-6.64.7h-28V422a3.15,3.15,0,0,0,1.53-.78,2.06,2.06,0,0,0,.43-1.41v-34.6a2.06,2.06,0,0,0-.43-1.41,3.17,3.17,0,0,0-1.53-.78v-0.92H186a27.59,27.59,0,0,1,6.41.6,11.08,11.08,0,0,1,4.25,2q3.62,2.84,3.63,8.19A8.91,8.91,0,0,1,194.72,401.52Zm-25.51-3.23h15.64q3.56,0,5-1a4.29,4.29,0,0,0,1.58-3.68,4.18,4.18,0,0,0-1.5-3.63q-1.5-1.08-5.05-1.08H169.21v9.43Zm0,17.82h15.14q4.22,0,6.07-1.16a5.54,5.54,0,0,0,0-8.72q-1.83-1.16-6.07-1.16H169.21v11Z" transform="translate(-56.05 -374.68)" fill="#595c5f"/>
    <path d="M209.6,419.79V385.16a2,2,0,0,0-.43-1.38,3.17,3.17,0,0,0-1.53-.78v-0.92h12.88V383a2.9,2.9,0,0,0-1.53.76,2.06,2.06,0,0,0-.43,1.39v34.63a2.06,2.06,0,0,0,.44,1.42,3,3,0,0,0,1.51.76v0.92H207.64V422a3.16,3.16,0,0,0,1.53-.78A2.06,2.06,0,0,0,209.6,419.79Z" transform="translate(-56.05 -374.68)" fill="#595c5f"/>
    <path d="M267.32,408.88l5.68,8.44-0.78.54a2.32,2.32,0,0,0-1.38-.78,10.63,10.63,0,0,0-3,1.44,41.94,41.94,0,0,1-8.66,4,29.72,29.72,0,0,1-8.36,1q-9.66,0-15.86-4.57a19.24,19.24,0,0,1-5.74-6.6,20.66,20.66,0,0,1-2.42-9.94,20.09,20.09,0,0,1,4.34-12.87q6.52-8.21,19.71-8.21a29.75,29.75,0,0,1,8.32,1,42.27,42.27,0,0,1,8.67,4,10.7,10.7,0,0,0,3,1.41,2.33,2.33,0,0,0,1.38-.78L273,387.6l-5.68,8.53-0.81-.54a6.83,6.83,0,0,0,.06-0.81,2.32,2.32,0,0,0-.75-1.64,12.64,12.64,0,0,0-2.66-1.85,22.44,22.44,0,0,0-11.22-3q-7,0-11.16,3.5a14.12,14.12,0,0,0,0,21.4q4.16,3.5,11.16,3.5a22.49,22.49,0,0,0,11.22-3,12.63,12.63,0,0,0,2.66-1.84,2.3,2.3,0,0,0,.75-1.63,6.08,6.08,0,0,0-.06-0.78Z" transform="translate(-56.05 -374.68)" fill="#595c5f"/>
    <path d="M366,385.55l-4.88,9.6-0.84-.48c0-.2,0-0.36,0-0.48q0-1-1.74-2.18a21.34,21.34,0,0,0-12.51-3.71,18.36,18.36,0,0,0-5.59.78,6.69,6.69,0,0,0-2.86,1.79,3.79,3.79,0,0,0-1.09,2.6q0,2.3,2.78,3.14a43.24,43.24,0,0,0,6.17.9l4.7,0.48A38.84,38.84,0,0,1,357,399.2a16,16,0,0,1,4.6,2.18,10.26,10.26,0,0,1,3.22,3.85,11.36,11.36,0,0,1,1.18,5.1,11.6,11.6,0,0,1-2.79,7.64q-2.52,3-7.82,4.51a31.37,31.37,0,0,1-8.47,1.1,36.13,36.13,0,0,1-16-3.87,8.75,8.75,0,0,0-2-.77,2.54,2.54,0,0,0-1.23.65l-0.87-.45,4.44-10,0.87,0.42V410a3.29,3.29,0,0,0,1.29,2.48,16.37,16.37,0,0,0,6,3,26.34,26.34,0,0,0,7.74,1.26,15.78,15.78,0,0,0,6.8-1.34,6.6,6.6,0,0,0,2.49-2,4.21,4.21,0,0,0,.93-2.57,3,3,0,0,0-2.19-2.88,29.45,29.45,0,0,0-6.18-1.1l-4.62-.48a63,63,0,0,1-6.57-.92A16.89,16.89,0,0,1,334,404a10,10,0,0,1-4.29-4,10.86,10.86,0,0,1-1.41-5.57,11.31,11.31,0,0,1,3.57-8.57q4.67-4.46,14-4.47a32,32,0,0,1,7.3.79,55.87,55.87,0,0,1,8.44,2.91,9.19,9.19,0,0,0,2.13.69,2.47,2.47,0,0,0,1.47-.69Z" transform="translate(-56.05 -374.68)" fill="#595c5f"/>
    <path d="M400.34,412.55H381.78l-2.72,5.73a4.76,4.76,0,0,0-.57,1.88q0,1.32,2,1.82v0.92H367V422a3.61,3.61,0,0,0,1.83-.84,8.25,8.25,0,0,0,1.44-2.34l15.05-31.42A6,6,0,0,0,386,385a2.12,2.12,0,0,0-1.74-2v-0.92h14.5V383q-1.77.51-1.77,1.77a4.41,4.41,0,0,0,.57,2l15.56,31.51a10.65,10.65,0,0,0,1.74,2.74,3.78,3.78,0,0,0,2,1v0.92H401.75V422q2-.33,2-1.85a4.78,4.78,0,0,0-.6-1.85Zm-2.58-5.63-6.6-14.51-6.72,14.51h13.32Z" transform="translate(-56.05 -374.68)" fill="#595c5f"/>
  </g>
</svg>
