<svg id="Layer_1" data-name="Layer 1" xmlns="http://www.w3.org/2000/svg" viewBox="0 0 1123.52 48.17">
  <title>drawing-tool measure</title>
  <g>
    <rect x="0.41" y="0.67" width="134.94" height="23.41" fill="#222" stroke="#231f20" stroke-miterlimit="10" stroke-width="0.82"/>
    <rect x="0.41" y="24.08" width="41.07" height="23.41" fill="#222" stroke="#231f20" stroke-miterlimit="10" stroke-width="0.45"/>
    <rect x="41.48" y="24.08" width="41.07" height="23.41" fill="#fff" stroke="#000" stroke-miterlimit="10" stroke-width="1.35"/>
    <rect x="82.55" y="24.08" width="41.07" height="23.41" fill="#222" stroke="#231f20" stroke-miterlimit="10" stroke-width="0.45"/>
    <rect x="123.62" y="24.08" width="41.07" height="23.41" fill="#fff" stroke="#000" stroke-miterlimit="10" stroke-width="1.35"/>
    <rect x="164.69" y="24.08" width="41.07" height="23.41" fill="#222" stroke="#231f20" stroke-miterlimit="10" stroke-width="0.45"/>
    <rect x="205.76" y="24.08" width="41.07" height="23.41" fill="#fff" stroke="#000" stroke-miterlimit="10" stroke-width="1.35"/>
    <rect x="246.83" y="24.08" width="41.07" height="23.41" fill="#222" stroke="#231f20" stroke-miterlimit="10" stroke-width="0.45"/>
    <rect x="287.9" y="24.08" width="41.07" height="23.41" fill="#fff" stroke="#000" stroke-miterlimit="10" stroke-width="1.35"/>
    <rect x="328.97" y="24.08" width="41.07" height="23.41" fill="#222" stroke="#231f20" stroke-miterlimit="10" stroke-width="0.45"/>
    <rect x="370.04" y="24.08" width="41.07" height="23.41" fill="#fff" stroke="#000" stroke-miterlimit="10" stroke-width="1.35"/>
    <rect x="411.11" y="24.08" width="41.07" height="23.41" fill="#222" stroke="#231f20" stroke-miterlimit="10" stroke-width="0.45"/>
    <rect x="452.18" y="24.08" width="41.07" height="23.41" fill="#fff" stroke="#000" stroke-miterlimit="10" stroke-width="1.35"/>
    <rect x="493.25" y="24.08" width="41.07" height="23.41" fill="#222" stroke="#231f20" stroke-miterlimit="10" stroke-width="0.45"/>
    <rect x="534.32" y="24.08" width="41.07" height="23.41" fill="#fff" stroke="#000" stroke-miterlimit="10" stroke-width="1.35"/>
    <rect x="575.39" y="24.08" width="41.07" height="23.41" fill="#222" stroke="#231f20" stroke-miterlimit="10" stroke-width="0.45"/>
    <rect x="616.46" y="24.08" width="41.07" height="23.41" fill="#fff" stroke="#000" stroke-miterlimit="10" stroke-width="1.35"/>
    <rect x="657.53" y="24.08" width="41.07" height="23.41" fill="#222" stroke="#231f20" stroke-miterlimit="10" stroke-width="0.45"/>
    <rect x="698.6" y="24.08" width="41.07" height="23.41" fill="#fff" stroke="#000" stroke-miterlimit="10" stroke-width="1.35"/>
    <rect x="739.67" y="24.08" width="41.07" height="23.41" fill="#222" stroke="#231f20" stroke-miterlimit="10" stroke-width="0.45"/>
    <rect x="780.74" y="24.08" width="41.07" height="23.41" fill="#fff" stroke="#000" stroke-miterlimit="10" stroke-width="1.35"/>
    <rect x="135.36" y="0.67" width="134.94" height="23.41" fill="#fff" stroke="#000" stroke-miterlimit="10" stroke-width="1.35"/>
    <rect x="270.3" y="0.67" width="134.94" height="23.41" fill="#222" stroke="#231f20" stroke-miterlimit="10" stroke-width="0.82"/>
    <rect x="405.24" y="0.67" width="134.94" height="23.41" fill="#fff" stroke="#000" stroke-miterlimit="10" stroke-width="1.35"/>
    <rect x="540.19" y="0.67" width="134.94" height="23.41" fill="#222" stroke="#231f20" stroke-miterlimit="10" stroke-width="0.82"/>
    <rect x="810.08" y="0.67" width="134.94" height="23.41" fill="#222" stroke="#231f20" stroke-miterlimit="10" stroke-width="0.82"/>
    <rect x="675.13" y="0.67" width="134.94" height="23.41" fill="#fff" stroke="#000" stroke-miterlimit="10" stroke-width="1.35"/>
    <text transform="translate(56.98 17.48)" font-size="16.19" fill="#fff" font-family="Myriad Pro">1m</text>
    <text transform="translate(11.66 40.9)" font-size="16.19" fill="#fff" font-family="Myriad Pro">1<tspan x="8.31" y="0">f</tspan><tspan x="13.21" y="0">t</tspan></text>
    <text transform="translate(52.73 40.9)" font-size="16.19" font-family="Myriad Pro">2<tspan x="8.31" y="0">f</tspan><tspan x="13.21" y="0">t</tspan></text>
    <text transform="translate(93.8 40.9)" font-size="16.19" fill="#fff" font-family="Myriad Pro">3<tspan x="8.31" y="0">f</tspan><tspan x="13.21" y="0">t</tspan></text>
    <text transform="translate(134.87 40.9)" font-size="16.19" font-family="Myriad Pro">4<tspan x="8.31" y="0">f</tspan><tspan x="13.21" y="0">t</tspan></text>
    <text transform="translate(175.94 40.9)" font-size="16.19" fill="#fff" font-family="Myriad Pro">5<tspan x="8.31" y="0">f</tspan><tspan x="13.21" y="0">t</tspan></text>
    <text transform="translate(217.01 40.9)" font-size="16.19" font-family="Myriad Pro">6<tspan x="8.31" y="0">f</tspan><tspan x="13.21" y="0">t</tspan></text>
    <text transform="translate(258.08 40.9)" font-size="16.19" fill="#fff" font-family="Myriad Pro">7<tspan x="8.31" y="0">f</tspan><tspan x="13.21" y="0">t</tspan></text>
    <text transform="translate(299.15 40.9)" font-size="16.19" font-family="Myriad Pro">8<tspan x="8.31" y="0">f</tspan><tspan x="13.21" y="0">t</tspan></text>
    <text transform="translate(340.22 40.9)" font-size="16.19" fill="#fff" font-family="Myriad Pro">9<tspan x="8.31" y="0">f</tspan><tspan x="13.21" y="0">t</tspan></text>
    <text transform="translate(377.14 40.9)" font-size="16.19" font-family="Myriad Pro">10<tspan x="16.61" y="0">f</tspan><tspan x="21.52" y="0">t</tspan></text>
    <text transform="translate(418.21 40.9)" font-size="16.19" fill="#fff" font-family="Myriad Pro">11<tspan x="16.61" y="0">f</tspan><tspan x="21.52" y="0">t</tspan></text>
    <text transform="translate(459.28 40.9)" font-size="16.19" font-family="Myriad Pro">12<tspan x="16.61" y="0">f</tspan><tspan x="21.52" y="0">t</tspan></text>
    <text transform="translate(500.34 40.9)" font-size="16.19" fill="#fff" font-family="Myriad Pro">13<tspan x="16.61" y="0">f</tspan><tspan x="21.52" y="0">t</tspan></text>
    <text transform="translate(541.41 40.9)" font-size="16.19" font-family="Myriad Pro">14<tspan x="16.61" y="0">f</tspan><tspan x="21.52" y="0">t</tspan></text>
    <text transform="translate(582.48 40.9)" font-size="16.19" fill="#fff" font-family="Myriad Pro">15<tspan x="16.61" y="0">f</tspan><tspan x="21.52" y="0">t</tspan></text>
    <text transform="translate(623.55 40.9)" font-size="16.19" font-family="Myriad Pro">16<tspan x="16.61" y="0">f</tspan><tspan x="21.52" y="0">t</tspan></text>
    <text transform="translate(664.62 40.9)" font-size="16.19" fill="#fff" font-family="Myriad Pro">17<tspan x="16.61" y="0">f</tspan><tspan x="21.52" y="0">t</tspan></text>
    <text transform="translate(705.69 40.9)" font-size="16.19" font-family="Myriad Pro">18<tspan x="16.61" y="0">f</tspan><tspan x="21.52" y="0">t</tspan></text>
    <text transform="translate(746.76 40.9)" font-size="16.19" fill="#fff" font-family="Myriad Pro">19<tspan x="16.61" y="0">f</tspan><tspan x="21.52" y="0">t</tspan></text>
    <rect x="821.81" y="24.08" width="41.07" height="23.41" fill="#222" stroke="#231f20" stroke-miterlimit="10" stroke-width="0.45"/>
    <text transform="translate(828.9 40.9)" font-size="16.19" fill="#fff" font-family="Myriad Pro">21<tspan x="16.61" y="0">f</tspan><tspan x="21.52" y="0">t</tspan></text>
    <rect x="903.95" y="24.08" width="41.07" height="23.41" fill="#222" stroke="#231f20" stroke-miterlimit="10" stroke-width="0.45"/>
    <text transform="translate(911.04 40.9)" font-size="16.19" fill="#fff" font-family="Myriad Pro">23<tspan x="16.61" y="0">f</tspan><tspan x="21.52" y="0">t</tspan></text>
    <text transform="translate(787.83 40.9)" font-size="16.19" font-family="Myriad Pro">20<tspan x="16.61" y="0">f</tspan><tspan x="21.52" y="0">t</tspan></text>
    <rect x="862.88" y="24.08" width="41.07" height="23.41" fill="#fff" stroke="#000" stroke-miterlimit="10" stroke-width="1.35"/>
    <text transform="translate(869.97 40.9)" font-size="16.19" font-family="Myriad Pro">22<tspan x="16.61" y="0">f</tspan><tspan x="21.52" y="0">t</tspan></text>
    <text transform="translate(191.92 17.48)" font-size="16.19" font-family="Myriad Pro">2m</text>
    <text transform="translate(326.87 17.48)" font-size="16.19" fill="#fff" font-family="Myriad Pro">3m</text>
    <text transform="translate(461.81 17.48)" font-size="16.19" font-family="Myriad Pro">4m</text>
    <text transform="translate(596.76 17.48)" font-size="16.19" fill="#fff" font-family="Myriad Pro">5m</text>
    <text transform="translate(731.7 17.48)" font-size="16.19" font-family="Myriad Pro">6m</text>
    <text transform="translate(866.64 17.48)" font-size="16.19" fill="#fff" font-family="Myriad Pro">7m</text>
    <rect x="945.02" y="0.67" width="178" height="46.82" fill="#f44336" stroke="#f44336" stroke-miterlimit="10"/>
    <text transform="translate(959.81 28.39)" font-size="19.87" fill="#fff" font-family="Myriad Pro"><tspan letter-spacing="-1">Y</tspan><tspan x="9.24" y="0">ou can m</tspan><tspan x="85.6" y="0">o</tspan><tspan x="96.37" y="0">v</tspan><tspan x="105.73" y="0">e me</tspan></text>
  </g>
</svg>
