<?xml version="1.0" encoding="iso-8859-1"?>
<!-- Generator: Adobe Illustrator 18.1.1, SVG Export Plug-In . SVG Version: 6.00 Build 0)  -->
<svg version="1.1" id="Capa_1" xmlns="http://www.w3.org/2000/svg" xmlns:xlink="http://www.w3.org/1999/xlink" x="0px" y="0px"
	 viewBox="0 0 31.442 31.442" style="enable-background:new 0 0 31.442 31.442;" xml:space="preserve">
<g>
	<path style="fill:white;" d="M11.174,12.898h9.329c0.166,0,0.322-0.082,0.417-0.219c0.094-0.137,0.114-0.312,0.053-0.469
		L16.308,0.303C16.236,0.119,16.051,0,15.839,0c-0.214,0-0.397,0.119-0.469,0.303L10.705,12.21
		c-0.061,0.156-0.041,0.332,0.053,0.468C10.853,12.816,11.008,12.898,11.174,12.898z M11.913,11.892l2.164-5.44l3.571-0.008
		l2.117,5.448H11.913z M20.503,13.687h-9.566c-0.278,0-0.503,0.227-0.503,0.504v16.747c0,0.278,0.225,0.504,0.503,0.504h9.566
		c0.278,0,0.504-0.226,0.503-0.504V14.191C21.006,13.914,20.781,13.687,20.503,13.687z M14.892,15.812H14.89
		c-0.738,0-1.342,0.599-1.345,1.338c-0.039,7.315-0.043,11.779-0.011,13.284H11.44V14.697H20v15.738h-3.78
		c-0.029-1.348-0.015-7.631,0.016-13.271C16.24,16.422,15.637,15.816,14.892,15.812z"/>
</g>
<g>
</g>
<g>
</g>
<g>
</g>
<g>
</g>
<g>
</g>
<g>
</g>
<g>
</g>
<g>
</g>
<g>
</g>
<g>
</g>
<g>
</g>
<g>
</g>
<g>
</g>
<g>
</g>
<g>
</g>
</svg>
