<?xml version="1.0" encoding="iso-8859-1"?>
<!-- Generator: Adobe Illustrator 18.1.1, SVG Export Plug-In . SVG Version: 6.00 Build 0)  -->
<svg xmlns="http://www.w3.org/2000/svg" xmlns:xlink="http://www.w3.org/1999/xlink" version="1.1" id="Capa_1" x="0px" y="0px" viewBox="0 0 38.323 38.323" style="enable-background:new 0 0 38.323 38.323;" xml:space="preserve" width="64px" height="64px">
<g>
	<path d="M0,24.708c0-0.002,0-0.002,0-0.002c0-0.121,0-0.248,0-0.406h0.021C0.248,14.771,8.053,7.083,17.635,7.083   c9.729,0,17.639,7.91,17.639,17.635c0,0.115-0.023,0.223-0.035,0.334l0.252,0.008c0,0,1.76,0,2.49,0   c0.732-0.004,0.062,0.631,0.062,0.631l-5.498,5.35c0,0-0.359,0.42-0.742,0.041c-0.525-0.523-5.357-5.514-5.357-5.514   s-0.672-0.674,0.217-0.67c0.885,0,2.301,0,2.301,0l0.146,0.006c-0.004-0.066-0.018-0.123-0.018-0.186   c0-6.32-5.139-11.461-11.457-11.461c-6.316,0-11.455,5.141-11.455,11.461c0,0.016-0.004,0.033-0.004,0.051c0,0.178,0,0.301,0,0.391   c0,0,0.021,0.092,0,0.197c-0.018,0.074-0.055,0.158-0.137,0.232c-0.111,0.1-0.297,0.178-0.627,0.178   c-0.918,0-4.117-0.039-4.77-0.039c-0.275,0-0.428-0.09-0.52-0.189c-0.101-0.12-0.12-0.255-0.122-0.298l0,0c0-0.01,0-0.018,0-0.018   c0-0.248,0-0.402,0-0.506l0,0c0-0.002,0-0.002,0-0.006C0,24.497,0,24.558,0,24.708z" fill="#FFFFFF"/>
	<g>
	</g>
	<g>
	</g>
	<g>
	</g>
	<g>
	</g>
	<g>
	</g>
	<g>
	</g>
	<g>
	</g>
	<g>
	</g>
	<g>
	</g>
	<g>
	</g>
	<g>
	</g>
	<g>
	</g>
	<g>
	</g>
	<g>
	</g>
	<g>
	</g>
</g>
<g>
</g>
<g>
</g>
<g>
</g>
<g>
</g>
<g>
</g>
<g>
</g>
<g>
</g>
<g>
</g>
<g>
</g>
<g>
</g>
<g>
</g>
<g>
</g>
<g>
</g>
<g>
</g>
<g>
</g>
</svg>
