<svg xmlns="http://www.w3.org/2000/svg" xmlns:xlink="http://www.w3.org/1999/xlink" version="1.1" x="0px" y="0px" viewBox="0 0 100 125" enable-background="new 0 0 100 100" xml:space="preserve"><metadata><?xpacket begin="&#65279;" id="W5M0MpCehiHzreSzNTczkc9d"?><x:xmpmeta xmlns:x="adobe:ns:meta/" x:xmptk="Adobe XMP Core 5.5-c014 79.151739, 2013/04/03-12:12:15        "/><?xpacket end="w"?></metadata>
<path fill="white" d="M86.7,12v3H89L35.2,68.9v-4.6l50.7-50.7h-2.5L35.2,61.8v-4v-0.6L77.4,15h0.3v-0.3l1.1-1.1h-1.1V12h-1.3H32.2h-7.5v3h7.5  v12.7h1.7L33.6,28v2.5L49.1,15h4.6L33.6,35.1v2.5L56.2,15h4.6L33.6,42.1v0.9h-1.5v11.8H10.3V15h5.3v-3H7.3v45.8h24.8V86h44.2V57.8  h1.3V56h1.1l10.7-10.7v4.6L83.4,56h2.5l0.8-0.8v2.6h5.8V12H86.7z M89.5,17v4.6L35.2,75.9v-4.6L89.5,17z M35.2,83L35.2,83l0-4.6  l54.3-54.3v4.6L35.2,83z M89.5,31.2v4.6L42.2,83h-4.6L89.5,31.2z M74.9,15L35.2,54.7v-4.6L70.3,15h3.1H74.9z M39.5,15l-4.4,4.4V15  H39.5z M35.2,26.4v-4.6L42,15h4.6L35.2,26.4z M67.8,15L35.2,47.7v-4.6L63.2,15H67.8z M70.5,83h-4.6l7.4-7.4v4.6L70.5,83z M63.5,83  h-4.6l14.5-14.5v4.6L63.5,83z M56.4,83h-4.6l21.6-21.6V66L56.4,83z M77.5,54.8h-1.1h-3v3v1.1L49.3,83h-4.6l44.8-44.8v4.6L77.5,54.8z   M87,54.8l2.5-2.5v2.5H87z"/>
</svg>