<?xml version="1.0" encoding="iso-8859-1"?>
<!-- Generator: Adobe Illustrator 19.1.0, SVG Export Plug-In . SVG Version: 6.00 Build 0)  -->
<svg version="1.1" id="Capa_1" xmlns="http://www.w3.org/2000/svg" xmlns:xlink="http://www.w3.org/1999/xlink" x="0px" y="0px"
	 viewBox="0 0 438 438" style="enable-background:new 0 0 438 438;" xml:space="preserve">
<g>
	<g fill="white">
		<path  d="M223.395,203.198c-8.932-22.4-17.798-43.867-26.599-64.001C187.994,119.064,179.061,100,169.995,80H110.4
			c-9.334,20-18.335,39.064-27.002,59.197c-8.667,20.134-17.468,41.501-26.404,63.9c-8.936,22.4-18.068,46.518-27.399,71.851
			C20.266,300.283,10.4,328,0,358h64.795c2.938-10,6.205-19.471,9.802-29.603S81.726,308,85.193,298h108.008
			c3.467,10,6.998,20.265,10.596,30.397c3.597,10.132,6.864,19.603,9.802,29.603h66.797c-10.401-30-20.268-57.667-29.602-83.001
			C241.459,249.665,232.326,225.598,223.395,203.198L223.395,203.198z M99.597,248c4.264-12,8.463-23.47,12.598-34.404
			c4.134-10.933,7.934-20.932,11.401-29.998s6.533-17.065,9.198-23.999c2.665-6.933,4.665-12.402,6-16.406
			c1.603,4.004,3.737,9.473,6.403,16.406c2.665,6.934,5.798,14.934,9.399,23.999c3.601,9.066,7.401,19.064,11.401,29.997
			c4,10.934,8.132,22.404,12.396,34.404H99.597V248z"/>
		<polygon points="438,59 438,19 318,19 318,59 358,59 358,379 318,379 318,419 438,419 438,379 398,379 398,59 		"/>
	</g>
	<g>
	</g>
	<g>
	</g>
	<g>
	</g>
	<g>
	</g>
	<g>
	</g>
	<g>
	</g>
	<g>
	</g>
	<g>
	</g>
	<g>
	</g>
	<g>
	</g>
	<g>
	</g>
	<g>
	</g>
	<g>
	</g>
	<g>
	</g>
	<g>
	</g>
</g>
<g>
</g>
<g>
</g>
<g>
</g>
<g>
</g>
<g>
</g>
<g>
</g>
<g>
</g>
<g>
</g>
<g>
</g>
<g>
</g>
<g>
</g>
<g>
</g>
<g>
</g>
<g>
</g>
<g>
</g>
</svg>
