<?xml version="1.0" encoding="utf-8"?>
<!-- Generator: Adobe Illustrator 17.0.0, SVG Export Plug-In . SVG Version: 6.00 Build 0)  -->
<!DOCTYPE svg PUBLIC "-//W3C//DTD SVG 1.1//EN" "http://www.w3.org/Graphics/SVG/1.1/DTD/svg11.dtd">
<svg version="1.1"
	 id="svgElement" xmlns:svg="http://www.w3.org/2000/svg" xmlns:cc="http://creativecommons.org/ns#" xmlns:dc="http://purl.org/dc/elements/1.1/" xmlns:rdf="http://www.w3.org/1999/02/22-rdf-syntax-ns#" sodipodi:docname="BasinWide.svg" inkscape:version="0.91 r13725" xmlns:sodipodi="http://sodipodi.sourceforge.net/DTD/sodipodi-0.dtd" xmlns:inkscape="http://www.inkscape.org/namespaces/inkscape"
	 xmlns="http://www.w3.org/2000/svg" xmlns:xlink="http://www.w3.org/1999/xlink" x="0px" y="0px" width="227.1px" height="67px"
	 viewBox="0 0 227.1 67" enable-background="new 0 0 227.1 67" xml:space="preserve">
<sodipodi:namedview  inkscape:window-maximized="1" inkscape:pageshadow="2" inkscape:current-layer="svgElement" inkscape:window-y="-8" inkscape:window-height="1017" inkscape:window-width="1920" fit-margin-bottom="0" inkscape:pageopacity="0" fit-margin-right="0" inkscape:window-x="-8" id="namedview5688" bordercolor="#666666" borderopacity="1" fit-margin-left="0" pagecolor="#ffffff" inkscape:cy="-518.70598" gridtolerance="10" showgrid="false" guidetolerance="10" inkscape:cx="343.53808" inkscape:zoom="0.35355339" objecttolerance="10" fit-margin-top="0">
	</sodipodi:namedview>
<polygon id="polygon5602" fill="#FFFFFF" stroke="#000000" points="0.5,66.5 226.6,66.5 226.6,0.5 0.5,0.5 "/>
<g id="g4554" transform="translate(-62.1786,10.7641)">
	<polygon id="polygon4141" fill="#FFFFFF" stroke="#000000" stroke-width="0.6" stroke-linejoin="round" points="145.08,45.873 
		205.08,45.873 205.08,0.773 145.08,0.773 	"/>
	
		<rect id="rect4337" x="150.105" y="11.489" fill="#FFFFFF" stroke="#000000" stroke-width="0.7" stroke-linecap="round" stroke-linejoin="round" width="50.018" height="29.805"/>
	
		<rect id="rect4339" x="153.551" y="14.721" fill="#FFFFFF" stroke="#000000" stroke-width="0.6971" stroke-linecap="round" stroke-linejoin="round" width="43.49" height="23.406"/>
	<path id="path4341" inkscape:connector-curvature="0" fill="none" stroke="#000000" stroke-width="0.7" d="M150.105,11.489
		l3.446,3.232"/>
	<path id="path4343" inkscape:connector-curvature="0" fill="none" stroke="#000000" stroke-width="0.7" d="M200.123,11.489
		l-3.082,3.232"/>
	
		<path id="path4345" inkscape:connector-curvature="0" sodipodi:nodetypes="cc" fill="none" stroke="#000000" stroke-width="0.7" d="
		M200.123,41.294l-3.082-3.168"/>
	<path id="path4347" inkscape:connector-curvature="0" fill="none" stroke="#000000" stroke-width="0.7" d="M150.105,41.294
		l3.446-3.168"/>
	
		<rect id="rect4349" x="172.917" y="6.093" fill="#FFFFFF" stroke="#000000" stroke-width="0.7" stroke-linecap="round" stroke-linejoin="round" width="6.252" height="13.789"/>
	
		<path id="path4359" sodipodi:end="6.2342637" sodipodi:start="0" sodipodi:type="arc" sodipodi:cy="26.96104" sodipodi:rx="1.8168604" sodipodi:cx="175.99005" sodipodi:ry="1.8168604" sodipodi:open="true" fill="#FFFFFF" stroke="#000000" stroke-width="0.7" stroke-linecap="round" stroke-linejoin="round" d="
		M177.807,26.961c0,0.995-0.8,1.805-1.795,1.817c-0.995,0.012-1.814-0.778-1.839-1.772c-0.024-0.994,0.756-1.824,1.75-1.86
		c0.994-0.036,1.833,0.733,1.881,1.727"/>
	
		<path id="path4359-4" sodipodi:end="6.2342637" sodipodi:start="0" sodipodi:type="arc" sodipodi:cy="26.969799" sodipodi:rx="3.1658106" sodipodi:cx="175.99219" sodipodi:ry="3.1443987" sodipodi:open="true" fill="none" stroke="#000000" stroke-width="0.7" stroke-linecap="round" stroke-linejoin="round" d="
		M179.158,26.97c0,1.722-1.394,3.123-3.127,3.144c-1.733,0.021-3.161-1.346-3.204-3.067s1.317-3.156,3.049-3.219
		c1.732-0.063,3.193,1.269,3.278,2.989"/>
</g>
</svg>
