<?xml version="1.0" encoding="UTF-8" standalone="no"?>
<svg
   xmlns:dc="http://purl.org/dc/elements/1.1/"
   xmlns:cc="http://creativecommons.org/ns#"
   xmlns:rdf="http://www.w3.org/1999/02/22-rdf-syntax-ns#"
   xmlns:svg="http://www.w3.org/2000/svg"
   xmlns="http://www.w3.org/2000/svg"
   version="1.1"
   height="65.602325"
   width="299.79919"
   id="svgElement">
  <metadata
     id="metadata23">
    <rdf:RDF>
      <cc:Work
         rdf:about="">
        <dc:format>image/svg+xml</dc:format>
        <dc:type
           rdf:resource="http://purl.org/dc/dcmitype/StillImage" />
        <dc:title></dc:title>
      </cc:Work>
    </rdf:RDF>
  </metadata>
  <defs
     id="defs21" />
  <g
     transform="translate(-320.85734,-180.6081)"
     id="g3"
     class="Floorplan">
    <polygon
       style="fill:#ffffff;stroke:#000000;stroke-width:1"
       transform="matrix(1.0001456,0,0,0.98245677,-2.5277383,-280.57135)"
       id="polygon7-2-6-4"
       points="323.838,534.964 383.838,534.964 383.838,469.964 323.838,469.964 "
       class="FixedFurniture Closet" />
    <path
       id="path4359-4-7-0"
       d="m 379.715,245.70276 -9.36916,0"
       style="fill:none;fill-rule:evenodd;stroke:#000000;stroke-width:1px;stroke-linecap:butt;stroke-linejoin:miter;stroke-opacity:1" />
    <polygon
       style="fill:#ffffff;stroke:#000000;stroke-width:1"
       transform="matrix(1.0001456,0,0,0.98245677,56.869232,-280.57135)"
       id="polygon7-7-6-7"
       points="323.838,534.964 383.838,534.964 383.838,469.964 323.838,469.964 "
       class="FixedFurniture Closet" />
    <path
       id="path4359-46-3-1"
       d="m 439.11198,245.70276 -9.36916,0"
       style="fill:none;fill-rule:evenodd;stroke:#000000;stroke-width:1px;stroke-linecap:butt;stroke-linejoin:miter;stroke-opacity:1" />
    <polygon
       style="fill:#ffffff;stroke:#000000;stroke-width:1"
       transform="matrix(1.0001456,0,0,0.98245677,116.884,-280.56369)"
       id="polygon7-2-9-8"
       points="323.838,534.964 383.838,534.964 383.838,469.964 323.838,469.964 "
       class="FixedFurniture Closet" />
    <path
       id="path4359-4-6-9"
       d="m 499.12674,245.71042 -9.36916,0"
       style="fill:none;fill-rule:evenodd;stroke:#000000;stroke-width:1px;stroke-linecap:butt;stroke-linejoin:miter;stroke-opacity:1" />
    <polygon
       style="fill:#ffffff;stroke:#000000;stroke-width:1"
       transform="matrix(1.0001456,0,0,0.98245677,176.28097,-280.56369)"
       id="polygon7-7-2-5"
       points="323.838,534.964 383.838,534.964 383.838,469.964 323.838,469.964 "
       class="FixedFurniture Closet" />
    <path
       id="path4359-46-7-5"
       d="m 558.52372,245.71042 -9.36916,0"
       style="fill:none;fill-rule:evenodd;stroke:#000000;stroke-width:1px;stroke-linecap:butt;stroke-linejoin:miter;stroke-opacity:1" />
    <polygon
       style="fill:#ffffff;stroke:#000000;stroke-width:1"
       transform="matrix(1.0001456,0,0,0.98245677,236.26256,-280.61999)"
       id="polygon7-1"
       points="323.838,469.964 323.838,534.964 383.838,534.964 383.838,469.964 "
       class="FixedFurniture Closet" />
    <path
       id="path4359-2"
       d="m 618.5053,245.65413 -9.36916,0"
       style="fill:none;fill-rule:evenodd;stroke:#000000;stroke-width:1px;stroke-linecap:butt;stroke-linejoin:miter;stroke-opacity:1" />
  </g>
</svg>
