<?xml version="1.0" encoding="utf-8"?>
<!-- Generator: Adobe Illustrator 17.0.0, SVG Export Plug-In . SVG Version: 6.00 Build 0)  -->
<!DOCTYPE svg PUBLIC "-//W3C//DTD SVG 1.1//EN" "http://www.w3.org/Graphics/SVG/1.1/DTD/svg11.dtd">
<svg version="1.1"
	 id="svgElement" xmlns:sodipodi="http://sodipodi.sourceforge.net/DTD/sodipodi-0.dtd" xmlns:inkscape="http://www.inkscape.org/namespaces/inkscape" xmlns:dc="http://purl.org/dc/elements/1.1/" xmlns:cc="http://creativecommons.org/ns#" xmlns:rdf="http://www.w3.org/1999/02/22-rdf-syntax-ns#" xmlns:svg="http://www.w3.org/2000/svg" sodipodi:docname="doublesink.svg" inkscape:version="0.91 r13725"
	 xmlns="http://www.w3.org/2000/svg" xmlns:xlink="http://www.w3.org/1999/xlink" x="0px" y="0px" width="61px" height="46.1px"
	 viewBox="0 0 61 46.1" enable-background="new 0 0 61 46.1" xml:space="preserve">
<polygon id="polygon4141" fill="#FFFFFF" stroke="#000000" points="60.5,45.6 60.5,0.5 0.5,0.5 0.5,45.6 "/>
<rect id="rect4337" x="5.032" y="11.216" fill="#FFFFFF" stroke="#000000" stroke-width="0.7" stroke-linecap="round" stroke-linejoin="round" width="50.937" height="29.805"/>
<rect id="rect4339" x="8.477" y="14.448" fill="#FFFFFF" stroke="#000000" stroke-width="0.6971" stroke-linecap="round" stroke-linejoin="round" width="44.409" height="23.406"/>
<path id="path4341" inkscape:connector-curvature="0" fill="none" stroke="#000000" stroke-width="0.7" d="M5.032,11.216
	l3.446,3.232"/>
<path id="path4343" inkscape:connector-curvature="0" fill="none" stroke="#000000" stroke-width="0.7" d="M55.968,11.216
	l-3.082,3.232"/>
<path id="path4345" inkscape:connector-curvature="0" sodipodi:nodetypes="cc" fill="none" stroke="#000000" stroke-width="0.7" d="
	M55.968,41.022l-3.082-3.168"/>
<path id="path4347" inkscape:connector-curvature="0" fill="none" stroke="#000000" stroke-width="0.7" d="M5.032,41.022
	l3.446-3.168"/>
<rect id="rect4349" x="27.374" y="5.82" fill="#FFFFFF" stroke="#000000" stroke-width="0.7" stroke-linecap="round" stroke-linejoin="round" width="6.252" height="13.789"/>
<path id="path4359" sodipodi:rx="1.8168604" sodipodi:end="6.2342637" sodipodi:type="arc" sodipodi:ry="1.8168604" sodipodi:open="true" sodipodi:cy="26.648468" sodipodi:cx="19.419382" sodipodi:start="0" fill="#FFFFFF" stroke="#000000" stroke-width="0.7" stroke-linecap="round" stroke-linejoin="round" d="
	M20.743,26.648c0,0.995-0.8,1.805-1.795,1.817s-1.814-0.778-1.839-1.772s0.756-1.824,1.75-1.86s1.833,0.733,1.881,1.727"/>
<path id="path4359-4" sodipodi:rx="3.1658106" sodipodi:end="6.2342637" sodipodi:type="arc" sodipodi:ry="3.1443987" sodipodi:open="true" sodipodi:cy="26.657227" sodipodi:cx="19.421518" sodipodi:start="0" fill="none" stroke="#000000" stroke-width="0.7" stroke-linecap="round" stroke-linejoin="round" d="
	M22.094,26.657c0,1.722-1.394,3.123-3.127,3.144s-3.161-1.346-3.204-3.067s1.317-3.156,3.049-3.219s3.193,1.269,3.278,2.989"/>
<path id="path4376-3" sodipodi:rx="1.8168604" sodipodi:end="6.2342637" sodipodi:type="arc" sodipodi:ry="1.8168604" sodipodi:open="true" sodipodi:cy="26.734888" sodipodi:cx="42.307781" sodipodi:start="0" fill="#FFFFFF" stroke="#000000" stroke-width="0.7" stroke-linecap="round" stroke-linejoin="round" d="
	M43.631,26.735c0,0.995-0.8,1.805-1.795,1.817s-1.814-0.778-1.839-1.772c-0.024-0.994,0.756-1.824,1.75-1.86
	s1.833,0.733,1.881,1.727"/>
<path id="path4378-9" sodipodi:rx="3.1658106" sodipodi:end="6.2342637" sodipodi:type="arc" sodipodi:ry="3.1443987" sodipodi:open="true" sodipodi:cy="26.743647" sodipodi:cx="42.309917" sodipodi:start="0" fill="none" stroke="#000000" stroke-width="0.7" stroke-linecap="round" stroke-linejoin="round" d="
	M44.982,26.744c0,1.722-1.394,3.123-3.127,3.144c-1.733,0.021-3.161-1.346-3.204-3.067c-0.042-1.721,1.317-3.156,3.049-3.219
	s3.193,1.269,3.278,2.989"/>
<rect id="rect4398" x="29.387" y="19.61" fill="#FFFFFF" stroke="#000000" stroke-width="0.7" stroke-linecap="round" stroke-linejoin="round" width="2.227" height="21.412"/>
</svg>
