<?xml version="1.0" encoding="utf-8"?>
<!-- Generator: Adobe Illustrator 17.0.0, SVG Export Plug-In . SVG Version: 6.00 Build 0)  -->
<!DOCTYPE svg PUBLIC "-//W3C//DTD SVG 1.1//EN" "http://www.w3.org/Graphics/SVG/1.1/DTD/svg11.dtd">
<svg version="1.1"
	 id="svgElement" xmlns:svg="http://www.w3.org/2000/svg" xmlns:cc="http://creativecommons.org/ns#" xmlns:dc="http://purl.org/dc/elements/1.1/" xmlns:rdf="http://www.w3.org/1999/02/22-rdf-syntax-ns#"
	 xmlns="http://www.w3.org/2000/svg" xmlns:xlink="http://www.w3.org/1999/xlink" x="0px" y="0px" width="77.009px"
	 height="65.105px" viewBox="0 0 77.009 65.105" enable-background="new 0 0 77.009 65.105" xml:space="preserve">
<path id="path4849_1_" fill="none" stroke="#000000" d="M3.429,64.609h70.887"/>
<rect x="0.5" y="0.496" fill="#FFFFFF" stroke="#000000" width="76.009" height="63.36"/>
<g>
	<rect x="4.5" y="4.496" fill="none" stroke="#000000" stroke-width="0.9655" width="24.557" height="24.557"/>
	<circle cx="16.778" cy="16.774" r="3.805"/>
	<line fill="none" stroke="#000000" stroke-miterlimit="10" x1="16.778" y1="4.496" x2="16.778" y2="12.049"/>
	<line fill="none" stroke="#000000" stroke-miterlimit="10" x1="29.057" y1="16.774" x2="21.504" y2="16.774"/>
	<line fill="none" stroke="#000000" stroke-miterlimit="10" x1="16.778" y1="29.052" x2="16.778" y2="21.499"/>
	<line fill="none" stroke="#000000" stroke-miterlimit="10" x1="4.5" y1="16.774" x2="12.053" y2="16.774"/>
</g>
<g>
	<rect x="47.952" y="4.496" fill="none" stroke="#000000" stroke-width="0.9655" width="24.557" height="24.557"/>
	<circle cx="60.231" cy="16.774" r="3.805"/>
	<line fill="none" stroke="#000000" stroke-miterlimit="10" x1="60.231" y1="4.496" x2="60.231" y2="12.049"/>
	<line fill="none" stroke="#000000" stroke-miterlimit="10" x1="72.509" y1="16.774" x2="64.956" y2="16.774"/>
	<line fill="none" stroke="#000000" stroke-miterlimit="10" x1="60.231" y1="29.052" x2="60.231" y2="21.499"/>
	<line fill="none" stroke="#000000" stroke-miterlimit="10" x1="47.952" y1="16.774" x2="55.505" y2="16.774"/>
</g>
<g>
	<rect x="4.5" y="35.299" fill="none" stroke="#000000" stroke-width="0.9655" width="24.557" height="24.557"/>
	<circle cx="16.778" cy="47.577" r="3.805"/>
	<line fill="none" stroke="#000000" stroke-miterlimit="10" x1="16.778" y1="35.299" x2="16.778" y2="42.852"/>
	<line fill="none" stroke="#000000" stroke-miterlimit="10" x1="29.057" y1="47.577" x2="21.504" y2="47.577"/>
	<line fill="none" stroke="#000000" stroke-miterlimit="10" x1="16.778" y1="59.855" x2="16.778" y2="52.302"/>
	<line fill="none" stroke="#000000" stroke-miterlimit="10" x1="4.5" y1="47.577" x2="12.053" y2="47.577"/>
</g>
<g>
	<rect x="47.952" y="35.299" fill="none" stroke="#000000" stroke-width="0.9655" width="24.557" height="24.557"/>
	<circle cx="60.231" cy="47.577" r="3.805"/>
	<line fill="none" stroke="#000000" stroke-miterlimit="10" x1="60.231" y1="35.299" x2="60.231" y2="42.852"/>
	<line fill="none" stroke="#000000" stroke-miterlimit="10" x1="72.509" y1="47.577" x2="64.956" y2="47.577"/>
	<line fill="none" stroke="#000000" stroke-miterlimit="10" x1="60.231" y1="59.855" x2="60.231" y2="52.302"/>
	<line fill="none" stroke="#000000" stroke-miterlimit="10" x1="47.952" y1="47.577" x2="55.505" y2="47.577"/>
</g>
<line fill="none" stroke="#000000" stroke-width="0.9812" x1="29.057" y1="4.496" x2="29.057" y2="59.855"/>
<line fill="none" stroke="#000000" stroke-width="0.9812" x1="47.952" y1="4.496" x2="47.952" y2="59.855"/>
<line fill="none" stroke="#000000" stroke-width="0.9812" x1="22.918" y1="53.716" x2="35.796" y2="53.716"/>
<line fill="none" stroke="#000000" stroke-width="0.9812" x1="41.513" y1="53.716" x2="54.392" y2="53.716"/>
<line fill="none" stroke="#000000" stroke-width="0.9812" x1="22.918" y1="41.438" x2="35.796" y2="41.438"/>
<line fill="none" stroke="#000000" stroke-width="0.9812" x1="41.513" y1="41.438" x2="54.392" y2="41.438"/>
<line fill="none" stroke="#000000" stroke-width="0.9812" x1="22.918" y1="22.913" x2="35.796" y2="22.913"/>
<line fill="none" stroke="#000000" stroke-width="0.9812" x1="41.513" y1="22.913" x2="54.392" y2="22.913"/>
<line fill="none" stroke="#000000" stroke-width="0.9812" x1="22.918" y1="10.635" x2="35.796" y2="10.635"/>
<line fill="none" stroke="#000000" stroke-width="0.9812" x1="41.513" y1="10.635" x2="54.392" y2="10.635"/>
</svg>
