<?xml version="1.0" encoding="utf-8"?>
<!-- Generator: Adobe Illustrator 17.0.0, SVG Export Plug-In . SVG Version: 6.00 Build 0)  -->
<!DOCTYPE svg PUBLIC "-//W3C//DTD SVG 1.1//EN" "http://www.w3.org/Graphics/SVG/1.1/DTD/svg11.dtd">
<svg version="1.1"
	 id="svgElement" xmlns:svg="http://www.w3.org/2000/svg" xmlns:cc="http://creativecommons.org/ns#" xmlns:dc="http://purl.org/dc/elements/1.1/" xmlns:rdf="http://www.w3.org/1999/02/22-rdf-syntax-ns#"
	 xmlns="http://www.w3.org/2000/svg" xmlns:xlink="http://www.w3.org/1999/xlink" x="0px" y="0px" width="150.811px"
	 height="151.047px" viewBox="0 0 150.811 151.047" enable-background="new 0 0 150.811 151.047" xml:space="preserve">
<path id="path4575" fill="none" stroke="#000000" d="M0.5,150.545V0h150.51C151.01,82.905,142.544,151.015,0.5,150.545z"/>
<ellipse id="path4609" transform="matrix(0.7071 0.7071 -0.7071 0.7071 72.192 -30.5788)" fill="#FFFFFF" stroke="#000000" stroke-width="0.7841" cx="73.008" cy="71.854" rx="51.88" ry="67.347"/>
<path id="path4611" fill="none" stroke="#000000" d="M19.792,58.362C12.84,23.768,4.086,26.829,10.053,20.815L22.262,8.51
	c3.988-4.019,6.661,6.347,34.634,11.312"/>
<path id="path4609-5" fill="#FFFFFF" stroke="#000000" stroke-width="0.64" d="M102.988,102.091
	c-21.621,21.314-52.651,25.282-69.307,8.864s-12.63-47.008,8.991-68.322s52.651-25.282,69.307-8.864S124.61,80.777,102.988,102.091z
	"/>
<path id="path4609-5-7" fill="#FFFFFF" stroke="#000000" stroke-width="0.8" d="M76.812,76.661
	c-0.798,0.786-2.074,0.803-2.851,0.037c-0.777-0.766-0.76-2.024,0.037-2.811c0.798-0.786,2.074-0.803,2.851-0.037
	C77.627,74.616,77.61,75.874,76.812,76.661z"/>
<path id="path4611-7" fill="none" stroke="#000000" stroke-width="0.8" d="M20.81,56.445C14.616,25.622,6.4,26.738,11.717,21.379
	l10.878-10.964c3.553-3.581,7.614,6.163,32.538,10.587"/>
</svg>
