<?xml version="1.0" encoding="utf-8"?>
<!-- Generator: Adobe Illustrator 17.0.0, SVG Export Plug-In . SVG Version: 6.00 Build 0)  -->
<!DOCTYPE svg PUBLIC "-//W3C//DTD SVG 1.1//EN" "http://www.w3.org/Graphics/SVG/1.1/DTD/svg11.dtd">
<svg version="1.1"
	 id="svgElement" xmlns:sodipodi="http://sodipodi.sourceforge.net/DTD/sodipodi-0.dtd" xmlns:inkscape="http://www.inkscape.org/namespaces/inkscape" xmlns:dc="http://purl.org/dc/elements/1.1/" xmlns:cc="http://creativecommons.org/ns#" xmlns:rdf="http://www.w3.org/1999/02/22-rdf-syntax-ns#" xmlns:svg="http://www.w3.org/2000/svg" sodipodi:docname="sink.svg" inkscape:version="0.91 r13725"
	 xmlns="http://www.w3.org/2000/svg" xmlns:xlink="http://www.w3.org/1999/xlink" x="0px" y="0px" width="61px" height="46.1px"
	 viewBox="0 0 61 46.1" enable-background="new 0 0 61 46.1" xml:space="preserve">
<sodipodi:namedview  objecttolerance="10" guidetolerance="10" gridtolerance="10" inkscape:cy="-9.202973" pagecolor="#ffffff" inkscape:cx="55.045534" showgrid="false" fit-margin-left="0" bordercolor="#666666" fit-margin-top="0" inkscape:zoom="2.9189368" borderopacity="1" id="namedview4331" inkscape:window-maximized="1" inkscape:window-x="-8" fit-margin-right="0" inkscape:current-layer="svgElement" fit-margin-bottom="0" inkscape:window-width="1536" inkscape:pageopacity="0" inkscape:window-y="-8" inkscape:window-height="814" inkscape:pageshadow="2">
	</sodipodi:namedview>
<polygon id="polygon4141" fill="#FFFFFF" stroke="#000000" points="0.5,45.6 60.5,45.6 60.5,0.5 0.5,0.5 "/>
<polygon fill="#FFFFFF" stroke="#000000" stroke-width="0.7" stroke-linecap="round" stroke-linejoin="round" points="8.061,14.448 
	4.615,11.216 4.615,41.022 8.061,37.854 "/>
<g>
	<polygon fill="#FFFFFF" stroke="#000000" stroke-width="0.7" stroke-linecap="round" stroke-linejoin="round" points="
		8.061,14.448 27.376,14.448 27.376,11.216 4.615,11.216 	"/>
	<polygon fill="#FFFFFF" stroke="#000000" stroke-width="0.7" stroke-linecap="round" stroke-linejoin="round" points="
		33.624,11.216 33.624,14.448 52.939,14.448 56.385,11.216 	"/>
</g>
<polygon fill="#FFFFFF" stroke="#000000" stroke-width="0.7" stroke-linecap="round" stroke-linejoin="round" points="
	52.939,14.448 56.385,11.216 56.385,41.022 52.939,37.854 "/>
<polygon fill="#FFFFFF" stroke="#000000" stroke-width="0.7" stroke-linecap="round" stroke-linejoin="round" points="
	52.939,37.854 30.5,37.854 8.061,37.854 4.615,41.022 30.5,41.022 56.385,41.022 "/>
<path fill="#FFFFFF" stroke="#000000" stroke-width="0.6971" stroke-linecap="round" stroke-linejoin="round" d="M30.614,23.555
	c-0.039-0.001-0.075,0.007-0.114,0.007s-0.075-0.009-0.114-0.007c-1.732,0.063-3.091,1.498-3.049,3.219
	c0.042,1.707,1.448,3.062,3.163,3.064c1.714-0.001,3.121-1.357,3.163-3.064C33.705,25.053,32.346,23.618,30.614,23.555z
	 M30.5,28.503c-0.984,0-1.792-0.783-1.816-1.77c-0.024-0.994,0.756-1.824,1.75-1.86c0.023-0.001,0.044,0.004,0.067,0.004
	s0.044-0.005,0.067-0.004c0.994,0.036,1.774,0.866,1.75,1.86C32.292,27.72,31.484,28.503,30.5,28.503z"/>
<polygon fill="#FFFFFF" stroke="#000000" stroke-width="0.7" stroke-linecap="round" stroke-linejoin="round" points="30.5,5.82 
	27.376,5.82 27.376,11.216 27.376,14.448 27.376,19.61 30.5,19.61 33.624,19.61 33.624,14.448 33.624,11.216 33.624,5.82 "/>
</svg>
