<svg xmlns="http://www.w3.org/2000/svg" width="44.66" height="44.707" viewBox="0 0 44.66 44.707" enable-background="new 0 0 44.66 44.707"><path fill="#fff" stroke="#000" stroke-width=".999" d="m7.802.025c-7.802 0-7.802 7.384-7.802 7.384 0 5.19 2.963 14.06 13.11 24.2 10.13 10.13 18.987 13.07 24.17 13.07 0 0 7.375 0 7.375-7.792 0-7.792.01-36.866.01-36.866s-29.06 0-36.858 0z"/><path fill="none" stroke="#000" d="m17.643.025c0 0 7.946.528 9 1.586s15.352 13.9 16.286 14.833c.933.933 1.721 6.495 1.721 10.65"/><path fill="#fff" stroke="#000" stroke-width=".88" d="m41.532 18.05c.922.922 1.473 8.812 1.473 8.812s-.024 5.354-.024 9.394c0 6.863-5.762 6.731-5.762 6.731-4.562 0-14.06-3.636-22.98-12.545-8.909-8.915-12.546-18.417-12.546-22.979 0 0-.132-5.762 6.731-5.762 4.04 0 9.394-.024 9.394-.024s6.833.494 7.812 1.473l15.902 14.9z"/><ellipse fill="#fff" stroke="#000" stroke-width=".5" stroke-linecap="round" stroke-linejoin="round" cx="24.508" cy="20.22" rx="2.61" ry="2.574"/><rect x="32.536" y="4.02" transform="matrix(.7071.7071-.7071.7071 17.284-21.524)" fill="#fff" stroke="#000" stroke-width=".574" stroke-linejoin="round" width="4.177" height="12.156"/></svg>