<svg version="1.1" id="Layer_1" xmlns="http://www.w3.org/2000/svg" xmlns:xlink="http://www.w3.org/1999/xlink" x="0" y="0"
     width="175" height="82" viewBox="0 0 175 82" enable-background="new 0 0 175 82" xml:space="preserve">
<polygon id="polygon5562" fill="#FFFFFF " stroke="#000000 " points="0.164,-0.227 0.164,81.773 175.164,81.773 175.164,-0.227 "/>
<path fill="#FFFFFF " stroke="#000000 " d="M166.833,41c0,19.698,0,35.667-79.333,35.667S8.167,60.698,8.167,41
    s0-35.667,79.333-35.667S166.833,21.302,166.833,41z"/>
<path fill="#FFFFFF " stroke="#000000 " stroke-width="0.6971" stroke-linecap="round" stroke-linejoin="round" d="M44.386,37.859
    c-0.039-0.001-0.075,0.007-0.114,0.007s-0.075-0.009-0.114-0.007c-1.732,0.063-3.091,1.498-3.049,3.219
    c0.042,1.707,1.448,3.062,3.163,3.064c1.714-0.001,3.121-1.357,3.163-3.064C47.477,39.357,46.118,37.922,44.386,37.859z
     M44.272,42.807c-0.984,0-1.792-0.783-1.816-1.77c-0.024-0.994,0.756-1.824,1.75-1.86c0.023-0.001,0.044,0.004,0.067,0.004
    s0.044-0.005,0.067-0.004c0.994,0.036,1.774,0.866,1.75,1.86C46.064,42.024,45.256,42.807,44.272,42.807z"/>
</svg>