<?xml version="1.0" encoding="utf-8"?>
<!-- Generator: Adobe Illustrator 17.0.0, SVG Export Plug-In . SVG Version: 6.00 Build 0)  -->
<!DOCTYPE svg PUBLIC "-//W3C//DTD SVG 1.1//EN" "http://www.w3.org/Graphics/SVG/1.1/DTD/svg11.dtd">
<svg version="1.1" id="Layer_1" xmlns="http://www.w3.org/2000/svg" xmlns:xlink="http://www.w3.org/1999/xlink" x="0" y="0"
	 width="61" height="46.1" viewBox="0 0 61 46.1" enable-background="new 0 0 61 46.1" xml:space="preserve">
<polygon fill="#FFFFFF" stroke="#000000" points="61,46.1 61,0 0,0 0,46.1 "/>
<rect x="5.03" y="11.216" fill="#FFFFFF" stroke="#000000" stroke-width="0.7" stroke-linecap="round" stroke-linejoin="round" width="50.937" height="29.805"/>
<rect x="8.477" y="14.448" fill="#FFFFFF" stroke="#000000" stroke-width="0.697" stroke-linecap="round" stroke-linejoin="round" width="44.41" height="23.406"/>
<path fill="none" stroke="#000000" stroke-width="0.7" d="M5.03,11.216l3.446,3.232"/>
<path fill="none" stroke="#000000" stroke-width="0.7" d="M55.968,11.216l-3.082,3.232"/>
<path fill="none" stroke="#000000" stroke-width="0.7" d="M55.968,41.02l-3.082-3.168"/>
<path fill="none" stroke="#000000" stroke-width="0.7" d="M5.03,41.02l3.446-3.168"/>
<rect x="27.374" y="5.82" fill="#FFFFFF" stroke="#000000" stroke-width="0.7" stroke-linecap="round" stroke-linejoin="round" width="6.252" height="13.789"/>
<path fill="#FFFFFF" stroke="#000000" stroke-width="0.7" stroke-linecap="round" stroke-linejoin="round" d="M20.743,26.648
	c0,0.995-0.8,1.805-1.795,1.817c-0.995,0.012-1.814-0.778-1.839-1.772s0.756-1.824,1.75-1.86s1.833,0.733,1.881,1.727"/>
<path fill="none" stroke="#000000" stroke-width="0.7" stroke-linecap="round" stroke-linejoin="round" d="M22.09,26.657
	c0,1.722-1.394,3.123-3.127,3.144c-1.733,0.021-3.161-1.346-3.204-3.067s1.317-3.156,3.049-3.219
	c1.732-0.063,3.193,1.269,3.278,2.989"/>
<path fill="#FFFFFF" stroke="#000000" stroke-width="0.7" stroke-linecap="round" stroke-linejoin="round" d="M43.631,26.735
	c0,0.995-0.8,1.805-1.795,1.817s-1.814-0.778-1.839-1.772c-0.024-0.994,0.756-1.824,1.75-1.86s1.833,0.733,1.881,1.727"/>
<path fill="none" stroke="#000000" stroke-width="0.7" stroke-linecap="round" stroke-linejoin="round" d="M44.982,26.744
	c0,1.722-1.394,3.123-3.127,3.144c-1.733,0.021-3.161-1.346-3.204-3.067c-0.042-1.721,1.317-3.156,3.049-3.219
	s3.193,1.269,3.278,2.989"/>
<rect x="29.387" y="19.61" fill="#FFFFFF" stroke="#000000" stroke-width="0.7" stroke-linecap="round" stroke-linejoin="round" width="2.227" height="21.412"/>
</svg>
