<?xml version="1.0" encoding="utf-8"?>
<!-- Generator: Adobe Illustrator 19.2.1, SVG Export Plug-In . SVG Version: 6.00 Build 0)  -->
<svg version="1.1" id="Layer_1" xmlns="http://www.w3.org/2000/svg" xmlns:xlink="http://www.w3.org/1999/xlink" x="0px" y="0px"
	 width="77px" height="65.1px" viewBox="0 0 77 65.1" style="enable-background:new 0 0 77 65.1;" xml:space="preserve">
<style type="text/css">
	.st0{fill:none;stroke:#000000;}
	.st1{fill:#FFFFFF;stroke:#000000;}
	.st2{fill:none;stroke:#000000;stroke-width:0.966;}
	.st3{fill:none;stroke:#000000;stroke-miterlimit:10;}
	.st4{fill:none;stroke:#000000;stroke-width:0.981;}
</style>
<path class="st0" d="M3.4,62.7h70.9"/>
<rect class="st1" width="77" height="65.1"/>
<g>
	<rect x="4.5" y="4.5" class="st2" width="24.6" height="24.6"/>
	<circle cx="16.8" cy="16.8" r="3.8"/>
	<line class="st3" x1="16.8" y1="4.5" x2="16.8" y2="12.1"/>
	<line class="st3" x1="29.1" y1="16.8" x2="21.5" y2="16.8"/>
	<line class="st3" x1="16.8" y1="29.1" x2="16.8" y2="21.5"/>
	<line class="st3" x1="4.5" y1="16.8" x2="12.1" y2="16.8"/>
</g>
<g>
	<rect x="48" y="4.5" class="st2" width="24.6" height="24.6"/>
	<circle cx="60.2" cy="16.8" r="3.8"/>
	<line class="st3" x1="60.2" y1="4.5" x2="60.2" y2="12.1"/>
	<line class="st3" x1="72.5" y1="16.8" x2="65" y2="16.8"/>
	<line class="st3" x1="60.2" y1="29.1" x2="60.2" y2="21.5"/>
	<line class="st3" x1="48" y1="16.8" x2="55.5" y2="16.8"/>
</g>
<g>
	<rect x="4.5" y="35.3" class="st2" width="24.6" height="24.6"/>
	<circle cx="16.8" cy="47.6" r="3.8"/>
	<line class="st3" x1="16.8" y1="35.3" x2="16.8" y2="42.9"/>
	<line class="st3" x1="29.1" y1="47.6" x2="21.5" y2="47.6"/>
	<line class="st3" x1="16.8" y1="59.9" x2="16.8" y2="52.3"/>
	<line class="st3" x1="4.5" y1="47.6" x2="12.1" y2="47.6"/>
</g>
<g>
	<rect x="48" y="35.3" class="st2" width="24.6" height="24.6"/>
	<circle cx="60.2" cy="47.6" r="3.8"/>
	<line class="st3" x1="60.2" y1="35.3" x2="60.2" y2="42.9"/>
	<line class="st3" x1="72.5" y1="47.6" x2="65" y2="47.6"/>
	<line class="st3" x1="60.2" y1="59.9" x2="60.2" y2="52.3"/>
	<line class="st3" x1="48" y1="47.6" x2="55.5" y2="47.6"/>
</g>
<line class="st4" x1="29.1" y1="4.5" x2="29.1" y2="59.9"/>
<line class="st4" x1="48" y1="4.5" x2="48" y2="59.9"/>
<line class="st4" x1="22.9" y1="53.7" x2="35.8" y2="53.7"/>
<line class="st4" x1="41.5" y1="53.7" x2="54.4" y2="53.7"/>
<line class="st4" x1="22.9" y1="41.4" x2="35.8" y2="41.4"/>
<line class="st4" x1="41.5" y1="41.4" x2="54.4" y2="41.4"/>
<line class="st4" x1="22.9" y1="22.9" x2="35.8" y2="22.9"/>
<line class="st4" x1="41.5" y1="22.9" x2="54.4" y2="22.9"/>
<line class="st4" x1="22.9" y1="10.6" x2="35.8" y2="10.6"/>
<line class="st4" x1="41.5" y1="10.6" x2="54.4" y2="10.6"/>
</svg>
