<?xml version="1.0" encoding="utf-8"?>
<!-- Generator: Adobe Illustrator 17.0.0, SVG Export Plug-In . SVG Version: 6.00 Build 0)  -->
<!DOCTYPE svg PUBLIC "-//W3C//DTD SVG 1.1//EN" "http://www.w3.org/Graphics/SVG/1.1/DTD/svg11.dtd">
<svg version="1.1" id="Layer_1" xmlns="http://www.w3.org/2000/svg" xmlns:xlink="http://www.w3.org/1999/xlink" x="0" y="0"
	 width="150.81" height="151.05" viewBox="0 0 150.81 151.05" enable-background="new 0 0 150.81 151.05" xml:space="preserve">
<path fill="none" stroke="#000000" d="M0,151.05V0h150.81C150.81,103.025,102.785,151.05,0,151.05z"/>
<ellipse transform="matrix(0.7071 -0.7071 0.7071 0.7071 -29.4255 72.6715)" fill="#FFFFFF" stroke="#000000" stroke-width="0.784" cx="73.01" cy="71.856" rx="67.35" ry="51.88"/>
<path fill="none" stroke="#000000" d="M19.792,58.362C12.84,23.768,4.086,26.829,10.053,20.815L22.262,8.51
	c3.988-4.02,6.661,6.347,34.634,11.312"/>
<path fill="#FFFFFF" stroke="#000000" stroke-width="0.64" d="M102.989,102.091c-21.621,21.314-52.651,25.282-69.31,8.864
	s-12.63-47.01,8.991-68.32s52.651-25.282,69.31-8.864S124.611,80.781,102.989,102.091z"/>
<path fill="#FFFFFF" stroke="#000000" stroke-width="0.8" d="M76.809,76.661c-0.798,0.786-2.074,0.803-2.851,0.037
	c-0.777-0.766-0.76-2.024,0.037-2.811c0.798-0.786,2.074-0.803,2.851-0.037C77.624,74.617,77.607,75.875,76.809,76.661z"/>
<path fill="none" stroke="#000000" stroke-width="0.8" d="M20.81,56.452c-6.194-30.823-14.41-29.707-9.09-35.07l10.878-10.964
	c3.553-3.581,7.614,6.163,32.538,10.587"/>
</svg>
